<svg width="88" height="22" viewBox="0 0 88 22" fill="none" xmlns="http://www.w3.org/2000/svg" xmlns:xlink="http://www.w3.org/1999/xlink">
  <image href="etc_pay_toss_mark.png" x="0" y="2" width="18.4331" height="17.1274" preserveAspectRatio="xMidYMid meet"/>
  <g transform="translate(20.6274 4.10681)">
    <path d="M1.93346 8.63837V4.92959H0V2.97851H1.93346V0.632819L4.29753 0V2.97851H7.24154V4.92959H4.29753V8.60312C4.29753 9.57942 4.82484 10.1498 5.73012 10.1498C6.24862 10.1498 6.6266 10.0443 7.02195 9.75519L7.86554 11.5129C7.24154 11.9954 6.41558 12.224 5.5191 12.224C3.22529 12.224 1.93346 10.9329 1.93346 8.63837Z" fill="#202632"/>
    <path d="M7.98288 7.47846C7.98288 4.78123 10.0745 2.75989 12.8956 2.75989C15.7167 2.75989 17.8083 4.78123 17.8083 7.47846C17.8083 10.1757 15.7167 12.1985 12.8956 12.1985C10.0745 12.1985 7.98288 10.1772 7.98288 7.47846ZM12.8956 10.0896C14.3368 10.0896 15.4178 8.97275 15.4178 7.47871C15.4178 5.98467 14.3368 4.86937 12.8956 4.86937C11.4544 4.86937 10.3734 5.98467 10.3734 7.47871C10.3734 8.97275 11.4544 10.0896 12.8956 10.0896Z" fill="#202632"/>
    <path d="M18.4165 9.84328L20.7629 9.21046C20.9123 9.93898 21.5892 10.353 22.6876 10.353C23.5841 10.353 24.2343 9.9488 24.2343 9.41192C24.2343 9.01732 23.7772 8.73604 23.0741 8.5857L21.3253 8.21654C19.6643 7.865 18.6449 6.9781 18.6449 5.71271C18.6449 3.94545 20.1739 2.75989 22.4239 2.75989C24.4277 2.75989 25.957 3.67399 26.3611 5.1504L24.1552 5.74796C24.0147 5.04489 23.3204 4.57827 22.3537 4.57827C21.5451 4.57827 21.0004 4.957 21.0004 5.49237C21.0004 5.90611 21.3696 6.12519 21.976 6.2657L24.0237 6.73232C25.588 7.08386 26.5371 7.9627 26.5371 9.22809C26.5371 11.0817 24.9905 12.1985 22.4771 12.1985C20.2711 12.1985 18.7421 11.3101 18.417 9.84328H18.4165Z" fill="#202632"/>
    <path d="M27.1102 9.84328L29.4566 9.21046C29.606 9.93898 30.2829 10.353 31.3813 10.353C32.2778 10.353 32.928 9.9488 32.928 9.41192C32.928 9.01732 32.4709 8.73604 31.7678 8.5857L30.019 8.21654C28.358 7.865 27.3386 6.9781 27.3386 5.71271C27.3386 3.94545 28.8676 2.75989 31.1176 2.75989C33.1214 2.75989 34.6506 3.67399 35.0548 5.1504L32.8489 5.74796C32.7084 5.04489 32.0141 4.57827 31.0474 4.57827C30.2388 4.57827 29.6941 4.957 29.6941 5.49237C29.6941 5.90611 30.0633 6.12519 30.6697 6.2657L32.7174 6.73232C34.2817 7.08386 35.2308 7.9627 35.2308 9.22809C35.2308 11.0817 33.6842 12.1985 31.1708 12.1985C28.9648 12.1985 27.4358 11.3101 27.1107 9.84328H27.1102Z" fill="#202632"/>
  </g>
  <g transform="translate(59.4056 6.96289)">
    <path d="M17.5576 1.44668C16.7538 0.512938 15.6125 0.000488281 14.3308 0.000488281C11.8267 0.000488281 9.93805 1.98331 9.93805 4.61279C9.93805 7.24228 11.8264 9.2251 14.3308 9.2251C15.6553 9.2251 16.856 8.66077 17.6455 7.67213V9.10221H18.9781V0.123627H17.5576V1.44668ZM14.5504 7.83984C12.7519 7.83984 11.4464 6.48279 11.4464 4.61304C11.4464 2.74329 12.7519 1.38624 14.5504 1.38624C16.3488 1.38624 17.5309 2.60605 17.6455 4.34939V4.87544C17.5301 6.62104 16.2577 7.8401 14.5504 7.8401V7.83984Z" fill="#202632"/>
    <path d="M27.1146 0.0882568L24.1726 6.9906L21.3089 0.0882568H19.7401L23.3879 8.64655L21.9787 11.9839H23.4496L24.6676 9.07691L28.6665 0.0882568H27.1146Z" fill="#202632"/>
    <path d="M4.64731 0.000252064C3.32274 0.000252064 2.12207 0.564576 1.33262 1.55321V0.140766H0V11.9835H1.4205V7.77841C2.22431 8.71216 3.36555 9.22461 4.64731 9.22461C7.15139 9.22461 9.04002 7.24179 9.04002 4.6123C9.04002 1.98282 7.15164 0 4.64731 0V0.000252064ZM4.42772 7.83961C2.71988 7.83961 1.4472 6.6198 1.33262 4.87646V4.35192C1.4472 2.60556 2.71988 1.38576 4.42772 1.38576C6.2262 1.38576 7.53163 2.7428 7.53163 4.61256C7.53163 6.48231 6.2262 7.83935 4.42772 7.83935V7.83961Z" fill="#202632"/>
  </g>
</svg>
