<svg width="24" height="24" viewBox="0 0 24 24" fill="none" xmlns="http://www.w3.org/2000/svg">
<path d="M19.6647 17.1692C19.3774 17.8269 19.0374 18.4322 18.6434 18.9888C18.1064 19.7475 17.6667 20.2727 17.3279 20.5644C16.8026 21.0431 16.2398 21.2882 15.6371 21.3022C15.2045 21.3022 14.6827 21.1802 14.0753 20.9327C13.466 20.6863 12.906 20.5644 12.394 20.5644C11.857 20.5644 11.281 20.6863 10.665 20.9327C10.048 21.1802 9.55099 21.3091 9.17098 21.3219C8.59305 21.3463 8.017 21.0942 7.442 20.5644C7.07501 20.2471 6.61598 19.7034 6.06607 18.933C5.47607 18.1104 4.991 17.1565 4.61099 16.0689C4.20402 14.8942 4 13.7567 4 12.6555C4 11.394 4.27507 10.306 4.82603 9.3942C5.25904 8.66185 5.83509 8.08415 6.55606 7.66005C7.27703 7.23595 8.05605 7.01984 8.89497 7.00601C9.35401 7.00601 9.95597 7.14672 10.704 7.42325C11.45 7.70072 11.9289 7.84142 12.1389 7.84142C12.2959 7.84142 12.828 7.6769 13.73 7.34889C14.583 7.0447 15.3029 6.91875 15.8927 6.96836C17.4908 7.09617 18.6915 7.72047 19.49 8.8452C18.0607 9.70339 17.3537 10.9054 17.3677 12.4474C17.3806 13.6484 17.8203 14.6479 18.6845 15.4415C19.0761 15.8098 19.5134 16.0945 20 16.2966C19.8945 16.5999 19.7831 16.8904 19.6647 17.1692ZM15.9994 2.87658C15.9994 3.81797 15.6524 4.69694 14.9606 5.51051C14.1258 6.47769 13.116 7.03657 12.021 6.94838C12.007 6.83544 11.9989 6.71658 11.9989 6.59167C11.9989 5.68794 12.396 4.72076 13.101 3.92997C13.453 3.52957 13.9006 3.19665 14.4435 2.93107C14.9852 2.66945 15.4976 2.52478 15.9795 2.5C15.9936 2.62585 15.9994 2.75171 15.9994 2.87657V2.87658Z" fill="#030712"/>
</svg>
