<svg width="96" height="96" viewBox="0 0 96 96" fill="none" xmlns="http://www.w3.org/2000/svg">
<g clip-path="url(#clip0_7502_1242)">
<path d="M48 0C74.5097 0 96 21.4903 96 48C96 74.5097 74.5097 96 48 96C21.4903 96 0 74.5097 0 48C0 21.4903 21.4903 0 48 0ZM56.4277 22.8271C56.0593 22.8271 55.7386 23.0893 55.667 23.4551L47.6455 63.5146H46.9297L40.2871 30.459C40.2128 30.0933 39.8947 29.832 39.5264 29.832H23.5771C23.0788 29.8321 22.7107 30.2965 22.8193 30.7852L32.2373 73.0635C32.3168 73.4212 32.632 73.6748 32.9951 73.6748H61.209C61.5721 73.6748 61.8855 73.4241 61.9678 73.0664L73.1797 23.7812C73.291 23.2926 72.9229 22.8252 72.4219 22.8252H56.4297L56.4277 22.8271Z" fill="white"/>
</g>
<defs>
<clipPath id="clip0_7502_1242">
<rect width="96" height="96" fill="white"/>
</clipPath>
</defs>
</svg>
