<svg width="95" height="22" viewBox="0 0 95 22" fill="none" xmlns="http://www.w3.org/2000/svg">
<g clip-path="url(#clip0_9755_2622)">
<path d="M70.4414 6.01746H73.679C75.6342 6.01746 77.0858 7.5239 77.0858 9.39316C77.0858 11.2624 75.6362 12.7827 73.6672 12.7827H72.2038V15.4958H70.4434V6.01746H70.4414ZM72.2018 7.65404V11.1461H73.5492C74.5976 11.1461 75.3116 10.3672 75.3116 9.39316C75.3116 8.41909 74.5996 7.65404 73.5492 7.65404H72.2018Z" fill="black"/>
<path d="M77.5547 11.7041C77.5547 9.18613 79.3938 7.74475 81.3096 7.74475C82.3069 7.74475 83.1999 8.1608 83.7447 8.80952V7.90052H85.4933V15.4959H83.7447V14.51C83.1881 15.2119 82.2813 15.6536 81.284 15.6536C79.4587 15.6536 77.5547 14.1866 77.5547 11.7061V11.7041ZM83.8352 11.6785C83.8352 10.3929 82.8635 9.3419 81.5693 9.3419C80.275 9.3419 79.2777 10.3672 79.2777 11.6785C79.2777 12.9897 80.275 14.0407 81.5693 14.0407C82.8635 14.0407 83.8352 12.9897 83.8352 11.6785Z" fill="black"/>
<path d="M89.3012 15.1172L86.1934 7.89844H88.058L90.1686 13.0133L92.1631 7.89844H94.0022L89.4821 18.9996H87.7079L89.3012 15.1172Z" fill="black"/>
<path d="M52.0956 6.28125L52.2156 13.2397H52.1684L50.1345 6.28125H46.8536V15.0557H49.0271L48.9052 7.85671H48.9544L51.1377 15.0557H54.2868V6.28125H52.0956Z" fill="black"/>
<path d="M10.4686 6.28125L8.82812 15.1464H11.218L12.4277 7.10349L12.4768 7.10151L13.657 15.1464H16.0311L14.4025 6.28125H10.4686Z" fill="black"/>
<path d="M23.8298 6.28125L22.7381 13.0603H22.6889L21.5992 6.28125H17.9918L17.7971 15.1464H20.0099L20.065 7.17644H20.1142L21.5914 15.1464H23.8357L25.3129 7.17841L25.362 7.17644L25.4171 15.1464H27.6299L27.4352 6.28125H23.8298Z" fill="black"/>
<path d="M5.10702 12.646C5.19357 12.861 5.16603 13.135 5.12472 13.3026C5.05195 13.5984 4.85328 13.9001 4.26319 13.9001C3.71048 13.9001 3.37413 13.5787 3.37413 13.0956V12.2359H1V12.9201C1 14.8978 2.55193 15.4953 4.21402 15.4953C5.8761 15.4953 7.12906 14.9491 7.33952 13.4683C7.44771 12.7032 7.36706 12.2024 7.32969 12.0151C6.95597 10.1596 3.60033 9.60555 3.35052 8.56641C3.30922 8.38698 3.31905 8.19966 3.34069 8.10107C3.40363 7.81713 3.59443 7.50559 4.14911 7.50559C4.66642 7.50559 4.9713 7.82502 4.9713 8.30811V8.85824H7.17823V8.23318C7.17823 6.30083 5.44731 5.99915 4.19632 5.99915C2.62471 5.99915 1.33832 6.52167 1.10425 7.96699C1.03934 8.36135 1.03147 8.71627 1.12392 9.16189C1.50748 10.974 4.65068 11.4985 5.10505 12.6441" fill="black"/>
<path d="M33.8567 12.6285C33.9413 12.8414 33.9157 13.1115 33.8744 13.2772C33.8036 13.569 33.605 13.8667 33.0208 13.8667C32.472 13.8667 32.1396 13.5493 32.1396 13.0701V12.2203H29.791V12.8966C29.791 14.8546 31.3272 15.4461 32.9736 15.4461C34.6199 15.4461 35.8591 14.9059 36.0676 13.4389C36.1738 12.6817 36.0951 12.1848 36.0578 11.9995C35.688 10.1618 32.3658 9.6136 32.1199 8.58629C32.0766 8.40883 32.0884 8.22546 32.1081 8.12687C32.171 7.8449 32.3618 7.5373 32.9087 7.5373C33.424 7.5373 33.723 7.85279 33.723 8.33193V8.87418H35.9083V8.25701C35.9083 6.34437 34.195 6.04663 32.9559 6.04663C31.4 6.04663 30.1274 6.56324 29.8953 7.99476C29.8304 8.38714 29.8225 8.73615 29.9149 9.17783C30.2926 10.9722 33.4063 11.4907 33.8567 12.6265" fill="black"/>
<path d="M41.2808 13.8193C41.8965 13.8193 42.0853 13.3954 42.1286 13.1765C42.1483 13.0818 42.1502 12.9517 42.1502 12.8373V6.27917H44.3886V12.6362C44.3906 12.7999 44.3749 13.1331 44.367 13.2199C44.2136 14.8742 42.9075 15.4105 41.2828 15.4105C39.6581 15.4105 38.352 14.8742 38.1966 13.2199C38.1888 13.1331 38.1711 12.7999 38.177 12.6362V6.27917H40.4134V12.8373C40.4114 12.9517 40.4154 13.0799 40.435 13.1765C40.4783 13.3954 40.6671 13.8193 41.2828 13.8193" fill="black"/>
<path d="M59.7252 13.7267C60.3664 13.7267 60.5886 13.3205 60.628 13.0839C60.6457 12.9833 60.6496 12.8591 60.6496 12.7467V11.4591H59.7429V10.1676H62.8762V12.5436C62.8762 12.7112 62.8703 12.8315 62.8448 13.1273C62.6992 14.7422 61.3027 15.3179 59.735 15.3179C58.1673 15.3179 56.7727 14.7422 56.6252 13.1273C56.5996 12.8335 56.5957 12.7112 56.5938 12.5436V8.81496C56.5938 8.65721 56.6134 8.37919 56.6311 8.23131C56.8278 6.575 58.1673 6.04065 59.735 6.04065C61.3027 6.04065 62.6756 6.56909 62.8389 8.23131C62.8664 8.51327 62.8585 8.81496 62.8585 8.81496V9.11072H60.628V8.61383C60.628 8.61383 60.628 8.40285 60.6005 8.27666C60.5611 8.08145 60.392 7.63385 59.7173 7.63385C59.0426 7.63385 58.8853 8.05779 58.8361 8.27666C58.8105 8.39299 58.8007 8.55074 58.8007 8.69665V12.7487C58.8007 12.8611 58.8046 12.9853 58.8203 13.0858C58.8617 13.3225 59.0859 13.7287 59.7252 13.7287" fill="black"/>
</g>
<defs>
<clipPath id="clip0_9755_2622">
<rect width="93" height="13" fill="white" transform="translate(1 6)"/>
</clipPath>
</defs>
</svg>
