<svg width="24" height="24" viewBox="0 0 24 24" fill="none" xmlns="http://www.w3.org/2000/svg">
<path fill-rule="evenodd" clip-rule="evenodd" d="M20.6401 12.2039C20.6401 11.5657 20.5828 10.952 20.4764 10.3629H12V13.8443H16.8437C16.635 14.9693 16.0009 15.9225 15.0477 16.5607V18.8189H17.9564C19.6582 17.2521 20.6401 14.9448 20.6401 12.2039Z" fill="#4285F4"/>
<path fill-rule="evenodd" clip-rule="evenodd" d="M11.9999 21.0005C14.4299 21.0005 16.4672 20.1946 17.9563 18.8201L15.0477 16.5619C14.2418 17.1019 13.2109 17.421 11.9999 17.421C9.65583 17.421 7.67172 15.8378 6.96399 13.7105H3.95715V16.0423C5.43807 18.9837 8.48173 21.0005 11.9999 21.0005Z" fill="#34A853"/>
<path fill-rule="evenodd" clip-rule="evenodd" d="M6.96406 13.7105C6.78405 13.1705 6.68178 12.5937 6.68178 12.0005C6.68178 11.4073 6.78405 10.8305 6.96406 10.2905V7.95868H3.95722C3.34767 9.17369 2.99994 10.5482 2.99994 12.0005C2.99994 13.4528 3.34767 14.8274 3.95722 16.0424L6.96406 13.7105Z" fill="#FBBC05"/>
<path fill-rule="evenodd" clip-rule="evenodd" d="M11.9999 6.57969C13.3213 6.57969 14.5077 7.03378 15.4404 7.92561L18.0218 5.34423C16.4631 3.89195 14.4259 3.00012 11.9999 3.00012C8.48173 3.00012 5.43807 5.01695 3.95715 7.95834L6.96399 10.2902C7.67172 8.16288 9.65583 6.57969 11.9999 6.57969Z" fill="#EA4335"/>
</svg>
