<svg width="53" height="22" viewBox="0 0 53 22" fill="none" xmlns="http://www.w3.org/2000/svg">
<g clip-path="url(#clip0_9755_2623)">
<path d="M42.9711 1C48.509 1 53 5.4781 53 11C53 16.5219 48.509 21 42.9711 21H10.0288C4.49101 21 0 16.5219 0 11C0 5.4781 4.49101 1 10.0288 1H42.9711Z" fill="#00DE5A"/>
<path d="M10.0459 18.2495C6.02401 18.2495 2.76367 15.0038 2.76367 11C2.76367 6.9962 6.02401 3.75049 10.0459 3.75049C14.0678 3.75049 17.3281 6.9962 17.3281 11C17.3301 15.0038 14.0697 18.2495 10.0459 18.2495ZM11.4522 7.37335V11.36L8.63768 7.37335H6.40477V14.6229H8.64151V10.6362L11.456 14.6229H13.6889V7.37335H11.4522Z" fill="black"/>
<path d="M46.0948 6.39435L43.9366 11.3201L41.5525 6.39435H39.3751L42.9837 13.3848L41.5334 16.6229H43.5903L48.1498 6.39435H46.0948ZM36.3386 14.2324H38.2884V6.39245H36.3386V7.03626C35.669 6.49912 34.9113 6.21912 33.9929 6.21912C31.7753 6.21912 30.038 8.03245 30.038 10.3105C30.038 12.5886 31.7753 14.402 33.9929 14.402C34.9113 14.402 35.669 14.122 36.3386 13.5848V14.2324ZM34.276 12.8153C32.9711 12.8153 31.9896 11.741 31.9896 10.3144C31.9896 8.88769 32.973 7.8134 34.276 7.8134C35.579 7.8134 36.5625 8.88769 36.5625 10.3144C36.5644 11.7391 35.5809 12.8153 34.276 12.8153ZM22.794 13.6267C23.4503 14.1391 24.185 14.4058 25.0709 14.4058C27.2885 14.4058 29.0258 12.5924 29.0258 10.3144C29.0258 8.03626 27.2885 6.22293 25.0709 6.22293C24.1525 6.22293 23.3948 6.50293 22.7251 7.04007V6.39626H20.7754V16.6248H22.7921V13.6267H22.794ZM22.5012 10.3144C22.5012 8.88769 23.4847 7.8134 24.7877 7.8134C26.0907 7.8134 27.0742 8.88769 27.0742 10.3144C27.0742 11.741 26.0907 12.8153 24.7877 12.8153C23.4847 12.8153 22.5012 11.7391 22.5012 10.3144Z" fill="black"/>
</g>
<defs>
<clipPath id="clip0_9755_2623">
<rect width="53" height="20" fill="white" transform="translate(0 1)"/>
</clipPath>
</defs>
</svg>
