<svg width="48" height="22" viewBox="0 0 48 22" fill="none" xmlns="http://www.w3.org/2000/svg">
<g clip-path="url(#clip0_9755_2620)">
<path fill-rule="evenodd" clip-rule="evenodd" d="M37.9969 21H10.0031C4.479 21 0 16.5224 0 11C0 5.47761 4.479 1 10.0031 1H38.0218C43.5459 1 48.0249 5.47761 48.0249 11C48.0249 16.5224 43.521 21 37.9969 21Z" fill="#FFEB00"/>
<path fill-rule="evenodd" clip-rule="evenodd" d="M11.2229 5.80103C8.21201 5.80103 5.77344 7.71645 5.77344 10.1045C5.77344 11.6219 6.79366 12.9652 8.31154 13.7363L7.78899 15.6766C7.76411 15.7264 7.78899 15.801 7.83876 15.8508C7.86364 15.8757 7.91341 15.9005 7.93829 15.9005C7.96317 15.9005 8.01294 15.8757 8.03782 15.8757L10.2524 14.3831C10.5759 14.4329 10.8994 14.4577 11.2478 14.4577C14.2587 14.4577 16.6972 12.5174 16.6972 10.1543C16.6972 7.71645 14.2587 5.80103 11.2229 5.80103Z" fill="black"/>
<path d="M21.3012 13.6867V16.4727H19.3105V6.1991H20.704L20.9528 6.84587C21.3759 6.42298 22.0228 5.97522 23.0431 5.97522C24.984 5.97522 25.9046 7.41801 25.9046 9.78119C25.9046 12.2439 24.4863 13.811 22.4458 13.811C22.0477 13.8359 21.7491 13.811 21.3012 13.6867ZM21.3012 7.86577V12.2936C21.4007 12.3185 21.6745 12.3434 21.9482 12.3434C23.3665 12.3434 23.914 11.3484 23.914 9.78119C23.914 8.41303 23.5407 7.59214 22.421 7.59214C22.0228 7.59214 21.6247 7.69164 21.3012 7.86577Z" fill="black"/>
<path d="M30.2084 9.1096H31.3282V8.86085C31.3282 8.03995 30.8554 7.66682 30.0591 7.66682C29.437 7.66682 28.6656 7.84094 28.0187 8.16433L27.4712 6.84592C28.168 6.34841 29.2628 6.02502 30.2333 6.02502C32.1244 6.02502 33.1695 7.02005 33.1695 8.93547V13.637H31.7761L31.577 13.0151C30.7807 13.5872 30.0342 13.836 29.3872 13.836C27.944 13.836 27.1229 12.9653 27.1229 11.4977C27.1229 9.9305 28.1928 9.1096 30.2084 9.1096ZM31.353 11.7215V10.3534H30.4324C29.4121 10.3534 28.8896 10.7265 28.8896 11.4479C28.8896 11.9952 29.1633 12.2688 29.7605 12.2688C30.3079 12.2937 31.0047 12.02 31.353 11.7215Z" fill="black"/>
<path d="M39.192 12.8657C38.4953 14.7065 37.6741 16.0498 36.4549 16.7961L35.2356 15.6767C35.9323 15.0548 36.4549 14.4578 36.8779 13.6617L34.2402 6.47268L36.206 5.95029L37.8981 11.7712L39.5653 5.92542L41.5062 6.47268L39.192 12.8657Z" fill="black"/>
</g>
<defs>
<clipPath id="clip0_9755_2620">
<rect width="48" height="20" fill="white" transform="translate(0 1)"/>
</clipPath>
</defs>
</svg>
