<svg width="53" height="22" viewBox="0 0 53 22" fill="none" xmlns="http://www.w3.org/2000/svg">
<path d="M0 6.35784C0 5.65328 0.557584 5.09802 1.25981 5.09802H4.67997C7.41423 5.09802 9.06598 6.71713 9.06598 9.05946V9.09213C9.06598 11.7448 7.00362 13.1189 4.43501 13.1189H2.51963V15.4916C2.51963 16.1961 1.96204 16.7514 1.25981 16.7514C0.557584 16.7514 0 16.1938 0 15.4916V6.35784ZM4.51666 10.8745C5.77647 10.8745 6.5137 10.121 6.5137 9.13878V9.10612C6.5137 7.97695 5.72748 7.37037 4.46767 7.37037H2.51963V10.8722H4.51666V10.8745Z" fill="#E7231E"/>
<path d="M8.66689 15.0342L12.661 6.01476C12.9386 5.39185 13.4472 5.01624 14.1331 5.01624H14.2801C14.9683 5.01624 15.4582 5.39185 15.7358 6.01476L19.7299 15.0342C19.8116 15.2138 19.8606 15.3771 19.8606 15.5404C19.8606 16.2123 19.3356 16.7512 18.6661 16.7512C18.0758 16.7512 17.6839 16.4083 17.4552 15.8834L16.6854 14.0823H11.6438L10.8412 15.965C10.6289 16.4549 10.202 16.7512 9.67941 16.7512C9.02384 16.7512 8.51758 16.2263 8.51758 15.5731C8.51758 15.3934 8.5829 15.2138 8.66456 15.0342H8.66689ZM15.7545 11.8589L14.1681 8.07714L12.5793 11.8589H15.7545Z" fill="#E7231E"/>
<path d="M22.5276 12.2347L18.8298 7.20936C18.6502 6.9644 18.5195 6.66811 18.5195 6.30883C18.5195 5.63692 19.0771 5.098 19.7793 5.098C20.3533 5.098 20.7125 5.40829 21.0228 5.86789L23.8061 9.87832L26.6383 5.83523C26.9486 5.37796 27.3265 5.08167 27.8491 5.08167C28.619 5.08167 29.0763 5.62059 29.0763 6.30883C29.0763 6.65178 28.913 6.9644 28.7497 7.19303L25.0519 12.1857V15.4915C25.0519 16.1961 24.4943 16.7513 23.7921 16.7513C23.0898 16.7513 22.5323 16.1938 22.5323 15.4915V12.2347H22.5276Z" fill="#E7231E"/>
<path d="M29.1523 10.9585V10.9258C29.1523 7.66896 31.6066 5 35.1271 5C36.8465 5 38.0084 5.45727 38.9579 6.16183C39.2192 6.35781 39.4478 6.71709 39.4478 7.16036C39.4478 7.8486 38.8926 8.38752 38.2043 8.38752C37.8614 8.38752 37.6327 8.25687 37.4508 8.14256C36.7462 7.61763 36.0113 7.32367 35.1108 7.32367C33.1791 7.32367 31.7886 8.92878 31.7886 10.8908V10.9235C31.7886 12.8879 33.1464 14.5233 35.1108 14.5233C36.1746 14.5233 36.8792 14.1967 37.5978 13.6228C37.7937 13.4595 38.055 13.3452 38.3513 13.3452C38.9905 13.3452 39.5295 13.8701 39.5295 14.507C39.5295 14.8989 39.3335 15.2116 39.1049 15.4075C38.0737 16.3081 36.8629 16.847 35.0291 16.847C31.658 16.847 29.1547 14.2457 29.1547 10.9562L29.1523 10.9585Z" fill="#E7231E"/>
<path d="M40.1835 10.9585V10.9258C40.1835 7.66896 42.7522 5 46.289 5C49.8258 5 52.3617 7.63396 52.3617 10.8908V10.9235C52.3617 14.1804 49.7931 16.8493 46.2563 16.8493C42.7195 16.8493 40.1835 14.213 40.1835 10.9585ZM49.7254 10.9585V10.9258C49.7254 8.96144 48.286 7.326 46.2563 7.326C44.2266 7.326 42.8198 8.93111 42.8198 10.8932V10.9258C42.8198 12.8902 44.2593 14.5257 46.289 14.5257C48.3187 14.5257 49.7254 12.9205 49.7254 10.9585Z" fill="#E7231E"/>
</svg>
