<svg width="24" height="24" viewBox="0 0 24 24" fill="none" xmlns="http://www.w3.org/2000/svg">
<path fill-rule="evenodd" clip-rule="evenodd" d="M4 12.25C4 7.83172 7.58172 4.25 12 4.25C16.4183 4.25 20 7.83172 20 12.25C20 16.6683 16.4183 20.25 12 20.25C7.58172 20.25 4 16.6683 4 12.25ZM11.875 8.95547C12.2892 8.95547 12.625 9.29126 12.625 9.70547V12.6946L14.9359 14.3452C15.273 14.5859 15.3511 15.0543 15.1103 15.3914C14.8696 15.7285 14.4011 15.8065 14.0641 15.5658L11.6485 13.8404C11.32 13.6057 11.125 13.2269 11.125 12.8232V9.70547C11.125 9.29126 11.4608 8.95547 11.875 8.95547Z" fill="black"/>
<path fill-rule="evenodd" clip-rule="evenodd" d="M8.41601 16.876C8.76066 17.1057 8.85379 17.5714 8.62403 17.916L6.62403 20.916C6.39426 21.2607 5.92861 21.3538 5.58396 21.124C5.23932 20.8943 5.14619 20.4286 5.37595 20.084L7.37595 17.084C7.60571 16.7393 8.07137 16.6462 8.41601 16.876Z" fill="black"/>
<path fill-rule="evenodd" clip-rule="evenodd" d="M15.584 16.876C15.9286 16.6462 16.3943 16.7393 16.624 17.084L18.624 20.084C18.8538 20.4286 18.7607 20.8943 18.416 21.124C18.0714 21.3538 17.6057 21.2607 17.376 20.916L15.376 17.916C15.1462 17.5714 15.2393 17.1057 15.584 16.876Z" fill="black"/>
<path fill-rule="evenodd" clip-rule="evenodd" d="M4.5608 7.18305C5.54498 5.7409 6.93757 4.59965 8.57209 3.92583C8.09731 3.35984 7.38479 3 6.58824 3C5.15879 3 4 4.15879 4 5.58824C4 6.12276 4.19429 6.70586 4.5608 7.18305ZM19.4444 7.1907C19.7923 6.74996 20 6.19335 20 5.58824C20 4.15879 18.8412 3 17.4118 3C16.6152 3 15.9027 3.35984 15.4279 3.92583C17.0653 4.60085 18.4599 5.74493 19.4444 7.1907Z" fill="black"/>
</svg>
