<svg width="24" height="24" viewBox="0 0 24 24" fill="none" xmlns="http://www.w3.org/2000/svg">
<path d="M10.8136 2.37426C11.5191 1.85441 12.4809 1.85441 13.1864 2.37426L20.6864 7.90058C21.198 8.27755 21.5 8.87521 21.5 9.51069V20.5001C21.5 21.6046 20.6046 22.5001 19.5 22.5001H16C15.4477 22.5001 15 22.0524 15 21.5001V16.795C15 15.1381 13.6569 13.795 12 13.795C10.3431 13.795 9 15.1381 9 16.795V21.5001C9 22.0524 8.55228 22.5001 8 22.5001H4.5C3.39543 22.5001 2.5 21.6046 2.5 20.5001V9.51069C2.5 8.87521 2.802 8.27755 3.3136 7.90058L10.8136 2.37426Z" fill="black"/>
</svg>
