<svg width="24" height="24" viewBox="0 0 24 24" fill="none" xmlns="http://www.w3.org/2000/svg">
<path d="M11.99 16.74C14.0611 16.74 15.74 15.0611 15.74 12.99C15.74 10.9189 14.0611 9.24 11.99 9.24C9.91893 9.24 8.24 10.9189 8.24 12.99C8.24 15.0611 9.91893 16.74 11.99 16.74Z" fill="black"/>
<path fill-rule="evenodd" clip-rule="evenodd" d="M3.025 19.975C3.375 20.325 3.80258 20.5 4.30775 20.5H19.6923C20.1974 20.5 20.625 20.325 20.975 19.975C21.325 19.625 21.5 19.1974 21.5 18.6922V7.30775C21.5 6.80258 21.325 6.375 20.975 6.025C20.625 5.675 20.1974 5.5 19.6923 5.5H16.6385L15.3307 4.08275C15.1666 3.90192 14.9682 3.75958 14.7355 3.65575C14.5028 3.55192 14.2577 3.5 14 3.5H10C9.74233 3.5 9.49717 3.55192 9.2645 3.65575C9.03183 3.75958 8.83342 3.90192 8.66925 4.08275L7.3615 5.5H4.30775C3.80258 5.5 3.375 5.675 3.025 6.025C2.675 6.375 2.5 6.80258 2.5 7.30775V18.6922C2.5 19.1974 2.675 19.625 3.025 19.975ZM17 13C17 15.7614 14.7614 18 12 18C9.23858 18 7 15.7614 7 13C7 10.2386 9.23858 8 12 8C14.7614 8 17 10.2386 17 13Z" fill="black"/>
</svg>
