<svg width="24" height="24" viewBox="0 0 24 24" fill="none" xmlns="http://www.w3.org/2000/svg">
<path d="M11.9985 2.49979C13.3043 2.49703 14.5966 2.7647 15.7944 3.28494C16.9921 3.80519 18.0699 4.56695 18.9594 5.52322C19.849 6.47957 20.5316 7.60997 20.9643 8.84256C21.3969 10.075 21.5705 11.3836 21.4741 12.6863C21.2942 14.9192 20.3381 17.0189 18.7719 18.6199C17.2058 20.2208 15.1283 21.2219 12.9008 21.45C11.564 21.5783 10.2149 21.4207 8.94381 20.9871C8.63956 20.8916 8.31347 20.8916 8.00924 20.9871L6.65572 21.3728C5.95947 21.5729 5.21616 21.5361 4.54342 21.2674C3.87065 20.9986 3.30597 20.5133 2.93892 19.8885C2.71616 19.4958 2.5749 19.0617 2.52388 18.6131C2.47293 18.1647 2.51324 17.7106 2.64205 17.2781L3.03365 15.906C3.11063 15.6119 3.09769 15.3008 2.99556 15.0144C2.56948 13.7545 2.41567 12.4184 2.54439 11.0945C2.77411 8.86544 3.777 6.78727 5.37935 5.22147C6.98192 3.65562 9.08281 2.70131 11.3159 2.5242C11.5414 2.50045 11.77 2.49979 11.9985 2.49979ZM14.6879 8.60818C14.1765 8.50168 13.6454 8.58455 13.186 8.84354C12.7266 9.10255 12.3675 9.52153 12.1694 10.0281C12.1534 10.0612 12.1282 10.0887 12.0981 10.1082C12.0681 10.1275 12.0337 10.1384 11.9985 10.1385C11.9631 10.1385 11.928 10.1276 11.8979 10.1082C11.8679 10.0888 11.8435 10.0611 11.8276 10.0281C11.628 9.52402 11.2686 9.1075 10.81 8.85037C10.3514 8.59325 9.82186 8.51071 9.31197 8.61697C8.80225 8.72323 8.34344 9.01204 8.01314 9.43338C7.68287 9.85484 7.50172 10.3836 7.50045 10.9295C7.50045 12.6191 9.74984 14.8923 11.1186 16.0974C11.3637 16.3174 11.6761 16.4383 11.9985 16.4383C12.3207 16.4382 12.6324 16.3171 12.8774 16.0974C14.2499 14.8923 16.5004 12.6191 16.5004 10.9295C16.5013 10.382 16.3211 9.85095 15.9907 9.42752C15.6601 9.00406 15.1994 8.71473 14.6879 8.60818Z" fill="#030712"/>
</svg>
