<svg width="24" height="24" viewBox="0 0 24 24" fill="none" xmlns="http://www.w3.org/2000/svg">
<path fill-rule="evenodd" clip-rule="evenodd" d="M20.7769 15.6355C21.2543 14.4829 21.5 13.2476 21.5 12C21.5 9.48044 20.4991 7.06408 18.7175 5.28249C16.9359 3.50089 14.5196 2.5 12 2.5C9.48044 2.5 7.06408 3.50089 5.28249 5.28249C3.50089 7.06408 2.5 9.48044 2.5 12C2.5 13.2476 2.74572 14.4829 3.22314 15.6355C3.70056 16.7881 4.40033 17.8354 5.28249 18.7175C6.16464 19.5997 7.21191 20.2994 8.36451 20.7769C9.5171 21.2543 10.7524 21.5 12 21.5C13.2476 21.5 14.4829 21.2543 15.6355 20.7769C16.7881 20.2994 17.8354 19.5997 18.7175 18.7175C19.5997 17.8354 20.2994 16.7881 20.7769 15.6355ZM7.5 11.25C7.08579 11.25 6.75 11.5858 6.75 12C6.75 12.4142 7.08579 12.75 7.5 12.75H16.5C16.9142 12.75 17.25 12.4142 17.25 12C17.25 11.5858 16.9142 11.25 16.5 11.25H7.5Z" fill="black"/>
</svg>
