<svg width="24" height="24" viewBox="0 0 24 24" fill="none" xmlns="http://www.w3.org/2000/svg">
<path d="M19.2028 5.52611C18.3274 4.81928 17.2041 4.43006 16.0406 4.43006C14.6959 4.43006 13.3937 4.95395 12.4693 5.8659C12.3028 6.03015 12.147 6.20647 12.0015 6.39719C10.8691 4.92632 8.98127 4.17045 7.10655 4.50362C5.55458 4.7788 4.33531 5.61291 3.48143 6.98024C2.2789 8.90962 2.18088 10.7697 3.19056 12.5107C3.73126 13.4441 4.43254 14.3517 5.33224 15.2847C6.98223 16.9988 8.93624 18.6266 11.4847 20.4076C11.6465 20.5193 11.8202 20.5758 12.0007 20.5758C12.2801 20.5758 12.4693 20.438 12.5626 20.3699C14.8266 18.7916 16.6834 17.2713 18.2397 15.7214C19.1207 14.8449 20.12 13.7671 20.8508 12.4227C21.1636 11.8471 21.521 11.0733 21.499 10.1894C21.4524 8.28725 20.6798 6.7183 19.2028 5.52611Z" fill="black"/>
</svg>
