<svg width="24" height="24" viewBox="0 0 24 24" fill="none" xmlns="http://www.w3.org/2000/svg">
<path fill-rule="evenodd" clip-rule="evenodd" d="M13.4986 3.42859C13.4986 3.94074 13.2419 4.39295 12.8502 4.66358L15.0606 7.74923C15.3004 8.15959 15.8143 8.29055 16.2169 8.06355L19.9659 6.55473C19.9406 6.44536 19.9272 6.3314 19.9272 6.2143C19.9272 5.38588 20.5987 4.7143 21.4272 4.7143C22.2556 4.7143 22.9272 5.38588 22.9272 6.2143C22.9272 7.00234 22.3195 7.64845 21.5471 7.70957L19.6001 17.5246C19.5145 17.9262 19.1633 18.2143 18.7608 18.2143H17.022H5.2364C4.83384 18.2143 4.48267 17.9262 4.39702 17.5246L2.4618 7.71046C1.68388 7.65501 1.07001 7.00635 1.07001 6.2143C1.07001 5.38588 1.74158 4.7143 2.57001 4.7143C3.39843 4.7143 4.07001 5.38588 4.07001 6.2143C4.07001 6.31104 4.06085 6.40565 4.04335 6.49729L7.79738 8.02862C8.19994 8.25563 8.71385 8.11593 8.95367 7.7143L11.1467 4.66339C10.7551 4.39274 10.4986 3.94062 10.4986 3.42859C10.4986 2.60016 11.1702 1.92859 11.9986 1.92859C12.827 1.92859 13.4986 2.60016 13.4986 3.42859ZM19.7129 20.7857C19.7129 20.0782 19.1087 19.5 18.3693 19.5H5.62787C4.88845 19.5 4.28429 20.0782 4.28429 20.7857C4.28429 21.4933 4.88845 22.0714 5.62787 22.0714H18.3693C19.1087 22.0714 19.7129 21.4933 19.7129 20.7857Z" fill="black"/>
</svg>
