<svg width="24" height="24" viewBox="0 0 24 24" fill="none" xmlns="http://www.w3.org/2000/svg">
<path fill-rule="evenodd" clip-rule="evenodd" d="M3 7C3 5.89543 3.89543 5 5 5H16C17.1046 5 18 5.89543 18 7V9.93749L20.45 8.09999C20.7796 7.85278 21.25 8.08797 21.25 8.49999V15.5C21.25 15.912 20.7796 16.1472 20.45 15.9L18 14.0625V17C18 18.1046 17.1046 19 16 19H5C3.89543 19 3 18.1046 3 17V7ZM8.5 9.87949V14.3705C8.5 14.7584 8.92245 14.9985 9.25574 14.8002L13.0282 12.5546C13.3539 12.3608 13.3539 11.8892 13.0282 11.6954L9.25574 9.44985C8.92245 9.25146 8.5 9.49163 8.5 9.87949Z" fill="black"/>
</svg>
