<svg width="24" height="24" viewBox="0 0 24 24" fill="none" xmlns="http://www.w3.org/2000/svg">
<path d="M5.30775 20.5C4.80258 20.5 4.375 20.325 4.025 19.975C3.675 19.625 3.5 19.1974 3.5 18.6923V7.30775C3.5 6.80258 3.675 6.375 4.025 6.025C4.375 5.675 4.80258 5.5 5.30775 5.5H7.5C7.5 4.25133 7.93783 3.18917 8.8135 2.3135C9.68917 1.43783 10.7513 1 12 1C13.2487 1 14.3108 1.43783 15.1865 2.3135C16.0622 3.18917 16.5 4.25133 16.5 5.5H18.6923C19.1974 5.5 19.625 5.675 19.975 6.025C20.325 6.375 20.5 6.80258 20.5 7.30775V18.6923C20.5 19.1974 20.325 19.625 19.975 19.975C19.625 20.325 19.1974 20.5 18.6923 20.5H5.30775ZM9 5.5H15C15 4.66667 14.7083 3.95833 14.125 3.375C13.5417 2.79167 12.8333 2.5 12 2.5C11.1667 2.5 10.4583 2.79167 9.875 3.375C9.29167 3.95833 9 4.66667 9 5.5ZM11.9845 12.5C13.1153 12.5 14.1311 12.1173 15.0318 11.352C15.9324 10.5865 16.3776 9.71792 16.3673 8.74625C16.3673 8.53975 16.298 8.36375 16.1595 8.21825C16.0212 8.07275 15.8456 8 15.6328 8C15.4571 8 15.3 8.06058 15.1615 8.18175C15.023 8.30292 14.9249 8.47183 14.8673 8.6885C14.7224 9.36667 14.3769 9.9215 13.8307 10.353C13.2846 10.7843 12.6692 11 11.9845 11C11.3 11 10.6821 10.7843 10.1308 10.353C9.57942 9.9215 9.2365 9.36667 9.102 8.6885C9.04433 8.4615 8.95133 8.29 8.823 8.174C8.69483 8.058 8.54292 8 8.36725 8C8.15442 8 7.97625 8.07275 7.83275 8.21825C7.68908 8.36375 7.61725 8.53975 7.61725 8.74625C7.61725 9.71792 8.0625 10.5865 8.953 11.352C9.84333 12.1173 10.8538 12.5 11.9845 12.5Z" fill="black"/>
</svg>
