<svg width="24" height="24" viewBox="0 0 24 24" fill="none" xmlns="http://www.w3.org/2000/svg">
<path d="M12.6181 1.49997C15.1927 1.64213 17.6249 2.72941 19.4482 4.5527C21.2713 6.37606 22.3579 8.80822 22.5 11.3828V12C22.5042 13.6304 22.1237 15.239 21.3886 16.6943C20.5171 18.4382 19.1767 19.9052 17.5185 20.9306C15.8604 21.956 13.9495 22.4992 12 22.5C10.3696 22.5042 8.76094 22.1237 7.30563 21.3886L3.67087 22.084C2.63005 22.2831 1.71677 21.3699 1.91599 20.3291L2.61227 16.6943C1.87719 15.239 1.49572 13.6304 1.49997 12C1.50073 10.0505 2.04397 8.13949 3.06931 6.48141C4.09465 4.82341 5.5619 3.48386 7.30563 2.61227C8.76094 1.8772 10.3696 1.49572 12 1.49997H12.6181ZM17.1904 12.2002C16.6333 12.2002 16.1569 12.6046 15.7998 12.9892C15.4427 12.6048 14.967 12.2004 14.4101 12.2002C13.4126 12.2002 12.7998 12.9952 12.7998 13.6474C12.7998 15.0576 14.5584 16.3668 15.7998 17.2002C17.0411 16.3668 18.7997 15.0577 18.7998 13.6474C18.7998 12.9953 18.1879 12.2003 17.1904 12.2002ZM6.59958 12.5C6.15803 12.5002 5.7999 12.8582 5.79977 13.2998C5.79977 13.7415 6.15795 14.0993 6.59958 14.0996H10.5C10.9418 14.0996 11.2998 13.7416 11.2998 13.2998C11.2996 12.8581 10.9417 12.5 10.5 12.5H6.59958ZM6.59958 8.59958C6.15796 8.59981 5.79979 8.95869 5.79977 9.40036C5.79998 9.84187 6.15808 10.1999 6.59958 10.2002H16.5C16.9417 10.2002 17.2996 9.84201 17.2998 9.40036C17.2998 8.95855 16.9418 8.59958 16.5 8.59958H6.59958Z" fill="black"/>
</svg>
