<svg width="24" height="24" viewBox="0 0 24 24" fill="none" xmlns="http://www.w3.org/2000/svg">
<path fill-rule="evenodd" clip-rule="evenodd" d="M11.6719 2.5C12.2022 2.50008 12.7109 2.71094 13.0859 3.08594L21.4395 11.4395C22.0251 12.0252 22.0251 12.9748 21.4395 13.5605L13.5605 21.4395C12.9748 22.0251 12.0252 22.0251 11.4395 21.4395L3.08594 13.0859C2.71094 12.7109 2.50008 12.2022 2.5 11.6719V4C2.5 3.17157 3.17157 2.5 4 2.5H11.6719ZM8.25 6C7.00736 6 6 7.00736 6 8.25C6 9.49264 7.00736 10.5 8.25 10.5C9.49264 10.5 10.5 9.49264 10.5 8.25C10.5 7.00736 9.49264 6 8.25 6Z" fill="#030712"/>
</svg>
