<svg width="24" height="24" viewBox="0 0 24 24" fill="none" xmlns="http://www.w3.org/2000/svg">
<circle cx="12" cy="12" r="10" fill="white"/>
<path d="M12 2C17.5228 2 22 6.47715 22 12C22 17.5228 17.5228 22 12 22C6.47715 22 2 17.5228 2 12C2 6.47715 6.47715 2 12 2ZM12 5.91699C10.4311 5.91699 9.16723 7.25768 9.16699 8.90234V9.66699H9C7.82149 9.66699 7.23233 9.66709 6.86621 10.0332C6.50026 10.3993 6.5 10.9887 6.5 12.167V12.833C6.5 14.7972 6.50016 15.7795 7.11035 16.3896C7.72055 16.9998 8.70281 17 10.667 17H13.333C15.2972 17 16.2795 16.9998 16.8896 16.3896C17.4998 15.7795 17.5 14.7972 17.5 12.833V12.167C17.5 10.9887 17.4997 10.3993 17.1338 10.0332C16.7677 9.66709 16.1785 9.66699 15 9.66699H14.833V8.90234C14.8328 7.25766 13.5689 5.91699 12 5.91699ZM12 11.7754C12.7594 11.7754 13.375 12.391 13.375 13.1504C13.3748 13.9096 12.7593 14.5254 12 14.5254C11.2407 14.5254 10.6252 13.9096 10.625 13.1504C10.625 12.391 11.2406 11.7754 12 11.7754ZM12 7C12.9888 7 13.7976 7.84737 13.7979 8.90234V9.66699H10.2021V8.90234C10.2024 7.84737 11.0112 7 12 7Z" fill="black"/>
</svg>
