<svg width="24" height="24" viewBox="0 0 24 24" fill="none" xmlns="http://www.w3.org/2000/svg">
<path fill-rule="evenodd" clip-rule="evenodd" d="M6.5 2.5C5.11929 2.5 4 3.46666 4 4.65909V19.3409C4 20.5333 5.11929 21.5 6.5 21.5H17.5C18.8807 21.5 20 20.5333 20 19.3409V4.65909C20 3.46666 18.8807 2.5 17.5 2.5H6.5ZM7 15.25C7 14.8358 7.33579 14.5 7.75 14.5H12.25C12.6642 14.5 13 14.8358 13 15.25C13 15.6642 12.6642 16 12.25 16H7.75C7.33579 16 7 15.6642 7 15.25ZM7 11.25C7 10.8358 7.33579 10.5 7.75 10.5H16.25C16.6642 10.5 17 10.8358 17 11.25C17 11.6642 16.6642 12 16.25 12H7.75C7.33579 12 7 11.6642 7 11.25ZM7 7.25C7 6.83579 7.33579 6.5 7.75 6.5H16.25C16.6642 6.5 17 6.83579 17 7.25C17 7.66421 16.6642 8 16.25 8H7.75C7.33579 8 7 7.66421 7 7.25Z" fill="black"/>
</svg>
