<svg width="24" height="24" viewBox="0 0 24 24" fill="none" xmlns="http://www.w3.org/2000/svg">
<path d="M9 5C9 3.34315 10.3431 2 12 2C13.6569 2 15 3.34315 15 5V12C15 13.6569 13.6569 15 12 15C10.3431 15 9 13.6569 9 12V5Z" fill="black"/>
<path d="M6 11.25C6.55228 11.25 7 11.6977 7 12.25C7 14.2557 8.60853 16.75 12 16.75C15.3915 16.75 17 14.2557 17 12.25C17 11.6977 17.4477 11.25 18 11.25C18.5523 11.25 19 11.6977 19 12.25C19 15.0196 16.954 18.2267 13 18.6925V21C13 21.5523 12.5523 22 12 22C11.4477 22 11 21.5523 11 21V18.6925C7.046 18.2267 5 15.0196 5 12.25C5 11.6977 5.44772 11.25 6 11.25Z" fill="black"/>
</svg>
