<svg width="24" height="24" viewBox="0 0 24 24" fill="none" xmlns="http://www.w3.org/2000/svg">
<g clip-path="url(#clip0_5601_2106)">
<path fill-rule="evenodd" clip-rule="evenodd" d="M0.686294 13.4142C0.29577 13.8047 0.29577 14.4379 0.686294 14.8284L3.51472 17.6568C4.29577 16.8758 5.5621 16.8758 6.34315 17.6568C7.1242 18.4379 7.1242 19.7042 6.34315 20.4853L9.17158 23.3137C9.5621 23.7042 10.1953 23.7042 10.5858 23.3137L23.3137 10.5858C23.7042 10.1952 23.7042 9.56208 23.3137 9.17156L20.4853 6.34313C19.7042 7.12418 18.4379 7.12418 17.6569 6.34313C16.8758 5.56208 16.8758 4.29576 17.6569 3.51471L14.8284 0.686279C14.4379 0.295755 13.8047 0.295755 13.4142 0.686279L0.686294 13.4142ZM9.41987 9.12709C9.2337 9.04149 9.04151 9.23369 9.12711 9.41986L10.2711 11.9078C10.298 11.9663 10.298 12.0337 10.2711 12.0922L9.12711 14.5801C9.04151 14.7663 9.2337 14.9585 9.41987 14.8729L11.9078 13.7289C11.9663 13.702 12.0337 13.702 12.0922 13.7289L14.5801 14.8729C14.7663 14.9585 14.9585 14.7663 14.8729 14.5801L13.7289 12.0922C13.702 12.0337 13.702 11.9663 13.7289 11.9078L14.8729 9.41986C14.9585 9.23369 14.7663 9.04149 14.5801 9.12709L12.0922 10.2711C12.0337 10.298 11.9663 10.298 11.9078 10.2711L9.41987 9.12709Z" fill="black"/>
</g>
<defs>
<clipPath id="clip0_5601_2106">
<rect width="24" height="24" fill="white"/>
</clipPath>
</defs>
</svg>
