<svg width="24" height="24" viewBox="0 0 24 24" fill="none" xmlns="http://www.w3.org/2000/svg">
<path d="M7.75 17.5C8.72933 17.5 9.56001 18.1266 9.86914 19H20.5V20.5H9.86914C9.56001 21.3734 8.72933 22 7.75 22C6.77067 22 5.93999 21.3734 5.63086 20.5H3.5V19H5.63086C5.93999 18.1266 6.77067 17.5 7.75 17.5ZM7.75 19C7.33579 19 7 19.3358 7 19.75C7 20.1642 7.33579 20.5 7.75 20.5C8.16421 20.5 8.5 20.1642 8.5 19.75C8.5 19.3358 8.16421 19 7.75 19ZM18 2C19.5188 2 20.75 3.23122 20.75 4.75V13.5C20.75 15.0188 19.5188 16.25 18 16.25H6C4.48122 16.25 3.25 15.0188 3.25 13.5V4.75C3.25 3.23122 4.48122 2 6 2H18ZM10.7559 6.4502C10.4226 6.25181 10 6.49202 10 6.87988V11.3701C10 11.758 10.4226 11.9982 10.7559 11.7998L14.5283 9.55469C14.8539 9.36082 14.8539 8.88918 14.5283 8.69531L10.7559 6.4502Z" fill="black"/>
</svg>
