<svg width="24" height="24" viewBox="0 0 24 24" fill="none" xmlns="http://www.w3.org/2000/svg">
<path d="M21.6067 9.46465C21.9973 9.85528 21.9972 10.4886 21.6064 10.8791L20.899 11.586L20.192 10.879L15.95 15.121L15.243 18.657L14.5352 19.3643C14.1446 19.7546 13.5116 19.7545 13.1211 19.364L9.586 15.828L5.343 20.071C4.95254 20.4615 4.31947 20.4615 3.929 20.071C3.53853 19.6805 3.53853 19.0475 3.929 18.657L8.172 14.414L4.63602 10.8789C4.24552 10.4884 4.24537 9.85541 4.63569 9.46481L5.343 8.757L8.88 8.05L13.122 3.808L12.415 3.101L13.1219 2.39365C13.5124 2.00288 14.1457 2.00278 14.5364 2.39344L21.6067 9.46465Z" fill="black"/>
</svg>
