<svg width="24" height="24" viewBox="0 0 24 24" fill="none" xmlns="http://www.w3.org/2000/svg">
<path d="M18.3789 3.49988C19.136 3.50006 19.7498 4.11388 19.75 4.87097V19.1288C19.7499 19.886 19.1361 20.4997 18.3789 20.4999H18.1211C17.3639 20.4997 16.7501 19.886 16.75 19.1288V13.5487L6.83691 20.2635C6.57908 20.4171 6.2837 20.4987 5.98242 20.4999C5.69465 20.4993 5.41189 20.4249 5.16211 20.2841C4.5997 19.9699 4.25 19.36 4.25 18.6981V5.30164C4.25003 4.63784 4.59963 4.02982 5.16211 3.7157C5.41786 3.57085 5.70895 3.49622 6.00391 3.49988C6.29862 3.50361 6.58708 3.58522 6.83887 3.73621L16.75 10.4481V4.87097C16.7502 4.11388 17.364 3.50006 18.1211 3.49988H18.3789Z" fill="black"/>
</svg>
