<svg width="24" height="24" viewBox="0 0 24 24" fill="none" xmlns="http://www.w3.org/2000/svg">
<path d="M12.0004 2.00039C17.5231 2.00056 22.0004 6.47765 22.0004 12.0004C22.0002 17.523 17.523 22.0002 12.0004 22.0004C6.47766 22.0004 2.00057 17.5231 2.0004 12.0004C2.0004 6.47754 6.47755 2.00039 12.0004 2.00039ZM8.31192 15.8539C7.87216 15.8539 7.51212 16.1977 7.51212 16.6186C7.51246 17.0391 7.87237 17.3832 8.31192 17.3832H15.8891C16.3284 17.383 16.6885 17.039 16.6889 16.6186C16.6889 16.1978 16.3286 15.8541 15.8891 15.8539H8.31192ZM12.101 6.40078C11.6084 6.40078 11.2085 6.79973 11.2084 7.29238C11.2085 7.5967 11.3615 7.86583 11.5941 8.02676L10.2895 9.84219C10.1469 10.0808 9.84029 10.1643 9.60098 10.0297L7.36758 9.11855C7.37816 9.06369 7.38416 9.00658 7.38419 8.94863C7.38407 8.45615 6.98498 8.0573 6.49258 8.05703C5.99996 8.05703 5.60012 8.45599 5.60001 8.94863C5.60022 9.42283 5.97079 9.81004 6.4379 9.83828L7.5795 14.6791C7.63061 14.9177 7.83926 15.0893 8.07852 15.0893H16.1215C16.3606 15.0891 16.5695 14.9177 16.6205 14.6791L17.7709 9.8373C18.2344 9.80537 18.6008 9.42027 18.601 8.94863C18.6009 8.45619 18.2017 8.05736 17.7094 8.05703C17.2168 8.05703 16.8169 8.45599 16.8168 8.94863C16.8168 9.01836 16.8261 9.08663 16.8412 9.15176L14.6088 10.0502C14.3696 10.1851 14.0641 10.1071 13.9213 9.86367L12.6059 8.02773C12.8394 7.86693 12.9924 7.59735 12.9926 7.29238C12.9925 6.79992 12.5934 6.40108 12.101 6.40078Z" fill="black"/>
</svg>
