<svg width="24" height="24" viewBox="0 0 24 24" fill="none" xmlns="http://www.w3.org/2000/svg">
<path d="M18 3C19.6569 3 21 4.34315 21 6V18C21 19.6569 19.6569 21 18 21H6C4.34315 21 3 19.6569 3 18V6C3 4.34315 4.34315 3 6 3H18ZM12 7.5C11.7985 7.5 11.6291 7.56784 11.4932 7.7041C11.3571 7.84019 11.2891 8.00966 11.2891 8.21094V11.2891H8.21094C8.00962 11.2891 7.84021 11.3579 7.7041 11.4941C7.56808 11.6303 7.50005 11.7989 7.5 12C7.5 12.2015 7.56784 12.3709 7.7041 12.5068C7.84019 12.6429 8.00966 12.7109 8.21094 12.7109H11.2891V15.7891C11.2891 15.9904 11.3579 16.1598 11.4941 16.2959C11.6303 16.4319 11.7989 16.4999 12 16.5C12.2015 16.5 12.3709 16.4322 12.5068 16.2959C12.6429 16.1598 12.7109 15.9903 12.7109 15.7891V12.7109H15.7891C15.9904 12.7109 16.1598 12.6421 16.2959 12.5059C16.4319 12.3697 16.4999 12.2011 16.5 12C16.5 11.7985 16.4322 11.6291 16.2959 11.4932C16.1598 11.3571 15.9903 11.2891 15.7891 11.2891H12.7109V8.21094C12.7109 8.00962 12.6421 7.84021 12.5059 7.7041C12.3697 7.56808 12.2011 7.50005 12 7.5Z" fill="black"/>
</svg>
