<svg width="24" height="24" viewBox="0 0 24 24" fill="none" xmlns="http://www.w3.org/2000/svg">
<path d="M19 4.5H17.5V4C17.5 3.17 16.83 2.5 16 2.5H8C7.17 2.5 6.5 3.17 6.5 4V4.5H5C3.62 4.5 2.5 5.56 2.5 6.86V7.8C2.5 8.93 2.89 10.22 3.78 11.24C4.5 12.06 5.52 12.67 6.84 12.9C7.5 14.7 9.08 16.05 11 16.41V19.5H8C7.45 19.5 7 19.95 7 20.5C7 21.05 7.45 21.5 8 21.5H16C16.55 21.5 17 21.05 17 20.5C17 19.95 16.55 19.5 16 19.5H13V16.41C14.92 16.06 16.5 14.7 17.16 12.9C18.48 12.67 19.5 12.06 20.22 11.24C21.11 10.22 21.5 8.94 21.5 7.8V6.86C21.5 5.56 20.38 4.5 19 4.5ZM6.5 10.85C6 10.65 5.61 10.36 5.32 10.03C4.76 9.4 4.5 8.56 4.5 7.8V6.86C4.5 6.6 4.72 6.39 5 6.39H6.5V10.86V10.85ZM19.5 7.8C19.5 8.56 19.24 9.4 18.68 10.03C18.39 10.36 18 10.65 17.5 10.85V6.39H19C19.28 6.39 19.5 6.6 19.5 6.86V7.8Z" fill="black"/>
</svg>
