<svg width="24" height="24" viewBox="0 0 24 24" fill="none" xmlns="http://www.w3.org/2000/svg">
<path d="M19.99 3.5H3.99C2.89 3.5 2 4.38869 2 5.47486L2 19.4398C2 20.2747 2.96269 20.742 3.61865 20.2254L7 17.5629H20C21.1 17.5629 22 16.6742 22 15.588L21.99 5.47486C21.99 4.38869 21.09 3.5 19.99 3.5ZM9 10.6509C9 11.1962 8.55791 11.6383 8.01257 11.6383H7.98743C7.44209 11.6383 7 11.1962 7 10.6509C7 10.1055 7.44209 9.66343 7.98743 9.66343H8.01257C8.55791 9.66343 9 10.1055 9 10.6509ZM13 10.6509C13 11.1962 12.5579 11.6383 12.0126 11.6383H11.9874C11.4421 11.6383 11 11.1962 11 10.6509C11 10.1055 11.4421 9.66343 11.9874 9.66343H12.0126C12.5579 9.66343 13 10.1055 13 10.6509ZM17 10.6509C17 11.1962 16.5579 11.6383 16.0126 11.6383H15.9874C15.4421 11.6383 15 11.1962 15 10.6509C15 10.1055 15.4421 9.66343 15.9874 9.66343H16.0126C16.5579 9.66343 17 10.1055 17 10.6509Z" fill="black"/>
</svg>
