<svg width="24" height="24" viewBox="0 0 24 24" fill="none" xmlns="http://www.w3.org/2000/svg">
<path fill-rule="evenodd" clip-rule="evenodd" d="M3.5 5C3.5 4.17157 4.17157 3.5 5 3.5H8.3V8.3H3.5V5ZM3.5 15.7V19C3.5 19.8284 4.17157 20.5 5 20.5H8.3V15.7H3.5ZM3.5 14.3H8.3V9.7H3.5V14.3ZM9.7 15.7V20.5H14.3V15.7H9.7ZM14.3 14.3L9.7 14.3V9.7H14.3V14.3ZM15.7 15.7V20.5H19C19.8284 20.5 20.5 19.8284 20.5 19V15.7H15.7ZM20.5 14.3V9.7H15.7V14.3H20.5ZM20.5 8.3H15.7V3.5H19C19.8284 3.5 20.5 4.17157 20.5 5V8.3ZM9.7 3.5H14.3V8.3H9.7V3.5Z" fill="black"/>
</svg>
