<svg width="24" height="24" viewBox="0 0 24 24" fill="none" xmlns="http://www.w3.org/2000/svg">
<path fill-rule="evenodd" clip-rule="evenodd" d="M7.58334 4.66668V5.75001H3.75C3.33579 5.75001 3 6.08579 3 6.50001C3 6.91422 3.33579 7.25001 3.75 7.25001H4.83334V19.3333C4.83334 20.0185 5.10551 20.6756 5.58998 21.16C6.07444 21.6445 6.73153 21.9167 7.41667 21.9167H16.5833C17.2685 21.9167 17.9256 21.6445 18.41 21.16C18.8945 20.6756 19.1667 20.0185 19.1667 19.3333V7.25001H20.25C20.6642 7.25001 21 6.91422 21 6.50001C21 6.08579 20.6642 5.75001 20.25 5.75001H16.4167V4.66668C16.4167 3.98153 16.1445 3.32445 15.66 2.83998C15.1756 2.35552 14.5185 2.08334 13.8333 2.08334H10.1667C9.48153 2.08334 8.82445 2.35552 8.33998 2.83998C7.85551 3.32445 7.58334 3.98153 7.58334 4.66668ZM10.9167 11.0833C10.9167 10.6691 10.5809 10.3333 10.1667 10.3333C9.75245 10.3333 9.41666 10.6691 9.41666 11.0833V16.5833C9.41666 16.9976 9.75245 17.3333 10.1667 17.3333C10.5809 17.3333 10.9167 16.9976 10.9167 16.5833V11.0833ZM13.8333 10.3333C14.2475 10.3333 14.5833 10.6691 14.5833 11.0833V16.5833C14.5833 16.9976 14.2475 17.3333 13.8333 17.3333C13.4191 17.3333 13.0833 16.9976 13.0833 16.5833V11.0833C13.0833 10.6691 13.4191 10.3333 13.8333 10.3333Z" fill="black"/>
</svg>
