<svg width="24" height="24" viewBox="0 0 24 24" fill="none" xmlns="http://www.w3.org/2000/svg">
<path d="M15.4396 19.2903C14.9109 20.5838 13.6457 21.5002 12.1632 21.5002H12.1535C10.6711 21.5001 9.39642 20.5838 8.87712 19.2903H15.4396Z" fill="#030712"/>
<path d="M18.3947 3.27659C18.7629 2.90833 19.3585 2.90833 19.7267 3.27659C20.0947 3.64484 20.0948 4.23948 19.7267 4.60764L17.4035 6.72288L4.81657 19.3098C4.62781 19.4889 4.39194 19.5832 4.14665 19.5832C3.90115 19.5832 3.6646 19.4986 3.47575 19.3098C3.10754 18.9416 3.1076 18.346 3.47575 17.9778L5.25114 16.2024L5.96891 15.0129V9.99924C5.96891 6.5811 8.73566 3.81435 12.1632 3.80491C13.7023 3.80492 15.0907 4.37175 16.1672 5.29709L18.3947 3.27659Z" fill="#030712"/>
<path d="M18.1877 8.61155C18.2915 9.05521 18.3478 9.51784 18.3478 9.99924V15.0129L19.632 17.1565C19.8492 17.5058 19.5943 17.9592 19.1789 17.9592H8.83903L18.1877 8.61155Z" fill="#030712"/>
</svg>
