<svg width="24" height="24" viewBox="0 0 24 24" fill="none" xmlns="http://www.w3.org/2000/svg">
<path d="M12 2.5C17.2467 2.5 21.5 6.75329 21.5 12C21.5 17.2467 17.2467 21.5 12 21.5C6.75329 21.5 2.5 17.2467 2.5 12C2.5 6.75329 6.75329 2.5 12 2.5ZM15.5996 7.65527C15.3935 7.65536 15.2181 7.72837 15.0732 7.87305L12 10.9463L8.92676 7.87305C8.78827 7.73478 8.61392 7.66349 8.4043 7.66016C8.195 7.6571 8.01794 7.72832 7.87305 7.87305C7.72822 8.01805 7.65527 8.19406 7.65527 8.40039C7.65537 8.60651 7.72837 8.78187 7.87305 8.92676L10.9463 12L7.87305 15.0732C7.73478 15.2117 7.66349 15.3861 7.66016 15.5957C7.6571 15.805 7.72832 15.9821 7.87305 16.127C8.01805 16.2718 8.19406 16.3447 8.40039 16.3447C8.60651 16.3446 8.78187 16.2716 8.92676 16.127L12 13.0537L15.0732 16.127C15.2117 16.2652 15.3861 16.3365 15.5957 16.3398C15.805 16.3429 15.9821 16.2717 16.127 16.127C16.2718 15.982 16.3447 15.8059 16.3447 15.5996C16.3446 15.3935 16.2716 15.2181 16.127 15.0732L13.0537 12L16.127 8.92676C16.2652 8.78827 16.3365 8.61391 16.3398 8.4043C16.3429 8.195 16.2717 8.01794 16.127 7.87305C15.982 7.72821 15.8059 7.65527 15.5996 7.65527Z" fill="black"/>
</svg>
