<svg width="24" height="24" viewBox="0 0 24 24" fill="none" xmlns="http://www.w3.org/2000/svg">
<path d="M4.28571 4.8C4.28571 4.04258 4.89972 3.42857 5.65713 3.42857H8.05713C8.81455 3.42857 9.42856 4.04258 9.42856 4.8V19.2C9.42856 19.9574 8.81455 20.5714 8.05713 20.5714H5.65714C4.89972 20.5714 4.28571 19.9574 4.28571 19.2V4.8Z" fill="black"/>
<path d="M14.5714 4.8C14.5714 4.04258 15.1854 3.42857 15.9428 3.42857H18.3428C19.1003 3.42857 19.7143 4.04258 19.7143 4.8V19.2C19.7143 19.9574 19.1003 20.5714 18.3428 20.5714H15.9428C15.1854 20.5714 14.5714 19.9574 14.5714 19.2V4.8Z" fill="black"/>
</svg>
