<svg width="24" height="24" viewBox="0 0 24 24" fill="none" xmlns="http://www.w3.org/2000/svg">
<path d="M10.95 13.0655L9.327 11.4577C9.1885 11.3192 9.017 11.2484 8.8125 11.2452C8.608 11.2421 8.42816 11.318 8.273 11.473C8.12816 11.618 8.05575 11.7937 8.05575 12C8.05575 12.2063 8.12816 12.382 8.273 12.527L10.3172 14.5712C10.4981 14.7519 10.709 14.8422 10.95 14.8422C11.191 14.8422 11.4019 14.7519 11.5827 14.5712L15.727 10.427C15.8757 10.2782 15.949 10.1041 15.947 9.90475C15.9452 9.70541 15.8718 9.52816 15.727 9.373C15.5718 9.218 15.3936 9.13791 15.1922 9.13275C14.9911 9.12758 14.8129 9.20258 14.6577 9.35775L10.95 13.0655ZM8.40975 21.1827L7.027 18.8577L4.4115 18.296C4.18716 18.2525 4.008 18.1346 3.874 17.9422C3.74 17.7499 3.6865 17.5416 3.7135 17.3172L3.96925 14.627L2.1905 12.5922C2.03666 12.4282 1.95975 12.2308 1.95975 12C1.95975 11.7692 2.03666 11.5717 2.1905 11.4077L3.96925 9.373L3.7135 6.68275C3.6865 6.45842 3.74 6.25008 3.874 6.05775C4.008 5.86541 4.18716 5.7475 4.4115 5.704L7.027 5.14225L8.40975 2.81725C8.53025 2.61991 8.69433 2.48533 8.902 2.4135C9.10966 2.34166 9.32058 2.35258 9.53475 2.44625L12 3.4885L14.4652 2.44625C14.6794 2.35258 14.8903 2.34166 15.098 2.4135C15.3057 2.48533 15.4697 2.61991 15.5902 2.81725L16.973 5.14225L19.5885 5.704C19.8128 5.7475 19.992 5.86541 20.126 6.05775C20.26 6.25008 20.3135 6.45842 20.2865 6.68275L20.0307 9.373L21.8095 11.4077C21.9633 11.5717 22.0402 11.7692 22.0402 12C22.0402 12.2308 21.9633 12.4282 21.8095 12.5922L20.0307 14.627L20.2865 17.3172C20.3135 17.5416 20.26 17.7499 20.126 17.9422C19.992 18.1346 19.8128 18.2525 19.5885 18.296L16.973 18.8577L15.5902 21.1827C15.4697 21.3801 15.3057 21.5147 15.098 21.5865C14.8903 21.6583 14.6794 21.6474 14.4652 21.5537L12 20.5115L9.53475 21.5537C9.32058 21.6474 9.10966 21.6583 8.902 21.5865C8.69433 21.5147 8.53025 21.3801 8.40975 21.1827Z" fill="black"/>
</svg>
