<svg width="24" height="24" viewBox="0 0 24 24" fill="none" xmlns="http://www.w3.org/2000/svg">
<path d="M5.9 3.5C4.57452 3.5 3.5 4.57452 3.5 5.9V18.1C3.5 19.4255 4.57452 20.5 5.9 20.5H18.1C19.4255 20.5 20.5 19.4255 20.5 18.1V5.9C20.5 4.57452 19.4255 3.5 18.1 3.5H16.25V12.983C16.25 13.7893 15.379 14.2947 14.6791 13.8947L12 12.3638L9.32095 13.8947C8.62095 14.2947 7.75 13.7893 7.75 12.983V3.5H5.9Z" fill="black"/>
<path d="M9.25 3.5V12.2076L11.4791 10.9339C11.8019 10.7494 12.1981 10.7494 12.5209 10.9339L14.75 12.2076V3.5H9.25Z" fill="black"/>
</svg>
