<svg width="24" height="24" viewBox="0 0 24 24" fill="none" xmlns="http://www.w3.org/2000/svg">
<path d="M11.9957 6.99573H7.49571C6.83267 6.99573 6.19679 6.73234 5.72795 6.26349C5.2591 5.79465 4.99571 5.15877 4.99571 4.49573C4.99571 3.83269 5.2591 3.1968 5.72795 2.72796C6.19679 2.25912 6.83267 1.99573 7.49571 1.99573C10.9957 1.99573 11.9957 6.99573 11.9957 6.99573Z" fill="black"/>
<path d="M21.2516 6.9967C21.6658 6.9967 22.0016 7.33249 22.0016 7.7467V11.2467C22.0016 11.6609 21.6658 11.9967 21.2516 11.9967H19.9996V12L12.75 12V7.00002H11.25V12H3.99962V11.9967H2.75157C2.33736 11.9967 2.00157 11.6609 2.00157 11.2467V7.7467C2.00157 7.33249 2.33736 6.9967 2.75157 6.9967H21.2516Z" fill="black"/>
<path d="M3.99962 13.5V21.2448C3.99962 21.659 4.3354 21.9948 4.74962 21.9948H11.25V13.5H3.99962Z" fill="black"/>
<path d="M12.75 21.9948H19.2496C19.6638 21.9948 19.9996 21.659 19.9996 21.2448V13.5L12.75 13.5V21.9948Z" fill="black"/>
<path d="M16.4977 6.99573H11.9977C11.9977 6.99573 12.9977 1.99573 16.4977 1.99573C17.1607 1.99573 17.7966 2.25912 18.2654 2.72796C18.7343 3.1968 18.9977 3.83269 18.9977 4.49573C18.9977 5.15877 18.7343 5.79465 18.2654 6.26349C17.7966 6.73234 17.1607 6.99573 16.4977 6.99573Z" fill="black"/>
</svg>
