<svg width="24" height="24" viewBox="0 0 24 24" fill="none" xmlns="http://www.w3.org/2000/svg">
<path d="M19.8018 6.5C20.7545 6.58955 21.4999 7.39106 21.5 8.36719V18.6855C21.5 20.2398 20.2398 21.5 18.6855 21.5H8.36719C7.39106 21.4999 6.58955 20.7545 6.5 19.8018C6.55884 19.8073 6.61841 19.8115 6.67871 19.8115H17.9355C18.9717 19.8115 19.8115 18.9717 19.8115 17.9355V6.67871C19.8115 6.61841 19.8073 6.55884 19.8018 6.5ZM16.7988 2.5C17.2742 2.50006 17.6765 2.66478 18.0059 2.99414C18.3352 3.3235 18.4999 3.72583 18.5 4.20117V16.7988C18.4999 17.2742 18.3352 17.6765 18.0059 18.0059C17.6765 18.3352 17.2742 18.4999 16.7988 18.5H4.20117C3.72583 18.4999 3.3235 18.3352 2.99414 18.0059C2.66478 17.6765 2.50006 17.2742 2.5 16.7988V4.20117C2.50006 3.72583 2.66478 3.3235 2.99414 2.99414C3.3235 2.66478 3.72583 2.50006 4.20117 2.5H16.7988ZM12.4189 11.1133C12.2801 11.1133 12.1661 11.1708 12.0781 11.2842L9.77637 14.2832L8.2334 12.3066C8.14548 12.1993 8.03411 12.1456 7.89844 12.1455C7.7628 12.1455 7.65064 12.202 7.5625 12.3154L6.07812 14.29C5.96476 14.4348 5.94922 14.5849 6.03125 14.7393C6.11322 14.8934 6.23934 14.9706 6.40918 14.9707H14.6631C14.833 14.9706 14.959 14.8934 15.041 14.7393C15.1231 14.5849 15.1104 14.4348 15.0029 14.29L12.7588 11.2842C12.6707 11.1709 12.5574 11.1134 12.4189 11.1133ZM7.20605 6.0293C6.88025 6.0293 6.60222 6.14371 6.37305 6.37305C6.14371 6.60222 6.0293 6.88025 6.0293 7.20605C6.02934 7.53163 6.14396 7.80901 6.37305 8.03809C6.60222 8.26742 6.88025 8.38281 7.20605 8.38281C7.53178 8.38277 7.80895 8.26738 8.03809 8.03809C8.26738 7.80895 8.38277 7.53178 8.38281 7.20605C8.38281 6.88025 8.26742 6.60222 8.03809 6.37305C7.80901 6.14396 7.53163 6.02934 7.20605 6.0293Z" fill="black"/>
</svg>
