<svg width="24" height="24" viewBox="0 0 24 24" fill="none" xmlns="http://www.w3.org/2000/svg">
<path d="M6.37601 12.7456L12.5453 18.9148C12.6939 19.0635 12.7673 19.2375 12.7655 19.4368C12.7635 19.6362 12.685 19.8134 12.53 19.9686C12.3748 20.1134 12.1992 20.1884 12.003 20.1936C11.8068 20.1988 11.6312 20.1238 11.476 19.9686L4.13575 12.6283C4.04209 12.5347 3.97609 12.4359 3.93775 12.3321C3.89925 12.2283 3.88 12.1161 3.88 11.9956C3.88 11.8751 3.89925 11.7629 3.93775 11.6591C3.97609 11.5553 4.04209 11.4565 4.13575 11.3628L11.476 4.0226C11.6145 3.8841 11.786 3.81327 11.9905 3.8101C12.195 3.80693 12.3748 3.87777 12.53 4.0226C12.685 4.17777 12.7625 4.35593 12.7625 4.5571C12.7625 4.75843 12.685 4.93668 12.53 5.09185L6.37601 11.2456H19.753C19.9658 11.2456 20.144 11.3174 20.2875 11.4611C20.4312 11.6046 20.503 11.7828 20.503 11.9956C20.503 12.2084 20.4312 12.3866 20.2875 12.5301C20.144 12.6738 19.9658 12.7456 19.753 12.7456H6.37601Z" fill="black"/>
</svg>
