<svg width="24" height="24" viewBox="0 0 24 24" fill="none" xmlns="http://www.w3.org/2000/svg">
<path fill-rule="evenodd" clip-rule="evenodd" d="M20.5 5C20.5 4.17157 19.8284 3.5 19 3.5H5C4.17157 3.5 3.5 4.17157 3.5 5V19C3.5 19.8284 4.17157 20.5 5 20.5H19C19.8284 20.5 20.5 19.8284 20.5 19V5ZM8.69444 4.91667H5.41667C5.14052 4.91667 4.91667 5.14052 4.91667 5.41667V8.69444H8.69444V4.91667ZM10.1111 8.69444H13.8889V4.91667H10.1111V8.69444ZM19.0833 8.69444H15.3056V4.91667H18.5833C18.8595 4.91667 19.0833 5.14052 19.0833 5.41667V8.69444ZM10.1111 10.1111H13.8889V13.8889H10.1111V10.1111ZM15.3056 13.8889H19.0833V10.1111H15.3056V13.8889ZM15.3056 19.0833H18.5833C18.8595 19.0833 19.0833 18.8595 19.0833 18.5833V15.3056H15.3056V19.0833ZM13.8889 19.0833V15.3056H10.1111V19.0833H13.8889ZM8.69444 15.3056V19.0833H5.41667C5.14052 19.0833 4.91667 18.8595 4.91667 18.5833V15.3056H8.69444ZM8.69444 10.1111V13.8889H4.91667V10.1111H8.69444Z" fill="black"/>
</svg>
