<svg width="24" height="24" viewBox="0 0 24 24" fill="none" xmlns="http://www.w3.org/2000/svg">
<path fill-rule="evenodd" clip-rule="evenodd" d="M12.6172 1.50004C15.192 1.64208 17.6239 2.72937 19.4473 4.55277C21.2707 6.37617 22.358 8.80808 22.5 11.3828V12C22.5043 13.6304 22.1238 15.2391 21.3887 16.6944C20.5171 18.4383 19.1767 19.9053 17.5186 20.9307L17.2051 21.1172C15.6218 22.0219 13.8278 22.4993 12 22.5C10.3696 22.5043 8.76101 22.1238 7.3057 21.3887L3.67093 22.084C2.69518 22.2707 1.83169 21.4797 1.89164 20.5225L1.91605 20.3291L2.61136 16.6944C1.87628 15.2391 1.49578 13.6304 1.50004 12C1.50074 10.1723 1.97818 8.3783 2.88285 6.79496L3.06937 6.48148C4.09479 4.82336 5.56179 3.48294 7.3057 2.61136C8.76101 1.87628 10.3696 1.49578 12 1.50004H12.6172ZM11.9961 3.00004C10.602 2.9964 9.22689 3.32264 7.98246 3.95121L7.9766 3.95316C6.48182 4.70023 5.22467 5.84929 4.34574 7.27054C3.46681 8.69179 3.00068 10.33 3.00004 12.001V12.0039C2.9964 13.3981 3.32264 14.7732 3.95121 16.0176C4.10064 16.3135 4.14733 16.6511 4.085 16.9766L3.38871 20.6114L7.02347 19.9151L7.14652 19.8965C7.43308 19.8659 7.72365 19.9181 7.98246 20.0489C9.22689 20.6774 10.602 21.0037 11.9961 21H11.9991C13.6701 20.9994 15.3083 20.5333 16.7295 19.6543C18.1508 18.7754 19.2998 17.5182 20.0469 16.0235L20.0489 16.0176C20.6774 14.7732 21.0037 13.3981 21 12.0039V11.4395C20.8726 9.24289 19.943 7.16958 18.3868 5.61332C16.8305 4.05705 14.7572 3.1275 12.5606 3.00004H11.9961ZM17.1905 12.2002C18.1879 12.2003 18.7998 12.9953 18.7998 13.6475C18.7998 15.0577 17.0412 16.3669 15.7998 17.2002C14.5585 16.3669 12.7999 15.0577 12.7998 13.6475C12.7998 12.9953 13.4126 12.2002 14.4102 12.2002C14.967 12.2004 15.4428 12.6048 15.7998 12.9893C16.157 12.6047 16.6333 12.2002 17.1905 12.2002ZM10.5 12.5C10.9418 12.5 11.2997 12.8581 11.2998 13.2998C11.2998 13.7417 10.9419 14.0996 10.5 14.0996H6.59964C6.158 14.0994 5.79984 13.7415 5.79984 13.2998C5.79995 12.8582 6.15806 12.5002 6.59964 12.5H10.5ZM16.5 8.59964C16.9419 8.59964 17.2998 8.9586 17.2998 9.40043C17.2996 9.84207 16.9417 10.2002 16.5 10.2002H6.59964C6.15813 10.2 5.80005 9.84194 5.79984 9.40043C5.79984 8.95873 6.158 8.59986 6.59964 8.59964H16.5Z" fill="black"/>
</svg>
