<svg width="24" height="24" viewBox="0 0 24 24" fill="none" xmlns="http://www.w3.org/2000/svg">
<path d="M15.25 15.75C15.6642 15.75 16 16.0858 16 16.5C16 16.9142 15.6642 17.25 15.25 17.25H8.75C8.33579 17.25 8 16.9142 8 16.5C8 16.0858 8.33579 15.75 8.75 15.75H15.25Z" fill="#030712"/>
<path d="M15.25 11.75C15.6642 11.75 16 12.0858 16 12.5C16 12.9142 15.6642 13.25 15.25 13.25H8.75C8.33579 13.25 8 12.9142 8 12.5C8 12.0858 8.33579 11.75 8.75 11.75H15.25Z" fill="#030712"/>
<path fill-rule="evenodd" clip-rule="evenodd" d="M20 8.5V19.5C20 20.6046 19.1046 21.5 18 21.5H6C4.89543 21.5 4 20.6046 4 19.5V4.5C4 3.39543 4.89543 2.5 6 2.5H14L20 8.5ZM6 4C5.75829 4 5.55629 4.17145 5.50977 4.39941L5.5 4.5V19.5C5.5 19.7761 5.72386 20 6 20H18C18.2417 20 18.4437 19.8286 18.4902 19.6006L18.5 19.5V9.5H14L13.8975 9.49512C13.4271 9.44722 13.0528 9.07292 13.0049 8.60254L13 8.5V4H6ZM14.5 8H17.3789L14.5 5.12109V8Z" fill="#030712"/>
</svg>
