<svg width="24" height="24" viewBox="0 0 24 24" fill="none" xmlns="http://www.w3.org/2000/svg">
<path d="M18.7464 4.25072C19.0814 3.91576 19.6301 3.91577 19.9651 4.25072C20.3001 4.58573 20.3001 5.13444 19.9651 5.46947L5.24442 20.1804C5.08201 20.353 4.85834 20.4343 4.63504 20.4343C4.41174 20.4343 4.19823 20.3529 4.02567 20.1804C3.69064 19.8454 3.69064 19.2967 4.02567 18.9617L6.02567 16.9617C4.66542 16.0176 3.52845 14.7487 2.7366 13.2058C2.42188 12.5865 2.42188 11.8446 2.7366 11.2253C4.53357 7.7434 8.08664 5.57115 12.0052 5.57103C13.5686 5.57103 15.0719 5.92616 16.4221 6.57591L18.7464 4.25072ZM19.2747 8.56615C20.0562 9.33758 20.7365 10.2205 21.2542 11.2253H21.2639C21.5787 11.8446 21.5787 12.5865 21.2639 13.2058C19.4669 16.6979 15.9136 18.8601 12.0052 18.8601C11.0917 18.8601 10.1986 18.7279 9.34598 18.5046L10.6253 17.2253C11.0718 17.2964 11.5285 17.3376 11.9954 17.3376C15.3355 17.3376 18.3608 15.4792 19.8938 12.5046C19.9851 12.322 19.9851 12.1091 19.8938 11.9265C19.4472 11.0535 18.8685 10.3022 18.1985 9.64232L19.2747 8.56615ZM15.9856 11.8552C15.9958 11.9669 16.0257 12.0889 16.0257 12.2107C16.0256 14.4339 14.2187 16.2409 11.9954 16.241L11.9856 16.2507C11.8639 16.2507 11.7519 16.2209 11.6302 16.2107L15.9856 11.8552ZM11.9954 7.08372C8.65539 7.08372 5.63 8.9413 4.09695 11.9158C4.00558 12.0985 4.00558 12.3121 4.09695 12.4949C4.81773 13.8958 5.87334 15.0329 7.13211 15.8552L8.61453 14.3728C8.20853 13.7536 7.96516 13.0126 7.96512 12.2107C7.96512 9.98732 9.77204 8.1804 11.9954 8.1804C12.7973 8.18042 13.5281 8.4238 14.1575 8.82982V8.82005L15.2444 7.73314C14.2292 7.32705 13.1324 7.08373 11.9954 7.08372ZM11.9954 9.70287C10.6147 9.70287 9.48758 10.83 9.48758 12.2107C9.48762 12.5862 9.58927 12.9312 9.74149 13.2458L13.0305 9.95677C12.7159 9.80455 12.3709 9.70287 11.9954 9.70287Z" fill="#030712"/>
</svg>
