<svg width="24" height="24" viewBox="0 0 24 24" fill="none" xmlns="http://www.w3.org/2000/svg">
<path d="M12 13.0537L5.927 19.127C5.7885 19.2653 5.61442 19.3362 5.40475 19.3395C5.19525 19.3427 5.018 19.2718 4.873 19.127C4.72817 18.982 4.65575 18.8063 4.65575 18.6C4.65575 18.3937 4.72817 18.218 4.873 18.073L10.9463 12L4.873 5.927C4.73467 5.7885 4.66383 5.61441 4.6605 5.40475C4.65733 5.19525 4.72817 5.018 4.873 4.873C5.018 4.72816 5.19367 4.65575 5.4 4.65575C5.60633 4.65575 5.782 4.72816 5.927 4.873L12 10.9462L18.073 4.873C18.2115 4.73466 18.3856 4.66383 18.5953 4.6605C18.8048 4.65733 18.982 4.72816 19.127 4.873C19.2718 5.018 19.3443 5.19366 19.3443 5.4C19.3443 5.60633 19.2718 5.782 19.127 5.927L13.0538 12L19.127 18.073C19.2653 18.2115 19.3362 18.3856 19.3395 18.5952C19.3427 18.8047 19.2718 18.982 19.127 19.127C18.982 19.2718 18.8063 19.3442 18.6 19.3442C18.3937 19.3442 18.218 19.2718 18.073 19.127L12 13.0537Z" fill="black"/>
</svg>
