<svg width="24" height="24" viewBox="0 0 24 24" fill="none" xmlns="http://www.w3.org/2000/svg">
<path d="M12.75 3.75C12.75 3.33579 12.4142 3 12 3C11.5858 3 11.25 3.33579 11.25 3.75V12.9393L7.94699 9.63634C7.6541 9.34345 7.17923 9.34345 6.88633 9.63634C6.59344 9.92923 6.59344 10.4041 6.88633 10.697L11.4697 15.2803C11.5435 15.3541 11.6288 15.4093 11.7199 15.4459C11.7951 15.4762 11.8764 15.4947 11.9614 15.499C11.9742 15.4997 11.9871 15.5 12 15.5C12.0135 15.5 12.0268 15.4996 12.0401 15.4989C12.2185 15.4894 12.3941 15.4166 12.5303 15.2803L17.1137 10.697C17.4066 10.4041 17.4066 9.92923 17.1137 9.63634C16.8208 9.34345 16.3459 9.34345 16.053 9.63634L12.75 12.9393V3.75Z" fill="black"/>
<path d="M3.75 14C4.16421 14 4.5 14.3358 4.5 14.75V18.4167C4.5 18.704 4.61414 18.9795 4.8173 19.1827C5.02047 19.3859 5.29602 19.5 5.58333 19.5H18.4167C18.704 19.5 18.9795 19.3859 19.1827 19.1827C19.3859 18.9795 19.5 18.704 19.5 18.4167V14.75C19.5 14.3358 19.8358 14 20.25 14C20.6642 14 21 14.3358 21 14.75V18.4167C21 19.1018 20.7278 19.7589 20.2434 20.2434C19.7589 20.7278 19.1018 21 18.4167 21H5.58333C4.89819 21 4.24111 20.7278 3.75664 20.2434C3.27217 19.7589 3 19.1018 3 18.4167V14.75C3 14.3358 3.33579 14 3.75 14Z" fill="black"/>
</svg>
