<svg width="24" height="24" viewBox="0 0 24 24" fill="none" xmlns="http://www.w3.org/2000/svg">
<path d="M14.5505 12.0043L8.47724 5.93125C8.33891 5.79275 8.26808 5.61867 8.26474 5.409C8.26158 5.1995 8.33241 5.02225 8.47724 4.87725C8.62224 4.73242 8.79791 4.66 9.00424 4.66C9.21058 4.66 9.38624 4.73242 9.53124 4.87725L16.0255 11.3715C16.119 11.4652 16.185 11.5639 16.2235 11.6678C16.262 11.7716 16.2812 11.8838 16.2812 12.0043C16.2812 12.1248 16.262 12.2369 16.2235 12.3408C16.185 12.4446 16.119 12.5433 16.0255 12.637L9.53124 19.1313C9.39274 19.2696 9.21866 19.3404 9.00899 19.3438C8.79949 19.3469 8.62224 19.2761 8.47724 19.1313C8.33241 18.9863 8.25999 18.8106 8.25999 18.6043C8.25999 18.3979 8.33241 18.2223 8.47724 18.0773L14.5505 12.0043Z" fill="black"/>
</svg>
