<svg width="24" height="24" viewBox="0 0 24 24" fill="none" xmlns="http://www.w3.org/2000/svg">
<path d="M11.2588 2.97852C11.6997 2.65361 12.3003 2.65361 12.7412 2.97852L20.2412 8.50391C20.561 8.73951 20.75 9.11357 20.75 9.51074V20.5C20.75 21.1904 20.1904 21.75 19.5 21.75H16C15.8619 21.75 15.75 21.6381 15.75 21.5V16.7949C15.75 14.7239 14.0711 13.0449 12 13.0449C9.92894 13.0449 8.25002 14.7239 8.25 16.7949V21.5C8.25 21.6381 8.13807 21.75 8 21.75H4.5C3.80964 21.75 3.25 21.1904 3.25 20.5V9.51074C3.25 9.11357 3.43904 8.73951 3.75879 8.50391L11.2588 2.97852Z" stroke="black" stroke-width="1.5"/>
</svg>
