<svg width="24" height="24" viewBox="0 0 24 24" fill="none" xmlns="http://www.w3.org/2000/svg">
<path fill-rule="evenodd" clip-rule="evenodd" d="M5.55 5.55H9.6C10.0142 5.55 10.35 5.21422 10.35 4.8C10.35 4.38579 10.0142 4.05 9.6 4.05H5.4C4.65442 4.05 4.05 4.65442 4.05 5.4V9.6C4.05 10.0142 4.38579 10.35 4.8 10.35C5.21422 10.35 5.55 10.0142 5.55 9.6V5.55ZM13.65 4.8C13.65 4.38579 13.9858 4.05 14.4 4.05H18.6C19.3456 4.05 19.95 4.65442 19.95 5.4V9.6C19.95 10.0142 19.6142 10.35 19.2 10.35C18.7858 10.35 18.45 10.0142 18.45 9.6V5.55H14.4C13.9858 5.55 13.65 5.21422 13.65 4.8ZM4.8 13.65C5.21422 13.65 5.55 13.9858 5.55 14.4V18.45H9.6C10.0142 18.45 10.35 18.7858 10.35 19.2C10.35 19.6142 10.0142 19.95 9.6 19.95H5.4C4.65442 19.95 4.05 19.3456 4.05 18.6V14.4C4.05 13.9858 4.38579 13.65 4.8 13.65ZM19.2 13.65C19.6142 13.65 19.95 13.9858 19.95 14.4V18.6C19.95 19.3456 19.3456 19.95 18.6 19.95H14.4C13.9858 19.95 13.65 19.6142 13.65 19.2C13.65 18.7858 13.9858 18.45 14.4 18.45H18.45V14.4C18.45 13.9858 18.7858 13.65 19.2 13.65Z" fill="black"/>
</svg>
