<svg width="24" height="24" viewBox="0 0 24 24" fill="none" xmlns="http://www.w3.org/2000/svg">
<path fill-rule="evenodd" clip-rule="evenodd" d="M6.6967 6.6967C8.10322 5.29018 10.0109 4.5 12 4.5C13.9891 4.5 15.8968 5.29018 17.3033 6.6967C18.7098 8.10322 19.5 10.0109 19.5 12V13.0833H17.5C16.8149 13.0833 16.1578 13.3555 15.6733 13.84C15.1888 14.3244 14.9167 14.9815 14.9167 15.6667V18.4167C14.9167 19.1018 15.1888 19.7589 15.6733 20.2434C16.1578 20.7278 16.8149 21 17.5 21H18.4167C19.1018 21 19.7589 20.7278 20.2434 20.2434C20.7278 19.7589 21 19.1018 21 18.4167V17.5V13.8333V12C21 9.61305 20.0518 7.32387 18.364 5.63604C16.6761 3.94821 14.3869 3 12 3C9.61305 3 7.32387 3.94821 5.63604 5.63604C3.94821 7.32387 3 9.61305 3 12V13.8333V17.5V18.4167C3 19.1018 3.27217 19.7589 3.75664 20.2434C4.24111 20.7278 4.89819 21 5.58333 21H6.5C7.18514 21 7.84222 20.7278 8.32669 20.2434C8.81116 19.7589 9.08333 19.1018 9.08333 18.4167V15.6667C9.08333 14.9815 8.81116 14.3244 8.32669 13.84C7.84222 13.3555 7.18514 13.0833 6.5 13.0833H4.5V12C4.5 10.0109 5.29018 8.10322 6.6967 6.6967ZM4.5 14.5833V17.5V18.4167C4.5 18.704 4.61414 18.9795 4.8173 19.1827C5.02047 19.3859 5.29602 19.5 5.58333 19.5H6.5C6.78732 19.5 7.06287 19.3859 7.26603 19.1827C7.4692 18.9795 7.58333 18.704 7.58333 18.4167V15.6667C7.58333 15.3793 7.4692 15.1038 7.26603 14.9006C7.06287 14.6975 6.78732 14.5833 6.5 14.5833H4.5ZM19.5 14.5833H17.5C17.2127 14.5833 16.9371 14.6975 16.734 14.9006C16.5308 15.1038 16.4167 15.3793 16.4167 15.6667V18.4167C16.4167 18.704 16.5308 18.9795 16.734 19.1827C16.9371 19.3859 17.2127 19.5 17.5 19.5H18.4167C18.704 19.5 18.9795 19.3859 19.1827 19.1827C19.3859 18.9795 19.5 18.704 19.5 18.4167V17.5V14.5833Z" fill="black"/>
</svg>
