<svg width="24" height="24" viewBox="0 0 24 24" fill="none" xmlns="http://www.w3.org/2000/svg">
<path fill-rule="evenodd" clip-rule="evenodd" d="M9.6 4.05C10.0142 4.05 10.35 4.38579 10.35 4.8V9C10.35 9.74559 9.74559 10.35 9 10.35H4.8C4.38579 10.35 4.05 10.0142 4.05 9.6C4.05 9.18579 4.38579 8.85 4.8 8.85H8.85V4.8C8.85 4.38579 9.18579 4.05 9.6 4.05ZM14.4 4.05C14.8142 4.05 15.15 4.38579 15.15 4.8V8.85H19.2C19.6142 8.85 19.95 9.18579 19.95 9.6C19.95 10.0142 19.6142 10.35 19.2 10.35H15C14.2544 10.35 13.65 9.74559 13.65 9V4.8C13.65 4.38579 13.9858 4.05 14.4 4.05ZM4.05 14.4C4.05 13.9858 4.38579 13.65 4.8 13.65H9C9.74559 13.65 10.35 14.2544 10.35 15L10.35 19.2C10.35 19.6142 10.0142 19.95 9.6 19.95C9.18579 19.95 8.85 19.6142 8.85 19.2L8.85 15.15H4.8C4.38579 15.15 4.05 14.8142 4.05 14.4ZM15.15 15.15H19.2C19.6142 15.15 19.95 14.8142 19.95 14.4C19.95 13.9858 19.6142 13.65 19.2 13.65H15C14.2544 13.65 13.65 14.2544 13.65 15V19.2C13.65 19.6142 13.9858 19.95 14.4 19.95C14.8142 19.95 15.15 19.6142 15.15 19.2V15.15Z" fill="black"/>
</svg>
