<svg width="24" height="24" viewBox="0 0 24 24" fill="none" xmlns="http://www.w3.org/2000/svg">
<path d="M7.75 4.25H7.25C5.83579 4.25 5.12868 4.25 4.68934 4.68934C4.25 5.12868 4.25 5.83579 4.25 7.25V7.75C4.25 9.16421 4.25 9.87132 4.68934 10.3107C5.12868 10.75 5.83579 10.75 7.25 10.75H7.75C9.16421 10.75 9.87132 10.75 10.3107 10.3107C10.75 9.87132 10.75 9.16421 10.75 7.75V7.25C10.75 5.83579 10.75 5.12868 10.3107 4.68934C9.87132 4.25 9.16421 4.25 7.75 4.25Z" stroke="black" stroke-width="1.5" stroke-linecap="round" stroke-linejoin="round"/>
<path d="M16.75 4.25H16.25C14.8358 4.25 14.1287 4.25 13.6893 4.68934C13.25 5.12868 13.25 5.83579 13.25 7.25V7.75C13.25 9.16421 13.25 9.87132 13.6893 10.3107C14.1287 10.75 14.8358 10.75 16.25 10.75H16.75C18.1642 10.75 18.8713 10.75 19.3107 10.3107C19.75 9.87132 19.75 9.16421 19.75 7.75V7.25C19.75 5.83579 19.75 5.12868 19.3107 4.68934C18.8713 4.25 18.1642 4.25 16.75 4.25Z" stroke="black" stroke-width="1.5" stroke-linecap="round" stroke-linejoin="round"/>
<path d="M16.75 13.25H16.25C14.8358 13.25 14.1287 13.25 13.6893 13.6893C13.25 14.1287 13.25 14.8358 13.25 16.25V16.75C13.25 18.1642 13.25 18.8713 13.6893 19.3107C14.1287 19.75 14.8358 19.75 16.25 19.75H16.75C18.1642 19.75 18.8713 19.75 19.3107 19.3107C19.75 18.8713 19.75 18.1642 19.75 16.75V16.25C19.75 14.8358 19.75 14.1287 19.3107 13.6893C18.8713 13.25 18.1642 13.25 16.75 13.25Z" stroke="black" stroke-width="1.5" stroke-linecap="round" stroke-linejoin="round"/>
<path d="M7.75 13.25H7.25C5.83579 13.25 5.12868 13.25 4.68934 13.6893C4.25 14.1287 4.25 14.8358 4.25 16.25V16.75C4.25 18.1642 4.25 18.8713 4.68934 19.3107C5.12868 19.75 5.83579 19.75 7.25 19.75H7.75C9.16421 19.75 9.87132 19.75 10.3107 19.3107C10.75 18.8713 10.75 18.1642 10.75 16.75V16.25C10.75 14.8358 10.75 14.1287 10.3107 13.6893C9.87132 13.25 9.16421 13.25 7.75 13.25Z" stroke="black" stroke-width="1.5" stroke-linecap="round" stroke-linejoin="round"/>
</svg>
