<svg width="24" height="24" viewBox="0 0 24 24" fill="none" xmlns="http://www.w3.org/2000/svg">
<path d="M11.25 6.373L5.08076 12.5422C4.93209 12.6909 4.75809 12.7643 4.55876 12.7625C4.35942 12.7605 4.18217 12.682 4.02701 12.527C3.88217 12.3718 3.80717 12.1962 3.80201 12C3.79684 11.8038 3.87184 11.6282 4.02701 11.473L11.3673 4.13275C11.4609 4.03908 11.5597 3.97308 11.6635 3.93475C11.7673 3.89625 11.8795 3.877 12 3.877C12.1205 3.877 12.2327 3.89625 12.3365 3.93475C12.4403 3.97308 12.5391 4.03908 12.6328 4.13275L19.973 11.473C20.1115 11.6115 20.1823 11.783 20.1855 11.9875C20.1887 12.192 20.1178 12.3718 19.973 12.527C19.8178 12.682 19.6397 12.7595 19.4385 12.7595C19.2372 12.7595 19.0589 12.682 18.9038 12.527L12.75 6.373V19.75C12.75 19.9628 12.6782 20.141 12.5345 20.2845C12.391 20.4282 12.2128 20.5 12 20.5C11.7872 20.5 11.609 20.4282 11.4655 20.2845C11.3218 20.141 11.25 19.9628 11.25 19.75V6.373Z" fill="black"/>
</svg>
