<svg width="24" height="24" viewBox="0 0 24 24" fill="none" xmlns="http://www.w3.org/2000/svg">
<path fill-rule="evenodd" clip-rule="evenodd" d="M10.8135 2.37424C11.519 1.85442 12.481 1.85442 13.1865 2.37424L20.6865 7.90061C21.1981 8.27757 21.5 8.87551 21.5 9.51096V20.5002L21.4893 20.7043C21.387 21.713 20.5357 22.5002 19.5 22.5002H4.5L4.2959 22.4895C3.28723 22.3872 2.5 21.5359 2.5 20.5002V9.51096C2.50002 8.87551 2.80191 8.27757 3.31348 7.90061L10.8135 2.37424ZM12.2969 3.58225C12.1205 3.45231 11.8795 3.45232 11.7031 3.58225L4.20312 9.10862C4.07544 9.20286 4.00002 9.35225 4 9.51096V20.5002C4 20.7764 4.22386 21.0002 4.5 21.0002H19.5C19.7761 21.0002 20 20.7764 20 20.5002V9.51096C20 9.35225 19.9246 9.20286 19.7969 9.10862L12.2969 3.58225ZM16.4668 10.5168L14.583 18.4494H9.07031L7.19238 10.5168H10.4629L11.7646 16.6106H11.9014L13.1973 10.5168L13.4678 9.24924H16.8066L16.4668 10.5168Z" fill="black"/>
</svg>
