<svg width="24" height="24" viewBox="0 0 24 24" fill="none" xmlns="http://www.w3.org/2000/svg">
<path fill-rule="evenodd" clip-rule="evenodd" d="M9.40063 3.90063C9.60379 3.69746 9.87934 3.58333 10.1667 3.58333H13.8333C14.1206 3.58333 14.3962 3.69746 14.5994 3.90063C14.8025 4.10379 14.9167 4.37934 14.9167 4.66666V5.75H9.08333V4.66666C9.08333 4.37934 9.19746 4.10379 9.40063 3.90063ZM7.58333 5.75V4.66666C7.58333 3.98152 7.8555 3.32444 8.33997 2.83997C8.82444 2.3555 9.48152 2.08333 10.1667 2.08333H13.8333C14.5185 2.08333 15.1756 2.3555 15.66 2.83997C16.1445 3.32444 16.4167 3.98152 16.4167 4.66666V5.75H18.4139L18.4167 5.74999L18.4194 5.75H20.25C20.6642 5.75 21 6.08579 21 6.5C21 6.91421 20.6642 7.25 20.25 7.25H19.1667V19.3333C19.1667 20.0185 18.8945 20.6756 18.41 21.16C17.9256 21.6445 17.2685 21.9167 16.5833 21.9167H7.41666C6.73152 21.9167 6.07444 21.6445 5.58997 21.16C5.1055 20.6756 4.83333 20.0185 4.83333 19.3333V7.25H3.75C3.33579 7.25 3 6.91421 3 6.5C3 6.08579 3.33579 5.75 3.75 5.75H5.58056L5.58333 5.74999L5.5861 5.75H7.58333ZM6.33333 7.25V19.3333C6.33333 19.6206 6.44746 19.8962 6.65063 20.0994C6.85379 20.3025 7.12934 20.4167 7.41666 20.4167H16.5833C16.8706 20.4167 17.1462 20.3025 17.3494 20.0994C17.5525 19.8962 17.6667 19.6206 17.6667 19.3333V7.25H6.33333ZM10.1667 10.3333C10.5809 10.3333 10.9167 10.6691 10.9167 11.0833V16.5833C10.9167 16.9975 10.5809 17.3333 10.1667 17.3333C9.75246 17.3333 9.41667 16.9975 9.41667 16.5833V11.0833C9.41667 10.6691 9.75246 10.3333 10.1667 10.3333ZM14.5833 11.0833C14.5833 10.6691 14.2475 10.3333 13.8333 10.3333C13.4191 10.3333 13.0833 10.6691 13.0833 11.0833V16.5833C13.0833 16.9975 13.4191 17.3333 13.8333 17.3333C14.2475 17.3333 14.5833 16.9975 14.5833 16.5833V11.0833Z" fill="black"/>
</svg>
