<svg width="24" height="24" viewBox="0 0 24 24" fill="none" xmlns="http://www.w3.org/2000/svg">
<path d="M9.84669 18.2881C9.862 18.7913 10.0768 19.2777 10.4629 19.6455C10.8649 20.0285 11.4176 20.25 12.001 20.25C12.5842 20.2499 13.1362 20.0284 13.5381 19.6455C13.9242 19.2777 14.139 18.7913 14.1543 18.2881H9.84669ZM17.0576 10.3281C17.0576 8.75437 16.6395 7.7633 16.1133 7.10742C15.578 6.44038 14.8731 6.04776 14.1787 5.77539C13.8074 5.62968 13.4264 5.29677 13.2852 4.84375L14.0371 4.60938L13.8731 4.65918L13.2852 4.84375L13.2842 4.8418L13.2432 4.72266C13.0205 4.14262 12.5341 3.75021 12.001 3.75C11.4321 3.75 10.916 4.19687 10.7197 4.83984L9.95118 4.60449L10.002 4.62109L10.7197 4.83984L10.7188 4.8418C10.5767 5.30312 10.1906 5.63063 9.82325 5.77441L9.82423 5.77539C9.12835 6.04842 8.42347 6.44023 7.88868 7.10645C7.36302 7.76151 6.94532 8.7525 6.94532 10.3281L6.93556 11.0166C6.88902 12.5506 6.68343 13.5943 6.32423 14.4229C5.9163 15.3638 5.32239 15.976 4.77247 16.6172C4.75034 16.643 4.75013 16.6569 4.75001 16.6582C4.74962 16.6627 4.74997 16.6738 4.7588 16.6904C4.77316 16.7172 4.82934 16.7879 4.98829 16.7881H19.0166C19.098 16.7881 19.1502 16.7689 19.1807 16.751C19.2128 16.7321 19.2309 16.709 19.2402 16.6914C19.2496 16.6737 19.2505 16.6614 19.25 16.6562C19.2497 16.6532 19.2482 16.6402 19.2285 16.6172L20.3672 15.6416C20.8199 16.1702 20.8507 16.8584 20.5645 17.3965C20.279 17.9328 19.7033 18.2881 19.0166 18.2881H15.6553C15.6397 19.2123 15.2486 20.0879 14.5733 20.7314C13.8851 21.387 12.9592 21.7499 12.001 21.75C11.0426 21.75 10.116 21.3871 9.42774 20.7314C8.75243 20.0879 8.36132 19.2123 8.34571 18.2881H4.98829C4.30263 18.2879 3.72422 17.9363 3.43653 17.3994C3.14727 16.8595 3.17996 16.1698 3.6338 15.6406C4.25015 14.9219 4.65235 14.5087 4.94825 13.8262C5.24154 13.1496 5.44421 12.1565 5.44532 10.3271C5.44541 8.46652 5.94731 7.12925 6.71974 6.16699C7.48318 5.21603 8.45595 4.7008 9.27638 4.37891C9.27734 4.37845 9.28074 4.37595 9.28517 4.37305C9.29002 4.36986 9.29409 4.36571 9.29786 4.3623C9.63927 3.29541 10.6074 2.25 12.001 2.25C13.3956 2.25022 14.3618 3.29703 14.7051 4.3623C14.7095 4.36653 14.7144 4.37144 14.7197 4.375L14.7266 4.37891L15.041 4.50879C15.7871 4.83612 16.6152 5.33558 17.2832 6.16797C18.0557 7.13058 18.5576 8.46863 18.5576 10.3281C18.5577 12.1572 18.7608 13.1498 19.0537 13.8262C19.3493 14.5085 19.7508 14.9229 20.3672 15.6416L19.2285 16.6172C18.6786 15.976 18.0844 15.3639 17.6768 14.4229C17.2665 13.4759 17.0577 12.2477 17.0576 10.3281Z" fill="black"/>
</svg>
