<svg width="24" height="24" viewBox="0 0 24 24" fill="none" xmlns="http://www.w3.org/2000/svg">
<path fill-rule="evenodd" clip-rule="evenodd" d="M3.58333 12C3.58333 7.3516 7.3516 3.58333 12 3.58333C16.6484 3.58333 20.4167 7.3516 20.4167 12C20.4167 16.6484 16.6484 20.4167 12 20.4167C7.3516 20.4167 3.58333 16.6484 3.58333 12ZM12 2.08333C6.52317 2.08333 2.08333 6.52318 2.08333 12C2.08333 17.4768 6.52317 21.9167 12 21.9167C17.4768 21.9167 21.9167 17.4768 21.9167 12C21.9167 6.52318 17.4768 2.08333 12 2.08333ZM12.6573 8.92689C12.5336 8.43189 12.2411 8.25189 11.8923 8.25189C11.5211 8.25189 11.2511 8.43189 11.1273 8.92689L10.4523 11.6044H9.22605L8.5848 8.73564C8.48355 8.29689 8.1348 8.19564 7.7973 8.27439C7.42605 8.35314 7.2123 8.63439 7.31355 9.05064L7.94355 11.6044H7.0323C6.8073 11.6044 6.70605 11.7844 6.70605 12.0094C6.70605 12.2231 6.8073 12.4031 7.0323 12.4031H8.1348L8.95605 15.6994C9.06855 16.2056 9.40605 16.3856 9.72105 16.3856C10.0361 16.3856 10.3736 16.2056 10.4973 15.7106L11.3298 12.4031H12.4098L13.1748 15.6881C13.2986 16.2056 13.6248 16.3856 13.9398 16.3856C14.2548 16.3856 14.5811 16.2056 14.7048 15.7106L15.5261 12.4031H16.6173C16.8423 12.4031 16.9436 12.2231 16.9436 12.0094C16.9436 11.7844 16.8423 11.6044 16.6173 11.6044H15.7173L16.3586 9.05064C16.4598 8.63439 16.2461 8.35314 15.8861 8.27439C15.5598 8.20689 15.1998 8.33064 15.1098 8.73564L14.4686 11.6044H13.2873L12.6573 8.92689ZM9.7998 14.1806L9.40605 12.4031H10.2498L9.7998 14.1806ZM13.8948 14.1694L13.4786 12.4031H14.2886L13.8948 14.1694ZM11.5323 11.6044L11.8923 10.1869L12.2186 11.6044H11.5323Z" fill="black"/>
</svg>
