<svg width="24" height="24" viewBox="0 0 24 24" fill="none" xmlns="http://www.w3.org/2000/svg">
<path fill-rule="evenodd" clip-rule="evenodd" d="M7.58333 3.91666V3.75C7.58333 2.82953 8.32952 2.08334 9.25 2.08334H14.75C15.6705 2.08334 16.4167 2.82953 16.4167 3.75V3.91666H17.5C18.1851 3.91666 18.8422 4.18884 19.3267 4.6733C19.8112 5.15777 20.0833 5.81485 20.0833 6.5V19.3333C20.0833 20.0185 19.8112 20.6756 19.3267 21.16C18.8422 21.6445 18.1851 21.9167 17.5 21.9167H6.50001C5.81486 21.9167 5.15778 21.6445 4.67331 21.16C4.18884 20.6756 3.91667 20.0185 3.91667 19.3333V6.5C3.91667 5.81486 4.18884 5.15777 4.67331 4.6733C5.15778 4.18884 5.81486 3.91666 6.50001 3.91666H7.58333ZM9.08333 3.75C9.08333 3.65796 9.15795 3.58334 9.25 3.58334H14.75C14.842 3.58334 14.9167 3.65796 14.9167 3.75V5.58334C14.9167 5.67538 14.842 5.75 14.75 5.75H9.25C9.15795 5.75 9.08333 5.67538 9.08333 5.58334V4.67067L9.08334 4.66666L9.08333 4.66265V3.75ZM7.58333 5.41666H6.50001C6.21269 5.41666 5.93714 5.5308 5.73397 5.73396C5.53081 5.93713 5.41667 6.21268 5.41667 6.5V19.3333C5.41667 19.6206 5.53081 19.8962 5.73397 20.0994C5.93714 20.3025 6.21269 20.4167 6.50001 20.4167H17.5C17.7873 20.4167 18.0629 20.3025 18.266 20.0994C18.4692 19.8962 18.5833 19.6206 18.5833 19.3333V6.5C18.5833 6.21268 18.4692 5.93713 18.266 5.73396C18.0629 5.5308 17.7873 5.41666 17.5 5.41666H16.4167V5.58334C16.4167 6.50381 15.6705 7.25 14.75 7.25H9.25C8.32952 7.25 7.58333 6.50381 7.58333 5.58334V5.41666Z" fill="black"/>
</svg>
