<svg width="24" height="24" viewBox="0 0 24 24" fill="none" xmlns="http://www.w3.org/2000/svg">
<path d="M12.0043 9.45601L5.93125 15.5293C5.79275 15.6676 5.61867 15.7384 5.409 15.7418C5.1995 15.7449 5.02225 15.6741 4.87725 15.5293C4.73242 15.3843 4.66 15.2086 4.66 15.0023C4.66 14.7959 4.73242 14.6203 4.87725 14.4753L11.3715 7.98101C11.5523 7.80034 11.7633 7.71001 12.0043 7.71001C12.2453 7.71001 12.4562 7.80034 12.637 7.98101L19.1313 14.4753C19.2696 14.6138 19.3404 14.7878 19.3438 14.9975C19.3469 15.207 19.2761 15.3843 19.1313 15.5293C18.9863 15.6741 18.8106 15.7465 18.6043 15.7465C18.3979 15.7465 18.2223 15.6741 18.0773 15.5293L12.0043 9.45601Z" fill="black"/>
</svg>
