<svg width="24" height="24" viewBox="0 0 24 24" fill="none" xmlns="http://www.w3.org/2000/svg">
<path fill-rule="evenodd" clip-rule="evenodd" d="M9.75 2.75C9.33579 2.75 9 3.08579 9 3.5C9 3.91421 9.33579 4.25 9.75 4.25L14.25 4.25C14.6642 4.25 15 3.91421 15 3.5C15 3.08579 14.6642 2.75 14.25 2.75L9.75 2.75ZM11.25 9.75L11.25 13.75C11.25 14.1642 11.5858 14.5 12 14.5C12.4142 14.5 12.75 14.1642 12.75 13.75L12.75 9.75C12.75 9.33579 12.4142 9 12 9C11.5858 9 11.25 9.33579 11.25 9.75ZM17.2793 7.16005L18.2197 6.21967C18.5126 5.92678 18.9874 5.92678 19.2803 6.21967C19.5732 6.51256 19.5732 6.98744 19.2803 7.28033L18.34 8.22071C19.5325 9.65133 20.25 11.4919 20.25 13.5C20.25 18.0563 16.5563 21.75 12 21.75C7.44365 21.75 3.75 18.0563 3.75 13.5C3.75 8.94365 7.44365 5.25 12 5.25C14.0081 5.25 15.8487 5.96747 17.2793 7.16005ZM18.75 13.5C18.75 17.2279 15.7279 20.25 12 20.25C8.27208 20.25 5.25 17.2279 5.25 13.5C5.25 9.77208 8.27208 6.75 12 6.75C15.7279 6.75 18.75 9.77208 18.75 13.5Z" fill="black"/>
</svg>
