<svg width="24" height="24" viewBox="0 0 24 24" fill="none" xmlns="http://www.w3.org/2000/svg">
<path fill-rule="evenodd" clip-rule="evenodd" d="M4.05754 4.05754C4.25445 3.86062 4.52152 3.75 4.8 3.75H12.9C13.1785 3.75 13.4455 3.86062 13.6425 4.05754C13.8394 4.25445 13.95 4.52152 13.95 4.8V5.7C13.95 6.11421 14.2858 6.45 14.7 6.45C15.1142 6.45 15.45 6.11421 15.45 5.7V4.8C15.45 4.1237 15.1813 3.4751 14.7031 2.99688C14.2249 2.51866 13.5763 2.25 12.9 2.25H4.8C4.1237 2.25 3.4751 2.51866 2.99688 2.99688C2.51866 3.4751 2.25 4.1237 2.25 4.8V12.9C2.25 13.5763 2.51866 14.2249 2.99688 14.7031C3.4751 15.1813 4.1237 15.45 4.8 15.45H5.7C6.11421 15.45 6.45 15.1142 6.45 14.7C6.45 14.2858 6.11421 13.95 5.7 13.95H4.8C4.52152 13.95 4.25445 13.8394 4.05754 13.6425C3.86062 13.4455 3.75 13.1785 3.75 12.9V4.8C3.75 4.52152 3.86062 4.25445 4.05754 4.05754ZM10.05 11.1C10.05 10.5201 10.5201 10.05 11.1 10.05H19.2C19.7799 10.05 20.25 10.5201 20.25 11.1V19.2C20.25 19.7799 19.7799 20.25 19.2 20.25H11.1C10.5201 20.25 10.05 19.7799 10.05 19.2V11.1ZM11.1 8.55C9.69168 8.55 8.55 9.69167 8.55 11.1V19.2C8.55 20.6083 9.69168 21.75 11.1 21.75H19.2C20.6083 21.75 21.75 20.6083 21.75 19.2V11.1C21.75 9.69167 20.6083 8.55 19.2 8.55H11.1Z" fill="black"/>
</svg>
