<svg width="24" height="24" viewBox="0 0 24 24" fill="none" xmlns="http://www.w3.org/2000/svg">
<path d="M11.9976 16.2746C11.8771 16.2746 11.765 16.2554 11.6611 16.2169C11.5573 16.1786 11.4585 16.1126 11.3649 16.0189L4.87063 9.52464C4.7323 9.38614 4.65896 9.21464 4.65063 9.01014C4.6423 8.8058 4.71563 8.62605 4.87063 8.47089C5.01563 8.32605 5.1913 8.25364 5.39763 8.25364C5.60397 8.25364 5.77963 8.32605 5.92463 8.47089L11.9976 14.5286L18.0706 8.47089C18.2091 8.33239 18.3806 8.25897 18.5851 8.25064C18.7896 8.2423 18.9695 8.31572 19.1246 8.47089C19.2695 8.61572 19.3419 8.7913 19.3419 8.99764C19.3419 9.20414 19.2695 9.3798 19.1246 9.52464L12.6304 16.0189C12.5367 16.1126 12.438 16.1786 12.3341 16.2169C12.2303 16.2554 12.1181 16.2746 11.9976 16.2746Z" fill="black"/>
</svg>
