<svg width="24" height="24" viewBox="0 0 24 24" fill="none" xmlns="http://www.w3.org/2000/svg">
<path fill-rule="evenodd" clip-rule="evenodd" d="M18.0723 3.7627C18.6254 3.81774 19.1455 4.06253 19.542 4.45898C19.9951 4.91217 20.25 5.52714 20.25 6.16797V17.834C20.2499 18.4747 19.9951 19.0899 19.542 19.543C19.0888 19.996 18.4738 20.251 17.833 20.251H6.16699L5.92773 20.2383C5.37475 20.1832 4.85444 19.9393 4.45801 19.543C4.00491 19.0899 3.75013 18.4747 3.75 17.834V6.16797C3.75 5.52714 4.00495 4.91217 4.45801 4.45898C4.85447 4.06252 5.37463 3.81774 5.92773 3.7627C6.00691 3.75481 6.08673 3.75 6.16699 3.75H17.833C17.9133 3.75 17.9931 3.75481 18.0723 3.7627ZM10.25 18.751H17.833C18.076 18.751 18.3096 18.6542 18.4814 18.4824C18.6532 18.3106 18.7499 18.0769 18.75 17.834V15.251H10.25V18.751ZM5.25 17.834C5.25013 18.0769 5.34676 18.3106 5.51855 18.4824C5.69044 18.6542 5.92399 18.751 6.16699 18.751H8.75V15.251H5.25V17.834ZM10.25 13.751H18.75V10.251H10.25V13.751ZM5.25 13.751H8.75V10.251H5.25V13.751ZM6.16699 5.25098C5.92388 5.25098 5.69046 5.34762 5.51855 5.51953C5.3468 5.69142 5.25 5.92497 5.25 6.16797V8.75098H8.75V5.25098H6.16699ZM10.25 8.75098H18.75V6.16797C18.75 5.92497 18.6532 5.69142 18.4814 5.51953C18.3311 5.36916 18.1336 5.27577 17.9238 5.25488L17.833 5.25098H10.25V8.75098Z" fill="black"/>
</svg>
