<svg width="24" height="24" viewBox="0 0 24 24" fill="none" xmlns="http://www.w3.org/2000/svg">
<path d="M13.3478 17.0159L11.4698 18.8939C10.6259 19.7378 9.48126 20.2119 8.28779 20.2119C7.09432 20.2119 5.94972 19.7378 5.10581 18.8939C4.26189 18.05 3.78779 16.9054 3.78779 15.7119C3.78779 14.5184 4.26189 13.3738 5.10581 12.5299L6.94241 10.6933M10.6938 6.94191L12.5304 5.10531C13.3743 4.2614 14.5189 3.78729 15.7124 3.78729C16.9059 3.78729 18.0505 4.2614 18.8944 5.10531C19.7383 5.94923 20.2124 7.09382 20.2124 8.28729C20.2124 9.48077 19.7383 10.6254 18.8944 11.4693L17.0164 13.3473M9.11875 14.881L14.9477 9.05196" stroke="black" stroke-width="1.5" stroke-linecap="round" stroke-linejoin="round"/>
</svg>
