<svg width="24" height="24" viewBox="0 0 24 24" fill="none" xmlns="http://www.w3.org/2000/svg">
<path d="M9.58301 5.5C9.58301 5.36193 9.47108 5.25 9.33301 5.25H5.5C5.36193 5.25 5.25 5.36193 5.25 5.5V9.33301C5.25 9.47108 5.36193 9.58301 5.5 9.58301H9.33301C9.47108 9.58301 9.58301 9.47108 9.58301 9.33301V5.5ZM11.083 9.33301C11.083 10.2995 10.2995 11.083 9.33301 11.083H5.5C4.5335 11.083 3.75 10.2995 3.75 9.33301V5.5C3.75 4.5335 4.5335 3.75 5.5 3.75H9.33301C10.2995 3.75 11.083 4.5335 11.083 5.5V9.33301Z" fill="black"/>
<path d="M18.75 5.5C18.75 5.36193 18.6381 5.25 18.5 5.25H14.667C14.5289 5.25 14.417 5.36193 14.417 5.5V9.33301C14.417 9.47108 14.5289 9.58301 14.667 9.58301H18.5C18.6381 9.58301 18.75 9.47108 18.75 9.33301V5.5ZM20.25 9.33301C20.25 10.2995 19.4665 11.083 18.5 11.083H14.667C13.7005 11.083 12.917 10.2995 12.917 9.33301V5.5C12.917 4.5335 13.7005 3.75 14.667 3.75H18.5C19.4665 3.75 20.25 4.5335 20.25 5.5V9.33301Z" fill="black"/>
<path d="M18.75 14.6665C18.75 14.5284 18.6381 14.4165 18.5 14.4165H14.667C14.5289 14.4165 14.417 14.5284 14.417 14.6665V18.4995C14.417 18.6376 14.5289 18.7495 14.667 18.7495H18.5C18.6381 18.7495 18.75 18.6376 18.75 18.4995V14.6665ZM20.25 18.4995C20.25 19.466 19.4665 20.2495 18.5 20.2495H14.667C13.7005 20.2495 12.917 19.466 12.917 18.4995V14.6665C12.917 13.7 13.7005 12.9165 14.667 12.9165H18.5C19.4665 12.9165 20.25 13.7 20.25 14.6665V18.4995Z" fill="black"/>
<path d="M9.58301 14.6667C9.58301 14.5286 9.47108 14.4167 9.33301 14.4167H5.5C5.36193 14.4167 5.25 14.5286 5.25 14.6667V18.4997C5.25 18.6377 5.36193 18.7497 5.5 18.7497H9.33301C9.47108 18.7497 9.58301 18.6377 9.58301 18.4997V14.6667ZM11.083 18.4997C11.083 19.4662 10.2995 20.2497 9.33301 20.2497H5.5C4.5335 20.2497 3.75 19.4662 3.75 18.4997V14.6667C3.75 13.7002 4.5335 12.9167 5.5 12.9167H9.33301C10.2995 12.9167 11.083 13.7002 11.083 14.6667V18.4997Z" fill="black"/>
</svg>
