<svg width="24" height="24" viewBox="0 0 24 24" fill="none" xmlns="http://www.w3.org/2000/svg">
<path fill-rule="evenodd" clip-rule="evenodd" d="M8.03033 1.46967C7.73744 1.17678 7.26256 1.17678 6.96967 1.46967C6.67678 1.76256 6.67678 2.23744 6.96967 2.53033L10.1893 5.75H4.8C3.37876 5.75 2.25 6.91963 2.25 8.33333V18.4167C2.25 19.8304 3.37876 21 4.8 21H19.2C20.6212 21 21.75 19.8304 21.75 18.4167V8.33333C21.75 6.91963 20.6212 5.75 19.2 5.75H13.8107L17.0303 2.53033C17.3232 2.23744 17.3232 1.76256 17.0303 1.46967C16.7374 1.17678 16.2626 1.17678 15.9697 1.46967L12 5.43934L8.03033 1.46967ZM3.75 8.33333C3.75 7.72199 4.23302 7.25 4.8 7.25H19.2C19.767 7.25 20.25 7.72199 20.25 8.33333V18.4167C20.25 19.028 19.767 19.5 19.2 19.5H4.8C4.23302 19.5 3.75 19.028 3.75 18.4167V8.33333Z" fill="black"/>
</svg>
