<svg width="24" height="24" viewBox="0 0 24 24" fill="none" xmlns="http://www.w3.org/2000/svg">
<path d="M15.58 7.55046L6.85538 7.55046C6.64513 7.55046 6.47018 7.47934 6.33053 7.33709C6.19099 7.19473 6.12116 7.01388 6.12105 6.79456C6.12835 6.58243 6.19953 6.40518 6.33459 6.26282C6.46965 6.12045 6.6469 6.04927 6.86634 6.04927L17.247 6.04927C17.3795 6.04927 17.496 6.07243 17.5965 6.11874C17.6971 6.16494 17.7901 6.23064 17.8753 6.31585C17.9605 6.40106 18.0262 6.49398 18.0724 6.59463C18.1187 6.69515 18.1419 6.81165 18.1419 6.94411L18.1419 17.3248C18.1419 17.5207 18.0707 17.692 17.9283 17.8389C17.786 17.9857 17.6087 18.0628 17.3966 18.0701C17.1772 18.07 16.9965 17.9988 16.8542 17.8565C16.7119 17.7142 16.6406 17.5333 16.6405 17.314L16.6407 8.61112L7.18171 18.0701C7.03121 18.2206 6.85443 18.2958 6.65137 18.2957C6.44832 18.2958 6.27154 18.2206 6.12104 18.0701C5.97055 17.9196 5.89536 17.7428 5.89548 17.5398C5.89536 17.3367 5.97055 17.1599 6.12105 17.0094L15.58 7.55046Z" fill="black"/>
</svg>
