<svg width="24" height="24" viewBox="0 0 24 24" fill="none" xmlns="http://www.w3.org/2000/svg">
<path fill-rule="evenodd" clip-rule="evenodd" d="M19.2928 11.7785L15.0508 16.0205L14.3438 19.5565L13.636 20.2638C13.2454 20.6541 12.6123 20.654 12.2219 20.2635L8.66856 16.7093L4.63033 20.7475C4.33744 21.0404 3.86256 21.0404 3.56967 20.7475C3.27678 20.4546 3.27678 19.9798 3.56967 19.6869L7.6079 15.6486L3.73678 11.7784C3.34628 11.3879 3.34613 10.7549 3.73645 10.3643L4.44376 9.65649L7.98076 8.94949L12.2228 4.70749L11.5162 4.0009L12.2226 3.29314C12.229 3.28671 12.2355 3.28038 12.2421 3.27416C12.3669 3.15579 12.5147 3.07575 12.6706 3.03404C13.0044 2.94478 13.3753 3.03107 13.6371 3.29293L20.7075 10.3641C20.9693 10.626 21.0556 10.997 20.9663 11.3307C20.9245 11.4866 20.8445 11.6343 20.7262 11.7591C20.72 11.7656 20.7136 11.7721 20.7072 11.7786L19.9998 12.4855L19.2928 11.7785ZM12.962 18.8167L12.9293 18.8494L5.15083 11.071L5.1835 11.0383L8.72021 10.3314L13.6372 5.41442L18.586 10.3639L13.6689 15.281L12.962 18.8167Z" fill="black"/>
</svg>
