<svg width="24" height="24" viewBox="0 0 24 24" fill="none" xmlns="http://www.w3.org/2000/svg">
<path d="M12 2.25C14.6234 2.25 16.75 4.37665 16.75 7V8.25195C17.3457 8.25627 17.8614 8.2718 18.2949 8.33008C18.9225 8.41451 19.489 8.60031 19.9443 9.05566C20.3997 9.51102 20.5855 10.0775 20.6699 10.7051C20.7514 11.3113 20.75 12.0784 20.75 13V15C20.75 16.3929 20.7519 17.5131 20.6338 18.3916C20.5128 19.2917 20.2533 20.0495 19.6514 20.6514C19.0495 21.2533 18.2917 21.5128 17.3916 21.6338C16.5131 21.7519 15.3929 21.75 14 21.75H10C8.60709 21.75 7.4869 21.7519 6.6084 21.6338C5.70829 21.5128 4.95055 21.2533 4.34863 20.6514C3.74672 20.0495 3.48723 19.2917 3.36621 18.3916C3.24812 17.5131 3.25 16.3929 3.25 15V13C3.25 12.0784 3.24857 11.3113 3.33008 10.7051C3.41451 10.0775 3.60031 9.51102 4.05566 9.05566C4.51102 8.60031 5.07747 8.41451 5.70508 8.33008C6.13857 8.2718 6.65432 8.25627 7.25 8.25195V7C7.25002 4.37668 9.37665 2.25 12 2.25ZM8 9.75C7.03599 9.75 6.38831 9.75146 5.90527 9.81641C5.44389 9.87845 5.24652 9.9859 5.11621 10.1162C4.9859 10.2465 4.87845 10.4439 4.81641 10.9053C4.75146 11.3883 4.75 12.036 4.75 13V15C4.75 16.4352 4.75202 17.4361 4.85352 18.1914C4.95217 18.9252 5.13242 19.3141 5.40918 19.5908C5.68594 19.8676 6.07482 20.0478 6.80859 20.1465C7.56389 20.248 8.56485 20.25 10 20.25H14C15.4351 20.25 16.4361 20.248 17.1914 20.1465C17.9252 20.0478 18.3141 19.8676 18.5908 19.5908C18.8676 19.3141 19.0478 18.9252 19.1465 18.1914C19.248 17.4361 19.25 16.4352 19.25 15V13C19.25 12.036 19.2485 11.3883 19.1836 10.9053C19.1215 10.4439 19.0141 10.2465 18.8838 10.1162C18.7535 9.98591 18.5561 9.87845 18.0947 9.81641C17.6117 9.75146 16.964 9.75 16 9.75H8ZM12 13C13.1046 13 14 13.8954 14 15C14 16.1046 13.1046 17 12 17C10.8954 17 10 16.1046 10 15C10 13.8954 10.8954 13 12 13ZM12 14.5C11.7239 14.5 11.5 14.7239 11.5 15C11.5 15.2761 11.7239 15.5 12 15.5C12.2761 15.5 12.5 15.2761 12.5 15C12.5 14.7239 12.2761 14.5 12 14.5ZM12 3.75C10.2051 3.75 8.75002 5.20508 8.75 7V8.25H15.25V7C15.25 5.20507 13.7949 3.75 12 3.75Z" fill="black"/>
</svg>
