<svg width="24" height="24" viewBox="0 0 24 24" fill="none" xmlns="http://www.w3.org/2000/svg">
<path d="M11.9985 18.4618L14.5447 15.9155C14.6934 15.7668 14.8726 15.6908 15.0822 15.6875C15.2917 15.6843 15.4741 15.7603 15.6292 15.9155C15.7844 16.0707 15.862 16.2514 15.862 16.4578C15.862 16.6643 15.7844 16.845 15.6292 17L12.6312 19.9983C12.5376 20.0918 12.4388 20.1578 12.335 20.1963C12.2312 20.2348 12.119 20.254 11.9985 20.254C11.878 20.254 11.7658 20.2348 11.662 20.1963C11.5582 20.1578 11.4594 20.0918 11.3657 19.9983L8.36774 17C8.21908 16.8513 8.14308 16.6722 8.13974 16.4625C8.13658 16.253 8.21258 16.0707 8.36774 15.9155C8.52291 15.7603 8.70366 15.6828 8.90999 15.6828C9.11649 15.6828 9.29724 15.7603 9.45224 15.9155L11.9985 18.4618ZM11.9985 5.59225L9.45224 8.1385C9.30358 8.28717 9.12441 8.36317 8.91474 8.3665C8.70524 8.36967 8.52291 8.29367 8.36774 8.1385C8.21258 7.98334 8.13499 7.80259 8.13499 7.59625C8.13499 7.38992 8.21258 7.20917 8.36774 7.054L11.3657 4.056C11.4594 3.96234 11.5582 3.89625 11.662 3.85775C11.7658 3.81925 11.878 3.8 11.9985 3.8C12.119 3.8 12.2312 3.81925 12.335 3.85775C12.4388 3.89625 12.5376 3.96234 12.6312 4.056L15.6292 7.054C15.7779 7.20267 15.8539 7.38184 15.8572 7.5915C15.8604 7.801 15.7844 7.98334 15.6292 8.1385C15.4741 8.29367 15.2933 8.37125 15.087 8.37125C14.8805 8.37125 14.6997 8.29367 14.5447 8.1385L11.9985 5.59225Z" fill="black"/>
</svg>
