<svg width="24" height="24" viewBox="0 0 24 24" fill="none" xmlns="http://www.w3.org/2000/svg">
<path fill-rule="evenodd" clip-rule="evenodd" d="M10.0087 21.1605C10.2567 21.3868 10.5512 21.5 10.8922 21.5H13.1077C13.4487 21.5 13.7432 21.3868 13.9912 21.1605C14.2394 20.9343 14.3904 20.6558 14.4442 20.325L14.6885 18.4443C14.959 18.3481 15.2231 18.224 15.4807 18.072C15.7384 17.9202 15.991 17.7455 16.2385 17.548L17.95 18.2845C18.2642 18.423 18.5815 18.4365 18.902 18.325C19.2225 18.2135 19.4705 18.0109 19.646 17.7172L20.7787 15.773C20.9544 15.4795 21.0035 15.1689 20.926 14.8413C20.8483 14.5138 20.6762 14.2436 20.4095 14.0308L18.902 12.8963C18.9417 12.7154 18.9647 12.5548 18.971 12.4145C18.9775 12.274 18.9807 12.1358 18.9807 12C18.9807 11.8577 18.9792 11.7163 18.976 11.576C18.9727 11.4355 18.9531 11.2845 18.9172 11.123L20.4537 9.96925C20.7204 9.75642 20.8909 9.48625 20.9652 9.15875C21.0397 8.83108 20.9892 8.5205 20.8135 8.227L19.696 6.29225C19.5205 6.00508 19.2741 5.80417 18.9567 5.6895C18.6394 5.57467 18.3237 5.5865 18.0097 5.725L16.2385 6.452C15.991 6.2545 15.7457 6.083 15.5027 5.9375C15.2599 5.792 14.9885 5.66475 14.6885 5.55575L14.4442 3.675C14.3904 3.34417 14.2394 3.06567 13.9912 2.8395C13.7432 2.61317 13.4487 2.5 13.1077 2.5H10.8922C10.5512 2.5 10.2567 2.61317 10.0087 2.8395C9.76058 3.06567 9.60958 3.34417 9.55574 3.675L9.30199 5.54625C9.03783 5.64242 8.76891 5.76967 8.49524 5.928C8.22158 6.08633 7.96416 6.261 7.72299 6.452L5.99999 5.725C5.68583 5.5865 5.37016 5.57467 5.05299 5.6895C4.73566 5.80417 4.48916 6.00508 4.31349 6.29225L3.19624 8.21725C3.02058 8.51092 2.96833 8.82308 3.03949 9.15375C3.11066 9.48458 3.27958 9.75642 3.54624 9.96925L5.04424 11.0943C5.02124 11.2686 5.00491 11.4292 4.99524 11.576C4.98558 11.7228 4.98074 11.8673 4.98074 12.0095C4.98074 12.1583 4.98558 12.3078 4.99524 12.4578C5.00491 12.6077 5.02124 12.7571 5.04424 12.9058L3.54624 14.0308C3.27958 14.2436 3.10908 14.5138 3.03474 14.8413C2.96024 15.1689 3.01083 15.4795 3.18649 15.773L4.31349 17.727C4.48916 18.0205 4.73566 18.223 5.05299 18.3345C5.37016 18.4462 5.68583 18.4328 5.99999 18.2943L7.73274 17.5577C7.95458 17.7422 8.20616 17.9153 8.48749 18.077C8.76899 18.2385 9.04366 18.3641 9.31149 18.4538L9.55574 20.325C9.60958 20.6558 9.76058 20.9343 10.0087 21.1605ZM12.9655 20H11L10.675 17.3307C10.152 17.1974 9.67441 17.0064 9.24224 16.7578C8.81024 16.5089 8.40449 16.1897 8.02499 15.8L5.54999 16.85L4.56549 15.15L6.71549 13.5155C6.63849 13.2718 6.58333 13.025 6.54999 12.775C6.51666 12.525 6.49999 12.2698 6.49999 12.0095C6.49999 11.7262 6.51666 11.4563 6.54999 11.2C6.58333 10.9437 6.64166 10.6968 6.72499 10.4595L4.56549 8.85L5.54999 7.15L8.03449 8.1845C8.42683 7.79233 8.83908 7.47183 9.27124 7.223C9.70324 6.97433 10.1743 6.78975 10.6845 6.66925L11.0155 4H13L13.3155 6.67875C13.7937 6.79292 14.2664 6.98717 14.7337 7.2615C15.2009 7.53583 15.6018 7.85183 15.9365 8.2095L18.45 7.15L19.4345 8.85L17.2462 10.5038C17.3296 10.7564 17.3862 11.0039 17.4162 11.2463C17.4464 11.4884 17.4615 11.7397 17.4615 12C17.4615 12.2538 17.4464 12.5051 17.4162 12.7537C17.3862 13.0026 17.3296 13.2565 17.2462 13.5155L19.4155 15.15L18.4307 16.85L15.9462 15.8057C15.5539 16.1916 15.1465 16.5073 14.724 16.753C14.3017 16.9985 13.8353 17.1879 13.325 17.3212L12.9655 20ZM14.1355 14.124C13.5515 14.708 12.8435 15 12.0115 15C11.1692 15 10.4586 14.708 9.87974 14.124C9.30091 13.54 9.01149 12.832 9.01149 12C9.01149 11.168 9.30091 10.46 9.87974 9.876C10.4586 9.292 11.1692 9 12.0115 9C12.8435 9 13.5515 9.292 14.1355 9.876C14.7195 10.46 15.0115 11.168 15.0115 12C15.0115 12.832 14.7195 13.54 14.1355 14.124ZM12 13.5C12.8284 13.5 13.5 12.8284 13.5 12C13.5 11.1716 12.8284 10.5 12 10.5C11.1716 10.5 10.5 11.1716 10.5 12C10.5 12.8284 11.1716 13.5 12 13.5Z" fill="black"/>
</svg>
