<svg width="24" height="24" viewBox="0 0 24 24" fill="none" xmlns="http://www.w3.org/2000/svg">
<path fill-rule="evenodd" clip-rule="evenodd" d="M19.203 3.30832C19.4004 3.1109 19.6682 3 19.9473 3C20.2265 3 20.4943 3.1109 20.6917 3.30832C20.8891 3.50573 21 3.77347 21 4.05265C21 4.33183 20.8891 4.59958 20.6917 4.79699L12.7657 12.723L10.7808 13.2192L11.277 11.2343L19.203 3.30832ZM19.9473 1.5C19.2703 1.5 18.621 1.76894 18.1423 2.24765L10.0694 10.3206C9.97332 10.4167 9.90513 10.5371 9.87216 10.669L9.02238 14.0681C8.95848 14.3237 9.03337 14.594 9.21966 14.7803C9.40594 14.9666 9.67631 15.0415 9.93189 14.9776L13.331 14.1278C13.4629 14.0949 13.5833 14.0267 13.6794 13.9306L21.7523 5.85765C22.231 5.37894 22.5 4.72966 22.5 4.05265C22.5 3.37565 22.231 2.72637 21.7523 2.24765C21.2736 1.76894 20.6243 1.5 19.9473 1.5ZM5.66634 3C4.9812 3 4.32412 3.27217 3.83965 3.75664C3.35518 4.24111 3.08301 4.89819 3.08301 5.58333V18.4167C3.08301 19.1018 3.35518 19.7589 3.83965 20.2434C4.32412 20.7278 4.9812 21 5.66634 21H18.4997C19.1848 21 19.8419 20.7278 20.3264 20.2434C20.8108 19.7589 21.083 19.1018 21.083 18.4167V12C21.083 11.5858 20.7472 11.25 20.333 11.25C19.9188 11.25 19.583 11.5858 19.583 12V18.4167C19.583 18.704 19.4689 18.9795 19.2657 19.1827C19.0625 19.3859 18.787 19.5 18.4997 19.5H5.66634C5.37902 19.5 5.10347 19.3859 4.90031 19.1827C4.69714 18.9795 4.58301 18.704 4.58301 18.4167V5.58333C4.58301 5.29602 4.69714 5.02047 4.90031 4.8173C5.10347 4.61414 5.37902 4.5 5.66634 4.5H12.083C12.4972 4.5 12.833 4.16421 12.833 3.75C12.833 3.33579 12.4972 3 12.083 3H5.66634Z" fill="black"/>
</svg>
