<svg width="24" height="24" viewBox="0 0 24 24" fill="none" xmlns="http://www.w3.org/2000/svg">
<path fill-rule="evenodd" clip-rule="evenodd" d="M11.25 19.3333C11.25 18.9191 11.5858 18.5833 12 18.5833H20.25C20.6642 18.5833 21 18.9191 21 19.3333C21 19.7476 20.6642 20.0833 20.25 20.0833H12C11.5858 20.0833 11.25 19.7476 11.25 19.3333Z" fill="black"/>
<path fill-rule="evenodd" clip-rule="evenodd" d="M17.5 4.38879C17.1832 4.38879 16.8794 4.51465 16.6553 4.73867L5.34389 16.0501L4.78078 18.3026L7.03323 17.7394L18.3447 6.42801C18.4556 6.31708 18.5436 6.1854 18.6036 6.04047C18.6636 5.89554 18.6945 5.74021 18.6945 5.58334C18.6945 5.42647 18.6636 5.27113 18.6036 5.12621C18.5436 4.98128 18.4556 4.84959 18.3447 4.73867C18.2337 4.62774 18.1021 4.53975 17.9571 4.47972C17.8122 4.41969 17.6569 4.38879 17.5 4.38879ZM15.5947 3.67801C16.1 3.17268 16.7854 2.88879 17.5 2.88879C17.8539 2.88879 18.2042 2.95849 18.5312 3.0939C18.8581 3.22932 19.1551 3.4278 19.4053 3.67801C19.6555 3.92822 19.854 4.22526 19.9894 4.55218C20.1248 4.8791 20.1945 5.22948 20.1945 5.58334C20.1945 5.93719 20.1248 6.28758 19.9894 6.61449C19.854 6.94141 19.6555 7.23846 19.4053 7.48867L7.947 18.947C7.85088 19.0431 7.73044 19.1113 7.59857 19.1443L3.9319 20.0609C3.67632 20.1248 3.40596 20.05 3.21967 19.8637C3.03339 19.6774 2.9585 19.407 3.02239 19.1514L3.93906 15.4848C3.97203 15.3529 4.04022 15.2325 4.13634 15.1363L15.5947 3.67801Z" fill="black"/>
</svg>
