<svg width="24" height="24" viewBox="0 0 24 24" fill="none" xmlns="http://www.w3.org/2000/svg">
<path d="M3.75 14C4.16421 14 4.5 14.3358 4.5 14.75V18.4167C4.5 18.704 4.61414 18.9795 4.8173 19.1827C5.02047 19.3859 5.29602 19.5 5.58333 19.5H18.4167C18.704 19.5 18.9795 19.3859 19.1827 19.1827C19.3859 18.9795 19.5 18.704 19.5 18.4167V14.75C19.5 14.3358 19.8358 14 20.25 14C20.6642 14 21 14.3358 21 14.75V18.4167C21 19.1018 20.7278 19.7589 20.2434 20.2434C19.7589 20.7278 19.1018 21 18.4167 21H5.58333C4.89819 21 4.24111 20.7278 3.75664 20.2434C3.27217 19.7589 3 19.1018 3 18.4167V14.75C3 14.3358 3.33579 14 3.75 14Z" fill="black"/>
<path d="M12.75 14.75C12.75 15.1642 12.4142 15.5 12 15.5C11.5858 15.5 11.25 15.1642 11.25 14.75V5.56065L7.94699 8.86366C7.65409 9.15655 7.17922 9.15655 6.88633 8.86366C6.59343 8.57077 6.59343 8.09589 6.88633 7.803L11.4697 3.21966C11.5434 3.14588 11.6288 3.09068 11.7198 3.05407C11.7951 3.02375 11.8764 3.00529 11.9614 3.00098C11.9742 3.00033 11.987 3 12 3C12.0135 3 12.0268 3.00035 12.0401 3.00105C12.2185 3.01055 12.3941 3.08343 12.5303 3.21966L17.1137 7.803C17.4065 8.09589 17.4065 8.57077 17.1137 8.86366C16.8208 9.15655 16.3459 9.15655 16.053 8.86366L12.75 5.56066V14.75Z" fill="black"/>
</svg>
