<svg width="24" height="24" viewBox="0 0 24 24" fill="none" xmlns="http://www.w3.org/2000/svg">
<path d="M12.0066 13.3877C15.3129 13.3877 19.9552 15.3096 20.4792 20.0586C20.5337 20.5545 20.1227 20.9609 19.6237 20.9609H4.39034L4.29757 20.957C3.84144 20.9106 3.48374 20.5236 3.53487 20.0586C4.05883 15.3097 8.70025 13.3878 12.0066 13.3877ZM12.0066 14.8877C10.6091 14.8878 8.91552 15.3013 7.54952 16.1963C6.41005 16.9429 5.52185 18.0033 5.16183 19.4609H18.8513C18.4913 18.0034 17.6039 16.9429 16.4646 16.1963C15.0984 15.3012 13.4041 14.8877 12.0066 14.8877ZM15.2409 7.2334C15.2408 5.44761 13.7924 4 12.0066 4C10.2209 4.00017 8.77332 5.44772 8.77316 7.2334C8.77316 9.01922 10.2208 10.4676 12.0066 10.4678C13.7925 10.4678 15.2409 9.01932 15.2409 7.2334ZM16.7341 7.47754C16.6072 9.97856 14.5391 11.9678 12.0066 11.9678C9.39235 11.9676 7.27316 9.84764 7.27316 7.2334C7.27332 4.61929 9.39245 2.50017 12.0066 2.5C14.6208 2.5 16.7408 4.61919 16.7409 7.2334L16.7341 7.47754Z" fill="black"/>
</svg>
