<svg width="24" height="24" viewBox="0 0 24 24" fill="none" xmlns="http://www.w3.org/2000/svg">
<path d="M12.249 2.50002C13.5202 2.4974 14.7786 2.75741 15.9447 3.26383C17.1107 3.77034 18.1599 4.51293 19.026 5.44387C19.8921 6.37501 20.5569 7.4757 20.9782 8.67578C21.3995 9.87586 21.5689 11.1501 21.475 12.4186C21.2999 14.5926 20.3691 16.637 18.8443 18.1959C17.3195 19.7547 15.2961 20.7299 13.1273 20.952C11.8259 21.0769 10.5125 20.9234 9.27508 20.5014C8.97879 20.4083 8.66002 20.4084 8.36372 20.5014L7.04586 20.8767C6.36795 21.0715 5.6443 21.035 4.98929 20.7734C4.33439 20.5117 3.78489 20.0396 3.42753 19.4314C3.21065 19.0491 3.07272 18.6266 3.02304 18.1898C2.97337 17.7531 3.01295 17.3103 3.13847 16.8891L3.51987 15.5531C3.59473 15.2669 3.58205 14.9646 3.48274 14.6859C3.06781 13.4591 2.91778 12.158 3.04312 10.8689C3.26679 8.69823 4.24386 6.67446 5.80429 5.14979C7.36459 3.62539 9.40953 2.69561 11.5836 2.5231C11.8032 2.5 12.0266 2.50002 12.249 2.50002ZM12.249 4.0417C12.0122 4.0417 11.8705 4.04358 11.7452 4.05676L11.7251 4.05876L11.705 4.05977C9.89076 4.20378 8.18382 4.9802 6.88126 6.25285C5.5811 7.52334 4.76534 9.2089 4.57677 11.0174C4.47257 12.0891 4.59804 13.1718 4.94312 14.1921C5.13936 14.7574 5.16218 15.3671 5.01137 15.9436L5.00635 15.9596L5.00234 15.9767L4.62093 17.3126L4.61792 17.3206L4.61591 17.3297C4.54951 17.5527 4.52869 17.7861 4.55469 18.0152C4.58054 18.2425 4.6525 18.4637 4.76546 18.6646C4.94963 18.9709 5.229 19.2093 5.5614 19.3421C5.89864 19.4767 6.27138 19.4955 6.6203 19.3953L6.62331 19.3943L7.94116 19.0189C8.45214 18.8659 8.99337 18.8488 9.51095 18.9687L9.73678 19.0309L9.75485 19.036L9.77291 19.042C10.8014 19.3927 11.8926 19.5205 12.9747 19.4174C14.7833 19.231 16.4706 18.4179 17.7423 17.1179C19.0128 15.8189 19.7892 14.1158 19.9374 12.3042C20.0155 11.2479 19.8739 10.1867 19.5228 9.18666C19.1718 8.18668 18.6183 7.26936 17.8968 6.49374C17.1752 5.71812 16.3013 5.0998 15.3304 4.67805C14.3591 4.25622 13.3109 4.0395 12.252 4.0417H12.249Z" fill="#030712"/>
<path d="M12.9557 8.25147C13.5364 7.9243 14.2114 7.81785 14.8627 7.95337C15.5133 8.08888 16.0917 8.45578 16.5027 8.98216C16.9128 9.50751 17.1328 10.1607 17.1321 10.829L17.124 11.0347C17.0862 11.5123 16.9221 11.9791 16.7115 12.4048C16.4678 12.8973 16.1378 13.3823 15.7821 13.833C15.0712 14.734 14.2058 15.5632 13.5609 16.1295L13.5599 16.1285C13.1986 16.45 12.7341 16.6323 12.2481 16.6323C11.759 16.6322 11.2918 16.4487 10.9302 16.1245C10.2881 15.5587 9.42649 14.7311 8.71806 13.833C8.36257 13.3824 8.03238 12.8973 7.78864 12.4048C7.54789 11.9183 7.36811 11.3778 7.36809 10.829V10.827L7.37913 10.578C7.42808 9.99973 7.64172 9.4439 8.00042 8.98618C8.41149 8.46176 8.98917 8.09752 9.63745 7.9624C10.2864 7.82722 10.9594 7.93242 11.5395 8.25749L11.7502 8.38797C11.9327 8.51261 12.0978 8.65924 12.2461 8.82157C12.4499 8.59642 12.6881 8.40234 12.9557 8.25147ZM14.5485 9.46293C14.301 9.41141 14.0443 9.43976 13.8108 9.54523L13.7125 9.59442C13.4526 9.7409 13.2408 9.9832 13.1223 10.286L13.1112 10.3141L13.0982 10.3412C13.0233 10.496 12.9069 10.6298 12.7589 10.7256L12.7579 10.7266C12.6128 10.8202 12.4365 10.8771 12.2481 10.8771C12.0569 10.8768 11.8817 10.8177 11.7402 10.7266C11.5906 10.63 11.4733 10.4948 11.3989 10.3412L11.3869 10.3161L11.3769 10.289C11.2576 9.98777 11.0451 9.74689 10.7857 9.60144C10.5281 9.45717 10.2339 9.41316 9.9516 9.47196C9.66858 9.53107 9.40626 9.69223 9.21389 9.93768C9.02045 10.1846 8.91054 10.5004 8.90977 10.831C8.91025 11.0536 8.98753 11.3511 9.17073 11.7213C9.35154 12.0866 9.61379 12.4795 9.92852 12.8785C10.4009 13.4773 10.9627 14.0539 11.4702 14.5306L11.955 14.9712L11.96 14.9762L12.0273 15.0264C12.0971 15.0695 12.1734 15.0906 12.2481 15.0907C12.3483 15.0907 12.4515 15.0531 12.5371 14.9762L12.5432 14.9712C13.1521 14.4365 13.9415 13.6761 14.5716 12.8775C14.8863 12.4786 15.1487 12.0865 15.3294 11.7213C15.5131 11.35 15.5904 11.0518 15.5904 10.829C15.5909 10.4972 15.4819 10.1787 15.2883 9.93065C15.0954 9.68371 14.8321 9.52205 14.5485 9.46293Z" fill="#030712"/>
</svg>
