<svg width="24" height="24" viewBox="0 0 24 24" fill="none" xmlns="http://www.w3.org/2000/svg">
<path fill-rule="evenodd" clip-rule="evenodd" d="M16.4167 2.83334C16.4167 2.41912 16.0809 2.08334 15.6667 2.08334C15.2525 2.08334 14.9167 2.41912 14.9167 2.83334V3.91666H9.08333V2.83334C9.08333 2.41912 8.74755 2.08334 8.33333 2.08334C7.91912 2.08334 7.58333 2.41912 7.58333 2.83334V3.91666H5.58333C4.1566 3.91666 3 5.07326 3 6.5V19.3333C3 20.7601 4.1566 21.9167 5.58333 21.9167H18.4167C19.8434 21.9167 21 20.7601 21 19.3333V6.5C21 5.07326 19.8434 3.91666 18.4167 3.91666H16.4167V2.83334ZM19.5 9.41666V6.5C19.5 5.90169 19.015 5.41666 18.4167 5.41666H16.4167V6.5C16.4167 6.91422 16.0809 7.25 15.6667 7.25C15.2525 7.25 14.9167 6.91422 14.9167 6.5V5.41666H9.08333V6.5C9.08333 6.91422 8.74755 7.25 8.33333 7.25C7.91912 7.25 7.58333 6.91422 7.58333 6.5V5.41666H5.58333C4.98502 5.41666 4.5 5.90169 4.5 6.5V9.41666H19.5ZM4.5 10.9167H19.5V19.3333C19.5 19.9316 19.015 20.4167 18.4167 20.4167H5.58333C4.98502 20.4167 4.5 19.9316 4.5 19.3333V10.9167Z" fill="black"/>
</svg>
