<svg width="24" height="24" viewBox="0 0 24 24" fill="none" xmlns="http://www.w3.org/2000/svg">
<path fill-rule="evenodd" clip-rule="evenodd" d="M18.1 3.5C19.4255 3.5 20.5 4.57452 20.5 5.9V18.1C20.5 19.4255 19.4255 20.5 18.1 20.5H5.9C4.57452 20.5 3.5 19.4255 3.5 18.1V5.9C3.5 4.57452 4.57452 3.5 5.9 3.5H18.1ZM16.25 5H18.1C18.5971 5 19 5.40294 19 5.9V18.1C19 18.5971 18.5971 19 18.1 19H5.9C5.40294 19 5 18.5971 5 18.1V5.9C5 5.40294 5.40294 5 5.9 5H7.75V12.983C7.75 13.7893 8.62095 14.2947 9.32095 13.8947L12 12.3638L14.6791 13.8947C15.379 14.2947 16.25 13.7893 16.25 12.983V5ZM9.25 5H14.75V12.2076L12.5209 10.9339C12.1981 10.7494 11.8019 10.7494 11.4791 10.9339L9.25 12.2076V5Z" fill="black"/>
</svg>
