<svg width="24" height="24" viewBox="0 0 24 24" fill="none" xmlns="http://www.w3.org/2000/svg">
<path d="M16.3658 17.4342V19.3158C16.3658 19.4388 16.4074 19.5419 16.4907 19.6251C16.574 19.7084 16.6771 19.75 16.8001 19.75C16.9233 19.75 17.0264 19.7084 17.1095 19.6251C17.1926 19.5419 17.2342 19.4388 17.2342 19.3158V17.4342H19.1158C19.2388 17.4342 19.3419 17.3926 19.4251 17.3093C19.5084 17.226 19.55 17.1229 19.55 16.9999C19.55 16.8767 19.5084 16.7736 19.4251 16.6906C19.3419 16.6074 19.2388 16.5658 19.1158 16.5658H17.2342V14.6842C17.2342 14.5612 17.1926 14.4581 17.1093 14.3749C17.026 14.2916 16.9229 14.25 16.7999 14.25C16.6767 14.25 16.5736 14.2916 16.4906 14.3749C16.4074 14.4581 16.3658 14.5612 16.3658 14.6842V16.5658H14.4842C14.3612 16.5658 14.2581 16.6074 14.1749 16.6907C14.0916 16.774 14.05 16.8771 14.05 17.0001C14.05 17.1233 14.0916 17.2264 14.1749 17.3094C14.2581 17.3926 14.3612 17.4342 14.4842 17.4342H16.3658ZM16.801 22.5C16.0403 22.5 15.3252 22.3556 14.6559 22.0669C13.9865 21.7782 13.4043 21.3864 12.9092 20.8915C12.4141 20.3966 12.0221 19.8146 11.7332 19.1456C11.4444 18.4765 11.3 17.7617 11.3 17.001C11.3 16.2403 11.4444 15.5252 11.7331 14.8559C12.0218 14.1865 12.4136 13.6043 12.9085 13.1092C13.4034 12.6141 13.9854 12.2221 14.6544 11.9332C15.3235 11.6444 16.0383 11.5 16.799 11.5C17.5597 11.5 18.2748 11.6444 18.9441 11.9331C19.6135 12.2218 20.1957 12.6136 20.6908 13.1085C21.1859 13.6034 21.5779 14.1854 21.8668 14.8544C22.1556 15.5235 22.3 16.2383 22.3 16.999C22.3 17.7597 22.1557 18.4748 21.867 19.1441C21.5782 19.8135 21.1864 20.3957 20.6915 20.8908C20.1966 21.3859 19.6147 21.7779 18.9456 22.0668C18.2765 22.3556 17.5617 22.5 16.801 22.5Z" fill="#030712"/>
<path d="M19.25 11V10.5566C19.1487 8.78445 18.3999 7.11082 17.1445 5.85544C15.8889 4.59983 14.2149 3.85099 12.4424 3.74997H11.998C10.8739 3.74704 9.76506 4.00977 8.76169 4.51657L8.75876 4.51755C7.55474 5.1193 6.54197 6.04467 5.83395 7.18942C5.12597 8.33424 4.75054 9.65393 4.74997 11V11.0019C4.74704 12.126 5.00977 13.2349 5.51657 14.2383C5.59129 14.3862 5.61512 14.555 5.58395 14.7177L4.94333 18.0556L8.28219 17.416C8.44496 17.3848 8.61376 17.4087 8.76169 17.4834C9.24452 17.7272 9.75177 17.9145 10.2734 18.0429C10.6755 18.1419 10.921 18.5481 10.8222 18.9502C10.7232 19.3523 10.3171 19.5988 9.91501 19.5C9.36891 19.3655 8.83735 19.1738 8.32516 18.9345L4.14059 19.7363C3.89656 19.7829 3.64538 19.7059 3.46969 19.5302C3.29401 19.3546 3.21704 19.1034 3.26364 18.8593L4.06344 14.6787C3.52519 13.5275 3.24665 12.2709 3.24997 10.998C3.25091 9.37394 3.70433 7.78166 4.55856 6.40036C5.41304 5.01888 6.63485 3.90197 8.08786 3.17575C9.30081 2.56362 10.6413 2.24771 12 2.25095V2.24997H12.4707L12.5117 2.25095C14.6578 2.36934 16.6852 3.27508 18.205 4.79489C19.7249 6.31471 20.6306 8.34217 20.749 10.4883C20.7497 10.5019 20.75 10.5156 20.75 10.5293V11C20.75 11.4142 20.4142 11.75 20 11.75C19.5858 11.75 19.25 11.4142 19.25 11Z" fill="#030712"/>
</svg>
