<svg width="24" height="24" viewBox="0 0 24 24" fill="none" xmlns="http://www.w3.org/2000/svg">
<path d="M17.627 12.7582H4.25C4.03717 12.7582 3.859 12.6864 3.7155 12.5427C3.57183 12.3992 3.5 12.2211 3.5 12.0082C3.5 11.7954 3.57183 11.6172 3.7155 11.4737C3.859 11.3301 4.03717 11.2582 4.25 11.2582H17.627L11.4578 5.089C11.3091 4.94033 11.2357 4.76633 11.2375 4.567C11.2395 4.36766 11.318 4.19041 11.473 4.03525C11.6282 3.89041 11.8038 3.81541 12 3.81025C12.1962 3.80508 12.3718 3.88008 12.527 4.03525L19.8673 11.3755C19.9609 11.4692 20.0269 11.5679 20.0653 11.6717C20.1038 11.7756 20.123 11.8877 20.123 12.0082C20.123 12.1287 20.1038 12.2409 20.0653 12.3447C20.0269 12.4486 19.9609 12.5473 19.8673 12.641L12.527 19.9812C12.3885 20.1197 12.217 20.1906 12.0125 20.1937C11.808 20.1969 11.6282 20.1261 11.473 19.9812C11.318 19.8261 11.2405 19.6479 11.2405 19.4467C11.2405 19.2454 11.318 19.0672 11.473 18.912L17.627 12.7582Z" fill="black"/>
</svg>
