<svg width="24" height="24" viewBox="0 0 24 24" fill="none" xmlns="http://www.w3.org/2000/svg">
<path fill-rule="evenodd" clip-rule="evenodd" d="M1.83363 2.08341C1.41942 2.08341 1.08363 2.41919 1.08363 2.83341C1.08363 3.24762 1.41942 3.58341 1.83363 3.58341H4.5522L5.25905 7.11501C5.26248 7.13729 5.26688 7.15924 5.27222 7.18082L6.66477 14.1384C6.77535 14.6945 7.07795 15.194 7.51962 15.5495C7.95938 15.9036 8.50914 16.0924 9.07345 16.0834H17.1605C17.7248 16.0924 18.2745 15.9036 18.7143 15.5495C19.1561 15.1939 19.4588 14.6942 19.5693 14.1379L20.9037 7.14057C20.9456 6.92101 20.8873 6.69421 20.7448 6.52199C20.6024 6.34977 20.3905 6.25008 20.167 6.25008H6.61568L5.90238 2.68622C5.83222 2.3357 5.52444 2.08341 5.16697 2.08341H1.83363ZM8.13593 13.8456L6.91591 7.75008H19.2604L18.098 13.8456L18.0975 13.848C18.0552 14.0581 17.9407 14.2467 17.7737 14.3811C17.6061 14.516 17.3964 14.5877 17.1813 14.5835L17.167 14.5834H9.06697L9.0526 14.5835C8.8375 14.5877 8.6278 14.516 8.46022 14.3811C8.29264 14.2462 8.17784 14.0566 8.13593 13.8456ZM10.833 19.4999C10.833 20.7886 9.78836 21.8333 8.4997 21.8333C7.21104 21.8333 6.16637 20.7886 6.16637 19.4999C6.16637 18.2113 7.21104 17.1666 8.4997 17.1666C9.78836 17.1666 10.833 18.2113 10.833 19.4999ZM9.33303 19.4999C9.33303 19.9602 8.95994 20.3333 8.4997 20.3333C8.03946 20.3333 7.66637 19.9602 7.66637 19.4999C7.66637 19.0397 8.03946 18.6666 8.4997 18.6666C8.95994 18.6666 9.33303 19.0397 9.33303 19.4999ZM20.0003 19.4999C20.0003 20.7886 18.9556 21.8333 17.667 21.8333C16.3783 21.8333 15.3336 20.7886 15.3336 19.4999C15.3336 18.2113 16.3783 17.1666 17.667 17.1666C18.9556 17.1666 20.0003 18.2113 20.0003 19.4999ZM18.5003 19.4999C18.5003 19.9602 18.1272 20.3333 17.667 20.3333C17.2067 20.3333 16.8336 19.9602 16.8336 19.4999C16.8336 19.0397 17.2067 18.6666 17.667 18.6666C18.1272 18.6666 18.5003 19.0397 18.5003 19.4999Z" fill="black"/>
</svg>
