<svg width="24" height="24" viewBox="0 0 24 24" fill="none" xmlns="http://www.w3.org/2000/svg">
<path fill-rule="evenodd" clip-rule="evenodd" d="M6.5 2.5H17.5C18.0523 2.5 18.5 2.94772 18.5 3.5V20.5C18.5 21.0523 18.0523 21.5 17.5 21.5H6.5C5.94772 21.5 5.5 21.0523 5.5 20.5V3.5C5.5 2.94772 5.94772 2.5 6.5 2.5ZM4 3.5C4 2.11929 5.11929 1 6.5 1H17.5C18.8807 1 20 2.11929 20 3.5V20.5C20 21.8807 18.8807 23 17.5 23H6.5C5.11929 23 4 21.8807 4 20.5V3.5ZM12.1641 8.94347C12.1077 8.79113 11.8923 8.79113 11.8359 8.94347L11.0826 10.9792C11.0649 11.0271 11.0271 11.0649 10.9792 11.0826L8.94347 11.8359C8.79114 11.8923 8.79114 12.1077 8.94347 12.1641L10.9792 12.9174C11.0271 12.9351 11.0649 12.9729 11.0826 13.0208L11.8359 15.0565C11.8923 15.2089 12.1077 15.2089 12.1641 15.0565L12.9174 13.0208C12.9351 12.9729 12.9729 12.9351 13.0208 12.9174L15.0565 12.1641C15.2089 12.1077 15.2089 11.8923 15.0565 11.8359L13.0208 11.0826C12.9729 11.0649 12.9351 11.0271 12.9174 10.9792L12.1641 8.94347Z" fill="black"/>
</svg>
