<svg width="24" height="24" viewBox="0 0 24 24" fill="none" xmlns="http://www.w3.org/2000/svg">
<path fill-rule="evenodd" clip-rule="evenodd" d="M18.5747 8.57715C18.6722 9.07099 18.726 9.61449 18.726 10.2129C18.7261 12.0158 18.9265 12.9945 19.2153 13.6611C19.5066 14.3336 19.9028 14.7409 20.5102 15.4492C20.9563 15.9702 20.9866 16.6504 20.7045 17.1807C20.4232 17.7089 19.8555 18.0593 19.1791 18.0596H15.8657C15.8502 18.9703 15.4647 19.8335 14.7993 20.4678C14.1211 21.1139 13.2076 21.4715 12.2631 21.4717C11.3187 21.4716 10.4053 21.1138 9.727 20.4678C9.16015 19.9276 8.79684 19.2212 8.69185 18.4609L10.5737 16.5801H19.1791C19.2588 16.58 19.3103 16.5615 19.3403 16.5439C19.3716 16.5255 19.3896 16.5026 19.3989 16.4854C19.408 16.468 19.4091 16.4552 19.4086 16.4502L19.3881 16.4121C18.8461 15.7801 18.2597 15.1765 17.8579 14.249C17.4535 13.3156 17.2476 12.105 17.2475 10.2129C17.2475 10.1098 17.2452 10.0092 17.2417 9.91113L18.5747 8.57715ZM12.2631 2.25C13.6376 2.25042 14.5908 3.28207 14.9292 4.33203C14.9334 4.33607 14.9378 4.34132 14.9428 4.34473L14.9497 4.34863L15.2602 4.47656C15.8498 4.73531 16.4895 5.10538 17.06 5.66406L18.7299 3.99902C19.0493 3.67997 19.5668 3.68084 19.8862 4C20.2054 4.31946 20.2055 4.8369 19.8862 5.15625L4.49556 20.5117C4.17619 20.8308 3.65867 20.8308 3.33931 20.5117C3.02024 20.1924 3.02024 19.6748 3.33931 19.3555L4.7397 17.957C4.33891 17.8175 4.0135 17.5431 3.82075 17.1836C3.53562 16.6514 3.5687 15.9708 4.01606 15.4492C4.62325 14.7412 5.0194 14.3336 5.31099 13.6611C5.60005 12.9943 5.80012 12.015 5.80122 10.2119C5.80131 8.37807 6.29584 7.05982 7.05708 6.11133C7.80962 5.17405 8.7699 4.66591 9.57856 4.34863C9.57941 4.34791 9.58268 4.34519 9.58638 4.34277C9.59103 4.33966 9.59544 4.33531 9.59907 4.33203C9.93567 3.28052 10.8897 2.2501 12.2631 2.25ZM10.1401 18.0596C10.1553 18.5554 10.3671 19.035 10.7475 19.3975C11.1437 19.7746 11.6884 19.9931 12.2631 19.9932C12.8379 19.993 13.3827 19.7748 13.7788 19.3975C14.1591 19.035 14.371 18.5554 14.3862 18.0596H10.1401ZM12.2631 3.72852C11.7025 3.72862 11.194 4.16916 11.0004 4.80273L10.9995 4.80469C10.8594 5.25923 10.4786 5.58181 10.1167 5.72363L10.1176 5.72461C9.43175 5.99372 8.73656 6.38053 8.20942 7.03711C7.69132 7.68283 7.27974 8.65988 7.27974 10.2129C7.27858 12.1052 7.07206 13.3156 6.66743 14.249C6.26537 15.1764 5.68014 15.7801 5.13813 16.4121C5.11834 16.4352 5.1159 16.4497 5.11567 16.4521C5.11529 16.4566 5.11576 16.468 5.12446 16.4844C5.13881 16.511 5.19476 16.5799 5.35103 16.5801H6.12056L16.0131 6.70898C15.5361 6.24636 14.9702 5.94454 14.4096 5.72461C14.0438 5.5809 13.6679 5.25294 13.5288 4.80664L13.5278 4.80469C13.3318 4.16951 12.8236 3.72895 12.2631 3.72852Z" fill="black"/>
</svg>
