<svg width="24" height="24" viewBox="0 0 24 24" fill="none" xmlns="http://www.w3.org/2000/svg">
<path fill-rule="evenodd" clip-rule="evenodd" d="M11.9423 19.2103V4.83159L7.68419 9.08973C7.54353 9.23038 7.35277 9.3094 7.15386 9.3094H3.92252C3.88545 9.59391 3.85165 9.94445 3.82391 10.3219C3.77479 10.9905 3.75 11.6616 3.75 12.0217C3.74966 12.3723 3.77341 13.0385 3.82209 13.7073C3.84983 14.0884 3.88398 14.4437 3.92186 14.7325H7.15386C7.35277 14.7325 7.54353 14.8115 7.68419 14.9522L11.9423 19.2103ZM12.5518 3.35972C12.2884 3.25066 11.9986 3.2221 11.719 3.27764C11.4394 3.33319 11.1822 3.47068 10.9805 3.67214L6.8432 7.8094H3.29724C2.95967 7.8094 2.6637 8.03491 2.57412 8.36038C2.45465 8.79445 2.37726 9.54079 2.32794 10.212C2.27693 10.9064 2.25002 11.6145 2.25 12.0206C2.24963 12.4172 2.27547 13.1213 2.32605 13.8162C2.37498 14.4885 2.45252 15.2392 2.57399 15.6812C2.66346 16.0068 2.9595 16.2325 3.29718 16.2325H6.8432L10.9808 20.3701C11.1825 20.5715 11.4394 20.7087 11.719 20.7642C11.9986 20.8198 12.2884 20.7912 12.5518 20.6822C12.8152 20.5731 13.0403 20.3884 13.1989 20.1515C13.3574 19.9145 13.4421 19.6353 13.4423 19.3502V4.69104C13.4421 4.40596 13.3574 4.12735 13.1989 3.8904C13.0404 3.65345 12.8152 3.46878 12.5518 3.35972ZM19.097 5.61601C18.8041 5.32311 18.3293 5.32312 18.0364 5.61601C17.7435 5.90891 17.7435 6.38378 18.0364 6.67667C18.7382 7.37847 19.2949 8.21163 19.6747 9.12858C20.0545 10.0455 20.25 11.0283 20.25 12.0208C20.25 13.0133 20.0545 13.9961 19.6747 14.913C19.2949 15.83 18.7382 16.6631 18.0364 17.3649C17.7435 17.6578 17.7435 18.1327 18.0364 18.4256C18.3293 18.7185 18.8041 18.7185 19.097 18.4256C19.9381 17.5845 20.6053 16.586 21.0605 15.4871C21.5157 14.3881 21.75 13.2103 21.75 12.0208C21.75 10.8313 21.5157 9.65349 21.0605 8.55455C20.6053 7.45561 19.9381 6.45709 19.097 5.61601ZM16.65 8.06406C16.3571 7.77114 15.8822 7.7711 15.5893 8.06397C15.2964 8.35684 15.2964 8.83171 15.5892 9.12463C16.3573 9.89279 16.7887 10.9346 16.7887 12.0208C16.7887 13.1071 16.3573 14.1488 15.5892 14.917C15.2964 15.2099 15.2964 15.6848 15.5893 15.9777C15.8822 16.2705 16.3571 16.2705 16.65 15.9776C17.6993 14.9281 18.2887 13.5048 18.2887 12.0208C18.2887 10.5368 17.6993 9.11351 16.65 8.06406Z" fill="black"/>
</svg>
