<svg width="24" height="24" viewBox="0 0 24 24" fill="none" xmlns="http://www.w3.org/2000/svg">
<path fill-rule="evenodd" clip-rule="evenodd" d="M5.58333 4.5C4.98502 4.5 4.5 4.98502 4.5 5.58333V8.5H9.25H19.5V5.58333C19.5 4.98502 19.015 4.5 18.4167 4.5H5.58333ZM8.5 10H4.5V18.4167C4.5 19.015 4.98502 19.5 5.58333 19.5H8.5V10ZM10 19.5V10H19.5V18.4167C19.5 19.015 19.015 19.5 18.4167 19.5H10ZM9.25 21H5.58333C4.1566 21 3 19.8434 3 18.4167V9.25V5.58333C3 4.1566 4.1566 3 5.58333 3H18.4167C19.8434 3 21 4.1566 21 5.58333V9.25V18.4167C21 19.8434 19.8434 21 18.4167 21H9.25Z" fill="black"/>
</svg>
