<svg width="24" height="24" viewBox="0 0 24 24" fill="none" xmlns="http://www.w3.org/2000/svg">
<path fill-rule="evenodd" clip-rule="evenodd" d="M17.5 3.79545L6.5 3.79545C5.94772 3.79545 5.5 4.18212 5.5 4.65909L5.5 19.3409C5.5 19.8179 5.94772 20.2045 6.5 20.2045L17.5 20.2045C18.0523 20.2045 18.5 19.8179 18.5 19.3409L18.5 4.65909C18.5 4.18212 18.0523 3.79545 17.5 3.79545ZM6.5 2.5C5.11929 2.5 4 3.46666 4 4.65909L4 19.3409C4 20.5333 5.11929 21.5 6.5 21.5L17.5 21.5C18.8807 21.5 20 20.5333 20 19.3409L20 4.65909C20 3.46666 18.8807 2.5 17.5 2.5L6.5 2.5Z" fill="black"/>
<path d="M12.25 14.5C12.6642 14.5 13 14.8358 13 15.25C13 15.6642 12.6642 16 12.25 16H7.75C7.33579 16 7 15.6642 7 15.25C7 14.8358 7.33579 14.5 7.75 14.5H12.25ZM16.25 10.5C16.6642 10.5 17 10.8358 17 11.25C17 11.6642 16.6642 12 16.25 12H7.75C7.33579 12 7 11.6642 7 11.25C7 10.8358 7.33579 10.5 7.75 10.5H16.25ZM16.25 6.5C16.6642 6.5 17 6.83579 17 7.25C17 7.66421 16.6642 8 16.25 8H7.75C7.33579 8 7 7.66421 7 7.25C7 6.83579 7.33579 6.5 7.75 6.5H16.25Z" fill="black"/>
</svg>
