<svg width="24" height="24" viewBox="0 0 24 24" fill="none" xmlns="http://www.w3.org/2000/svg">
<path d="M16.3 10.7998C17.7936 10.7998 19.0001 12.0262 19.0002 13.5332V14.0049C19.7285 14.0189 20.1488 14.0812 20.4338 14.3662C20.7999 14.7323 20.8 15.3215 20.8 16.5V16.833C20.8 18.7972 20.7998 19.7795 20.1897 20.3896C19.5795 20.9998 18.5972 21 16.633 21H15.967C14.0028 21 13.0205 20.9998 12.4104 20.3896C11.8002 19.7795 11.8 18.7972 11.8 16.833V16.5C11.8 15.3215 11.8001 14.7323 12.1662 14.3662C12.4513 14.0812 12.8715 14.0189 13.5998 14.0049V13.5332C13.5999 12.0262 14.8064 10.7998 16.3 10.7998ZM16.3498 16C15.6595 16.0001 15.0998 16.5597 15.0998 17.25C15.0998 17.9403 15.6595 18.4999 16.3498 18.5C17.0402 18.5 17.5998 17.9404 17.5998 17.25C17.5998 16.5596 17.0402 16 16.3498 16ZM16.3 12C15.4683 12 14.7893 12.6839 14.7893 13.5332V14H17.8107V13.5332C17.8107 12.6839 17.1317 12 16.3 12Z" fill="#030712"/>
<path d="M19.25 11V10.5566C19.1487 8.78445 18.3999 7.11082 17.1445 5.85544C15.8889 4.59983 14.2149 3.85099 12.4424 3.74997H11.998C10.8739 3.74704 9.76506 4.00977 8.76169 4.51657L8.75876 4.51755C7.55474 5.1193 6.54197 6.04467 5.83395 7.18942C5.12597 8.33424 4.75054 9.65393 4.74997 11V11.0019C4.74704 12.126 5.00977 13.2349 5.51657 14.2383C5.59129 14.3862 5.61512 14.555 5.58395 14.7177L4.94333 18.0556L8.28219 17.416C8.44496 17.3848 8.61376 17.4087 8.76169 17.4834C9.24452 17.7272 9.75177 17.9145 10.2734 18.0429C10.6755 18.1419 10.921 18.5481 10.8222 18.9502C10.7232 19.3523 10.3171 19.5988 9.91501 19.5C9.36891 19.3655 8.83735 19.1738 8.32516 18.9345L4.14059 19.7363C3.89656 19.7829 3.64538 19.7059 3.46969 19.5302C3.29401 19.3546 3.21704 19.1034 3.26364 18.8593L4.06344 14.6787C3.52519 13.5275 3.24665 12.2709 3.24997 10.998C3.25091 9.37394 3.70433 7.78166 4.55856 6.40036C5.41304 5.01888 6.63485 3.90197 8.08786 3.17575C9.30081 2.56362 10.6413 2.24771 12 2.25095V2.24997H12.4707L12.5117 2.25095C14.6578 2.36934 16.6852 3.27508 18.205 4.79489C19.7249 6.31471 20.6306 8.34217 20.749 10.4883C20.7497 10.5019 20.75 10.5156 20.75 10.5293V11C20.75 11.4142 20.4142 11.75 20 11.75C19.5858 11.75 19.25 11.4142 19.25 11Z" fill="#030712"/>
</svg>
