<svg width="24" height="24" viewBox="0 0 24 24" fill="none" xmlns="http://www.w3.org/2000/svg">
<path d="M8.7705 10.1595C8.88889 9.476 9.21694 8.84372 9.70971 8.35095C10.2025 7.85818 10.8348 7.53013 11.5183 7.41174C11.9264 7.34104 12.2 6.95287 12.1293 6.54473C12.0586 6.1366 11.6704 5.86305 11.2622 5.93374C10.273 6.1051 9.35995 6.57939 8.64905 7.29029C7.93815 8.00119 7.46386 8.91426 7.29251 9.90349C7.22181 10.3116 7.49536 10.6998 7.90349 10.7705C8.31163 10.8412 8.6998 10.5676 8.7705 10.1595Z" fill="black"/>
<path fill-rule="evenodd" clip-rule="evenodd" d="M2.25 18.5C2.25 17.3419 3.12501 16.3881 4.25 16.2637L4.25 11.2222C4.25 9.11529 5.061 7.09011 6.5117 5.59336C7.96317 4.09581 9.93688 3.25 12 3.25C13.0211 3.25 14.0315 3.45753 14.9735 3.8601C15.9155 4.26264 16.7698 4.85201 17.4883 5.59336C18.939 7.09011 19.75 9.11529 19.75 11.2222V16.2637C20.875 16.3881 21.75 17.3419 21.75 18.5V20C21.75 20.4142 21.4142 20.75 21 20.75H3C2.58579 20.75 2.25 20.4142 2.25 20L2.25 18.5ZM5 17.75L19.5 17.75C19.9142 17.75 20.25 18.0858 20.25 18.5V19.25H3.75L3.75 18.5C3.75 18.0858 4.08579 17.75 4.5 17.75L5 17.75ZM18.25 16.25H5.75L5.75 11.2222C5.75 9.49825 6.41399 7.84943 7.5888 6.63732C8.76284 5.42601 10.3501 4.75 12 4.75C12.8175 4.75 13.6275 4.91609 14.384 5.23942C15.1407 5.56277 15.8297 6.03738 16.4112 6.63732C17.586 7.84943 18.25 9.49825 18.25 11.2222V16.25Z" fill="black"/>
</svg>
