<svg width="24" height="24" viewBox="0 0 24 24" fill="none" xmlns="http://www.w3.org/2000/svg">
<path fill-rule="evenodd" clip-rule="evenodd" d="M16.2443 17.3049C14.8442 18.4676 13.0454 19.1667 11.0833 19.1667C6.61903 19.1667 3 15.5476 3 11.0833C3 6.61903 6.61903 3 11.0833 3C15.5476 3 19.1667 6.61903 19.1667 11.0833C19.1667 13.0454 18.4676 14.8442 17.3049 16.2443L20.7803 19.7197C21.0732 20.0126 21.0732 20.4874 20.7803 20.7803C20.4874 21.0732 20.0126 21.0732 19.7197 20.7803L16.2443 17.3049ZM4.5 11.0833C4.5 7.44746 7.44746 4.5 11.0833 4.5C14.7192 4.5 17.6667 7.44746 17.6667 11.0833C17.6667 12.8618 16.9615 14.4756 15.8154 15.6602C15.7864 15.6818 15.7585 15.7058 15.7322 15.7322C15.7058 15.7585 15.6818 15.7864 15.6602 15.8154C14.4756 16.9614 12.8618 17.6667 11.0833 17.6667C7.44746 17.6667 4.5 14.7192 4.5 11.0833Z" fill="black"/>
</svg>
