<svg width="24" height="24" viewBox="0 0 24 24" fill="none" xmlns="http://www.w3.org/2000/svg">
<path d="M12.7969 12.3602V18.3825C12.7969 18.5938 12.7129 18.7965 12.5635 18.9459C12.414 19.0954 12.2113 19.1793 12 19.1793C11.7887 19.1793 11.586 19.0954 11.4365 18.9459C11.2871 18.7965 11.2031 18.5938 11.2031 18.3825V12.3602C10.8217 12.1793 10.5132 11.8739 10.3283 11.4944C10.1435 11.1148 10.0933 10.6837 10.186 10.2718C10.2788 9.85998 10.5089 9.49194 10.8386 9.22824C11.1682 8.96454 11.5778 8.82088 12 8.82088C12.4222 8.82088 12.8318 8.96454 13.1614 9.22824C13.4911 9.49194 13.7212 9.85998 13.814 10.2718C13.9067 10.6837 13.8565 11.1148 13.6717 11.4944C13.4868 11.8739 13.1783 12.1793 12.7969 12.3602ZM17.0288 4.7899C17.1819 4.64428 17.3865 4.56539 17.5977 4.57057C17.8088 4.57575 18.0093 4.66458 18.1551 4.81753C19.6622 6.39674 20.5021 8.49639 20.5 10.6793C20.5 12.952 19.6075 15.0175 18.1551 16.5411C18.0837 16.62 17.9973 16.6838 17.9009 16.7287C17.8045 16.7737 17.7001 16.7988 17.5938 16.8028C17.4876 16.8068 17.3816 16.7894 17.2821 16.7518C17.1826 16.7141 17.0917 16.6569 17.0147 16.5836C16.9377 16.5103 16.8761 16.4223 16.8336 16.3248C16.7912 16.2273 16.7686 16.1222 16.7674 16.0159C16.7661 15.9096 16.7861 15.804 16.8263 15.7056C16.8665 15.6071 16.9259 15.5177 17.0012 15.4425C18.227 14.1601 18.9096 12.4534 18.9062 10.6793C18.9096 8.90527 18.227 7.19858 17.0012 5.91615C16.8556 5.76311 16.7767 5.5585 16.7819 5.34731C16.787 5.13612 16.8759 4.93562 17.0288 4.7899ZM6.97119 4.7899C7.28994 5.09378 7.30269 5.5974 6.99882 5.91615C5.77297 7.19858 5.09037 8.90527 5.09376 10.6793C5.09037 12.4534 5.77297 14.1601 6.99882 15.4425C7.13827 15.5966 7.212 15.7991 7.20427 16.0068C7.19653 16.2145 7.10796 16.411 6.95743 16.5543C6.8069 16.6976 6.60634 16.7765 6.39851 16.774C6.19068 16.7716 5.99204 16.688 5.84494 16.5411C4.33691 14.9625 3.49682 12.8625 3.50001 10.6793C3.50001 8.40665 4.39251 6.34115 5.84494 4.81753C5.99067 4.66458 6.19116 4.57575 6.40235 4.57057C6.61354 4.56539 6.81815 4.64428 6.97119 4.7899ZM16.0619 7.25596C16.8694 8.21392 17.3124 9.42645 17.3125 10.6793C17.3124 11.9322 16.8694 13.1448 16.0619 14.1027C15.9955 14.1859 15.9131 14.2548 15.8195 14.3056C15.726 14.3564 15.6232 14.3879 15.5173 14.3983C15.4114 14.4087 15.3044 14.3977 15.2028 14.3661C15.1012 14.3345 15.0069 14.2829 14.9255 14.2142C14.8442 14.1456 14.7774 14.0614 14.7292 13.9665C14.6809 13.8716 14.6522 13.7681 14.6446 13.6619C14.637 13.5557 14.6508 13.4491 14.6851 13.3484C14.7194 13.2476 14.7735 13.1548 14.8443 13.0753C15.4091 12.4047 15.7188 11.5561 15.7188 10.6793C15.7188 9.76559 15.3904 8.93152 14.8443 8.2834C14.7147 8.12117 14.6535 7.91474 14.6737 7.70807C14.694 7.50139 14.7942 7.31079 14.9529 7.17687C15.1116 7.04294 15.3164 6.97627 15.5235 6.99104C15.7306 7.00582 15.9238 7.10087 16.0619 7.25596ZM9.16419 8.27384C8.59257 8.9448 8.27944 9.79789 8.28126 10.6793C8.27934 11.5564 8.58927 12.4056 9.15569 13.0753C9.28534 13.2375 9.34655 13.4439 9.32626 13.6506C9.30598 13.8573 9.20581 14.0479 9.0471 14.1818C8.88838 14.3157 8.68365 14.3824 8.47651 14.3676C8.26937 14.3529 8.07617 14.2578 7.93807 14.1027C7.12896 13.1457 6.6858 11.9325 6.68751 10.6793C6.68553 9.41953 7.13311 8.20036 7.94976 7.24109C8.08671 7.08004 8.28202 6.98 8.49274 6.96296C8.70345 6.94593 8.9123 7.01329 9.07335 7.15024C9.23439 7.2872 9.33444 7.48251 9.35147 7.69323C9.36851 7.90394 9.30114 8.11279 9.16419 8.27384Z" fill="black"/>
</svg>
