<svg width="24" height="24" viewBox="0 0 24 24" fill="none" xmlns="http://www.w3.org/2000/svg">
<g clip-path="url(#clip0_9328_1948)">
<path d="M11.7859 4.99484C15.6101 4.9949 18.9378 7.10972 20.6804 10.2214L20.8444 10.5251L20.8454 10.5271C21.1555 11.1318 21.151 11.8502 20.8484 12.4558L20.8444 12.4636C19.1518 15.7525 15.7322 17.9948 11.7859 17.9948C7.83941 17.9948 4.41993 15.7525 2.72726 12.4636L2.72629 12.4626C2.41628 11.8578 2.42058 11.1395 2.72336 10.5339L2.72726 10.5251C4.4194 7.248 7.83832 4.99484 11.7859 4.99484ZM11.7859 6.49484C8.42402 6.49484 5.50642 8.41282 4.06027 11.2136C3.97038 11.4002 3.97567 11.6109 4.06125 11.778C5.50697 14.5865 8.42318 16.4948 11.7859 16.4948C15.1487 16.4948 18.0649 14.5859 19.5105 11.7771C19.6004 11.591 19.5963 11.3806 19.5114 11.2136L19.3718 10.9538C17.8828 8.29482 15.0427 6.4949 11.7859 6.49484Z" fill="#030712"/>
<path d="M14.2334 11.4954C14.2334 10.1436 13.1378 9.04739 11.7861 9.04718C10.4342 9.04718 9.33786 10.1435 9.33786 11.4954C9.33807 12.8472 10.4343 13.9427 11.7861 13.9427C13.1377 13.9425 14.2332 12.847 14.2334 11.4954ZM15.7334 11.4954C15.7332 13.6755 13.9661 15.4425 11.7861 15.4427C9.60589 15.4427 7.83807 13.6756 7.83786 11.4954C7.83786 9.31508 9.60576 7.54718 11.7861 7.54718C13.9663 7.54739 15.7334 9.31521 15.7334 11.4954Z" fill="#030712"/>
</g>
<defs>
<clipPath id="clip0_9328_1948">
<rect width="18.5814" height="13" fill="white" transform="translate(2.5 5)"/>
</clipPath>
</defs>
</svg>
