<svg width="24" height="24" viewBox="0 0 24 24" fill="none" xmlns="http://www.w3.org/2000/svg">
<path d="M4.54801 19.5C4.04301 19.5 3.61551 19.325 3.26551 18.975C2.91551 18.625 2.74051 18.1974 2.74051 17.6923V6.30775C2.74051 5.80258 2.91551 5.375 3.26551 5.025C3.61551 4.675 4.04301 4.5 4.54801 4.5H15.9328C16.4378 4.5 16.8653 4.675 17.2153 5.025C17.5653 5.375 17.7403 5.80258 17.7403 6.30775V10.8848L20.4865 8.1385C20.634 7.991 20.7997 7.95417 20.9835 8.028C21.1675 8.10167 21.2595 8.24233 21.2595 8.45V15.55C21.2595 15.7577 21.1675 15.8983 20.9835 15.972C20.7997 16.0458 20.634 16.009 20.4865 15.8615L17.7403 13.1152V17.6923C17.7403 18.1974 17.5653 18.625 17.2153 18.975C16.8653 19.325 16.4378 19.5 15.9328 19.5H4.54801ZM4.54801 18H15.9328C16.0224 18 16.0961 17.9712 16.1538 17.9135C16.2116 17.8558 16.2405 17.7821 16.2405 17.6923V6.30775C16.2405 6.21792 16.2116 6.14417 16.1538 6.0865C16.0961 6.02883 16.0224 6 15.9328 6H4.54801C4.45834 6 4.38468 6.02883 4.32701 6.0865C4.26934 6.14417 4.24051 6.21792 4.24051 6.30775V17.6923C4.24051 17.7821 4.26934 17.8558 4.32701 17.9135C4.38468 17.9712 4.45834 18 4.54801 18Z" fill="black"/>
</svg>
