<svg width="24" height="24" viewBox="0 0 24 24" fill="none" xmlns="http://www.w3.org/2000/svg">
<path d="M20.6923 8.5C21.1679 8.5 21.5881 8.68242 21.9527 9.04725C22.3176 9.41192 22.5 9.83209 22.5 10.3078V11.923C22.5 12.028 22.4865 12.1405 22.4595 12.2605C22.4327 12.3803 22.4026 12.4923 22.3693 12.5963L19.5033 19.3588C19.3601 19.6786 19.1199 19.9488 18.7828 20.1693C18.4456 20.3898 18.0938 20.5 17.7273 20.5H7.2115V8.5L13.0288 2.73275C13.2276 2.53409 13.4578 2.4155 13.7193 2.377C13.9808 2.3385 14.2313 2.38334 14.471 2.5115C14.7108 2.63984 14.8865 2.82192 14.998 3.05775C15.1095 3.29359 15.1333 3.53784 15.0693 3.7905L13.9923 8.5H20.6923ZM8.7115 9.1385V19H17.7308C17.8013 19 17.8733 18.9808 17.947 18.9423C18.0208 18.9038 18.077 18.8397 18.1155 18.75L21 12V10.3078C21 10.2179 20.9712 10.1442 20.9135 10.0865C20.8558 10.0288 20.7821 10 20.6923 10H12.0963L13.35 4.51925L8.7115 9.1385ZM4.30775 20.5C3.81058 20.5 3.385 20.323 3.031 19.969C2.677 19.615 2.5 19.1894 2.5 18.6923V10.3078C2.5 9.81059 2.677 9.385 3.031 9.031C3.385 8.677 3.81058 8.5 4.30775 8.5H7.2115V10H4.30775C4.21792 10 4.14417 10.0288 4.0865 10.0865C4.02883 10.1442 4 10.2179 4 10.3078V18.6923C4 18.7821 4.02883 18.8558 4.0865 18.9135C4.14417 18.9712 4.21792 19 4.30775 19H7.2115V20.5H4.30775Z" fill="black"/>
</svg>
