<svg width="24" height="24" viewBox="0 0 24 24" fill="none" xmlns="http://www.w3.org/2000/svg">
<path d="M4.33535 12L5.08535 12V12L4.33535 12ZM19.6 12H18.85H19.6ZM2.00039 18.175H1.25039H2.00039ZM22.0004 18.175H22.7504H22.0004ZM21.0504 19.125V19.875V19.125ZM22.0004 15.6227H21.2504H22.0004ZM21.0504 6.125V6.875V6.125ZM22.0004 7.075L21.2504 7.075L22.0004 7.075ZM2.00039 7.075L2.75039 7.075L2.00039 7.075ZM2.00039 8.81293L1.25039 8.81293L2.00039 8.81293ZM22.0004 8.37834H22.7504H22.0004ZM21.2281 9.42845L20.9066 8.75084L21.2281 9.42845ZM2.00039 15.1881H2.75039H2.00039ZM2.8087 14.1322L3.10288 14.8221C4.22933 14.3417 5.08535 13.2927 5.08535 12L4.33535 12H3.58535C3.58535 12.5825 3.19589 13.1517 2.51452 13.4423L2.8087 14.1322ZM4.33535 12L5.08535 12C5.08535 10.7071 4.22906 9.65877 3.10273 9.17877L2.80869 9.86873L2.51466 10.5587C3.19611 10.8491 3.58535 11.4177 3.58535 12L4.33535 12ZM2.00039 8.81293H2.75039L2.75039 7.075L2.00039 7.075H1.25039L1.25039 8.81293L2.00039 8.81293ZM2.95039 6.125L2.95039 6.875L21.0504 6.875V6.125V5.375L2.95039 5.375L2.95039 6.125ZM22.0004 7.075L21.2504 7.075V8.37834H22.0004H22.7504V7.075H22.0004ZM21.2281 9.42845L20.9066 8.75084C19.6929 9.32663 18.85 10.5625 18.85 12H19.6H20.35C20.35 11.1646 20.8383 10.4435 21.5495 10.1061L21.2281 9.42845ZM19.6 12H18.85C18.85 13.4374 19.6926 14.6739 20.9064 15.25L21.228 14.5725L21.5496 13.8949C20.8385 13.5574 20.35 12.8356 20.35 12H19.6ZM22.0004 15.6227H21.2504V18.175H22.0004H22.7504V15.6227H22.0004ZM21.0504 19.125V18.375L2.95039 18.375L2.95039 19.125L2.95039 19.875L21.0504 19.875V19.125ZM2.00039 18.175H2.75039L2.75039 15.1881H2.00039L1.25039 15.1881L1.25039 18.175H2.00039ZM2.95039 19.125L2.95039 18.375C2.83993 18.375 2.75039 18.2855 2.75039 18.175H2.00039H1.25039C1.25039 19.1139 2.01151 19.875 2.95039 19.875L2.95039 19.125ZM22.0004 18.175H21.2504C21.2504 18.2855 21.1608 18.375 21.0504 18.375V19.125V19.875C21.9893 19.875 22.7504 19.1139 22.7504 18.175H22.0004ZM21.228 14.5725L20.9064 15.25C21.0278 15.3076 21.1233 15.385 21.1821 15.46C21.2379 15.5313 21.2504 15.5851 21.2504 15.6227H22.0004H22.7504C22.7504 14.7563 22.1173 14.1643 21.5496 13.8949L21.228 14.5725ZM21.0504 6.125V6.875C21.1608 6.875 21.2504 6.96455 21.2504 7.075L22.0004 7.075H22.7504C22.7504 6.13612 21.9893 5.375 21.0504 5.375V6.125ZM2.00039 7.075L2.75039 7.075C2.75039 6.96454 2.83993 6.875 2.95039 6.875L2.95039 6.125L2.95039 5.375C2.01151 5.375 1.25039 6.13612 1.25039 7.075H2.00039ZM2.80869 9.86873L3.10273 9.17877C2.97943 9.12622 2.88132 9.05101 2.82081 8.97667C2.7635 8.90627 2.75039 8.85196 2.75039 8.81293H2.00039L1.25039 8.81293C1.25039 9.70278 1.91455 10.3029 2.51466 10.5587L2.80869 9.86873ZM22.0004 8.37834H21.2504C21.2504 8.41595 21.2379 8.4697 21.1821 8.54094C21.1234 8.61594 21.0279 8.69327 20.9066 8.75084L21.2281 9.42845L21.5495 10.1061C22.1173 9.83669 22.7504 9.24465 22.7504 8.37834H22.0004ZM2.8087 14.1322L2.51452 13.4423C1.9146 13.6981 1.25039 14.2982 1.25039 15.1881L2.00039 15.1881H2.75039C2.75039 15.1491 2.7635 15.0947 2.82083 15.0243C2.88138 14.9499 2.97953 14.8747 3.10288 14.8221L2.8087 14.1322Z" fill="black"/>
</svg>
