<svg width="24" height="24" viewBox="0 0 24 24" fill="none" xmlns="http://www.w3.org/2000/svg">
<path d="M9.45374 12L15.527 18.073C15.6653 18.2115 15.7362 18.3856 15.7395 18.5953C15.7427 18.8048 15.6718 18.982 15.527 19.127C15.382 19.2718 15.2063 19.3443 15 19.3443C14.7937 19.3443 14.618 19.2718 14.473 19.127L7.97874 12.6328C7.88524 12.5391 7.81924 12.4403 7.78074 12.3365C7.74224 12.2327 7.72299 12.1205 7.72299 12C7.72299 11.8795 7.74224 11.7673 7.78074 11.6635C7.81924 11.5597 7.88524 11.4609 7.97874 11.3673L14.473 4.873C14.6115 4.73467 14.7856 4.66384 14.9952 4.6605C15.2047 4.65734 15.382 4.72817 15.527 4.873C15.6718 5.018 15.7442 5.19367 15.7442 5.4C15.7442 5.60634 15.6718 5.782 15.527 5.927L9.45374 12Z" fill="black"/>
</svg>
