<svg width="24" height="24" viewBox="0 0 24 24" fill="none" xmlns="http://www.w3.org/2000/svg">
<path d="M21.4168 6.70131C21.2191 6.50361 20.9785 6.39577 20.7043 6.40012C20.4361 6.40438 20.2012 6.50941 20.0094 6.70141L19.1376 7.57325L10.548 16.1628L5.61265 11.2141L5.00156 10.6013C4.80416 10.4039 4.56397 10.2953 4.29004 10.2953C4.01622 10.2953 3.77612 10.404 3.57876 10.6013C3.38106 10.799 3.27254 11.04 3.27005 11.315C3.2674 11.5887 3.36872 11.8294 3.56326 12.0241L9.73834 18.1992C9.9629 18.4235 10.2362 18.5433 10.5478 18.5433C10.8594 18.5433 11.1329 18.4233 11.3574 18.199L21.4168 8.12411C21.6142 7.92671 21.7228 7.68652 21.7228 7.41259C21.7228 7.13877 21.6142 6.89867 21.4168 6.70131Z" fill="black"/>
</svg>
