<svg width="24" height="24" viewBox="0 0 24 24" fill="none" xmlns="http://www.w3.org/2000/svg">
<path d="M8.39571 10.3956L5.18379 11.0382L5.15059 11.0704L12.9289 18.8497L12.9621 18.8165L13.6037 15.6037L14.8791 16.879L14.3439 19.5568L13.6359 20.2638C13.2454 20.654 12.6123 20.654 12.2219 20.2638L8.66817 16.7091L4.63008 20.7472C4.33721 21.0401 3.86243 21.04 3.56953 20.7472C3.27681 20.4543 3.2767 19.9795 3.56953 19.6867L7.60762 15.6486L3.73653 11.7785C3.34604 11.388 3.34622 10.755 3.73653 10.3644L4.44356 9.65639L7.12032 9.12025L8.39571 10.3956ZM12.6701 3.03432C13.0038 2.94508 13.3751 3.03125 13.6369 3.29311L20.7072 10.3644C20.9689 10.6262 21.0552 10.9966 20.966 11.3302C20.9243 11.4861 20.8441 11.6342 20.7258 11.7589C20.7196 11.7654 20.7136 11.7721 20.7072 11.7785L19.9992 12.4855L19.2932 11.7785L16.5959 14.4747L21.5012 19.38C21.7937 19.6729 21.7939 20.1478 21.5012 20.4406C21.2084 20.7333 20.7335 20.7331 20.4406 20.4406L4.53047 4.53041C4.23759 4.23753 4.2376 3.76276 4.53047 3.46986C4.82336 3.17697 5.29813 3.17697 5.59102 3.46986L9.52461 7.40346L12.2229 4.70717L11.5158 4.00111L12.2229 3.29311C12.2292 3.28674 12.2359 3.28071 12.2424 3.27455C12.367 3.15632 12.5144 3.07606 12.6701 3.03432ZM10.5852 8.464L15.5354 13.4142L18.5861 10.3634L13.6369 5.4142L10.5852 8.464Z" fill="black"/>
</svg>
