<svg width="24" height="24" viewBox="0 0 24 24" fill="none" xmlns="http://www.w3.org/2000/svg">
<path d="M18.7979 10.4346C18.7977 6.68612 15.8438 3.67881 12.2383 3.67871C8.63266 3.67871 5.67882 6.68605 5.67871 10.4346C5.67871 12.2256 6.76348 14.3668 8.1748 16.3594C9.56472 18.3217 11.1797 20.0146 12.0586 20.8857C12.1614 20.9876 12.3152 20.9876 12.418 20.8857C13.2969 20.0145 14.911 18.3215 16.3008 16.3594C17.7122 14.3668 18.7979 12.2257 18.7979 10.4346ZM13.8721 10.125C13.872 9.1709 13.1234 8.42871 12.2383 8.42871C11.3532 8.42877 10.6046 9.17094 10.6045 10.125C10.6045 11.0791 11.3532 11.8212 12.2383 11.8213C13.1235 11.8213 13.8721 11.0792 13.8721 10.125ZM20.1543 10.4346C20.1543 12.6786 18.8413 15.1203 17.4082 17.1436C15.9537 19.197 14.2777 20.9529 13.373 21.8496C12.7413 22.4758 11.7343 22.4758 11.1025 21.8496C10.1978 20.9528 8.52173 19.1968 7.06738 17.1436C5.6344 15.1204 4.32129 12.6785 4.32129 10.4346C4.3214 5.97105 7.84906 2.32129 12.2383 2.32129C16.6274 2.32139 20.1542 5.97111 20.1543 10.4346ZM15.2295 10.125C15.2295 11.7942 13.9071 13.1787 12.2383 13.1787C10.5696 13.1786 9.24805 11.7941 9.24805 10.125C9.24813 8.45593 10.5696 7.07135 12.2383 7.07129C13.907 7.07129 15.2294 8.45589 15.2295 10.125Z" fill="#030712" stroke="#374151" stroke-width="0.05"/>
</svg>
