<svg width="24" height="24" viewBox="0 0 24 24" fill="none" xmlns="http://www.w3.org/2000/svg">
<path d="M7.84074 5.21957C9.50539 4.19729 11.4792 3.79918 13.4101 4.09555C15.341 4.39201 17.1043 5.36412 18.3857 6.83871C19.6669 8.31335 20.3831 10.1949 20.4071 12.1483C20.4311 14.1018 19.7613 16.0009 18.5165 17.5067C17.2718 19.0122 15.5332 20.0271 13.6103 20.3709C11.6871 20.7147 9.70394 20.3648 8.01457 19.3836C6.32529 18.4024 5.03899 16.8533 4.38469 15.0125C4.24617 14.6224 4.44967 14.1933 4.83977 14.0545C5.23006 13.9158 5.65905 14.1203 5.79777 14.5106C6.33313 16.0167 7.38629 17.284 8.76848 18.0868C10.1505 18.8893 11.7724 19.1755 13.3456 18.8944C14.919 18.6131 16.3418 17.7825 17.3603 16.5506C18.3787 15.3187 18.9268 13.7651 18.9071 12.1668C18.8875 10.5685 18.3013 9.02867 17.2529 7.82211C16.2045 6.61584 14.7622 5.82052 13.1825 5.57797C11.6026 5.33547 9.98698 5.66131 8.62492 6.49789C7.41524 7.24098 6.47576 8.34477 5.93156 9.64633H8.57902C8.99313 9.64645 9.32902 9.98219 9.32902 10.3963C9.32883 10.8103 8.99301 11.1462 8.57902 11.1463H4.33C3.91591 11.1463 3.58019 10.8104 3.58 10.3963V6.14731C3.58002 5.73311 3.9158 5.39731 4.33 5.39731C4.7442 5.39731 5.07998 5.73311 5.08 6.14731V8.01157C5.75753 6.88011 6.70181 5.91912 7.84074 5.21957Z" fill="black"/>
<path d="M11.6581 8.49985C12.0723 8.49985 12.4081 8.83564 12.4081 9.24985V12.286L14.9931 13.5789C15.3634 13.7641 15.5139 14.2144 15.329 14.5848C15.1438 14.955 14.6935 15.1056 14.3232 14.9207L11.3232 13.4207C11.0691 13.2937 10.9082 13.0339 10.9081 12.7498V9.24985C10.9081 8.83564 11.2439 8.49985 11.6581 8.49985Z" fill="black"/>
</svg>
