<svg width="24" height="24" viewBox="0 0 24 24" fill="none" xmlns="http://www.w3.org/2000/svg">
<path d="M12.5293 2.24997L12.5703 2.25095C14.9616 2.38287 17.2206 3.39243 18.914 5.08591C20.6075 6.77938 21.6171 9.03836 21.749 11.4297C21.7497 11.4433 21.75 11.457 21.75 11.4707V11.998L21.7461 12.2822C21.7079 13.7 21.3572 15.0932 20.7168 16.3613L20.7158 16.3603C19.9065 17.9786 18.6638 19.3402 17.125 20.292C15.5855 21.244 13.811 21.7482 12.0009 21.749L12.0019 21.75C10.5727 21.7537 9.16172 21.4389 7.87107 20.83L3.1406 21.7363C2.89657 21.7829 2.64539 21.7059 2.4697 21.5302C2.29401 21.3546 2.21705 21.1034 2.26364 20.8593L3.16892 16.1279C2.56039 14.8376 2.24625 13.4268 2.24997 11.998C2.25098 10.1883 2.75609 8.41419 3.70798 6.87497C4.65967 5.33624 6.02051 4.09246 7.63864 3.28317L7.89353 3.15915C9.17747 2.55748 10.5797 2.24753 12 2.25095V2.24997H12.5293ZM11.998 3.74997C10.7186 3.74663 9.4564 4.04523 8.31442 4.62204L8.3115 4.62399C6.94145 5.30878 5.789 6.36137 4.98337 7.66403C4.17773 8.96677 3.75062 10.4683 3.74997 12V12.0019C3.74664 13.2813 4.04523 14.5435 4.62204 15.6855C4.69676 15.8334 4.72059 16.0022 4.68942 16.165L3.94333 20.0556L7.83493 19.3105L7.95798 19.2968C8.08102 19.2938 8.20344 19.3218 8.31442 19.3779C9.4564 19.9547 10.7186 20.2533 11.998 20.25H12C13.5317 20.2493 15.0332 19.8222 16.3359 19.0166C17.6386 18.2109 18.6912 17.0585 19.3759 15.6884L19.3779 15.6855C19.9547 14.5435 20.2533 13.2813 20.25 12.0019V11.499C20.1355 9.48117 19.2828 7.57578 17.8535 6.14645C16.4242 4.71713 14.5188 3.86447 12.5009 3.74997H11.998Z" fill="#030712"/>
</svg>
