<svg width="24" height="24" viewBox="0 0 24 24" fill="none" xmlns="http://www.w3.org/2000/svg">
<path fill-rule="evenodd" clip-rule="evenodd" d="M4.10711 11.2156H9.59656C9.9266 10.2037 10.8779 9.47248 12 9.47248C13.1221 9.47248 14.0734 10.2037 14.4034 11.2156H19.8929C19.499 7.20353 16.1156 4.06881 12 4.06881C7.88442 4.06881 4.50099 7.20353 4.10711 11.2156ZM19.8929 12.7844H14.4034C14.0734 13.7963 13.1221 14.5275 12 14.5275C10.8779 14.5275 9.9266 13.7963 9.59656 12.7844H4.10711C4.50099 16.7965 7.88442 19.9312 12 19.9312C16.1156 19.9312 19.499 16.7965 19.8929 12.7844ZM2.5 12C2.5 6.75329 6.75329 2.5 12 2.5C17.2467 2.5 21.5 6.75329 21.5 12C21.5 17.2467 17.2467 21.5 12 21.5C6.75329 21.5 2.5 17.2467 2.5 12ZM12 11.0413C11.4705 11.0413 11.0413 11.4705 11.0413 12C11.0413 12.5295 11.4705 12.9587 12 12.9587C12.5295 12.9587 12.9587 12.5295 12.9587 12C12.9587 11.4705 12.5295 11.0413 12 11.0413Z" fill="black"/>
</svg>
