<svg width="24" height="24" viewBox="0 0 24 24" fill="none" xmlns="http://www.w3.org/2000/svg">
<path fill-rule="evenodd" clip-rule="evenodd" d="M3.58333 12C3.58333 7.3516 7.3516 3.58333 12 3.58333C16.6484 3.58333 20.4167 7.3516 20.4167 12C20.4167 16.6484 16.6484 20.4167 12 20.4167C7.3516 20.4167 3.58333 16.6484 3.58333 12ZM12 2.08333C6.52317 2.08333 2.08333 6.52318 2.08333 12C2.08333 17.4768 6.52317 21.9167 12 21.9167C17.4768 21.9167 21.9167 17.4768 21.9167 12C21.9167 6.52318 17.4768 2.08333 12 2.08333ZM8.93151 13.3809C8.68251 13.0516 8.21389 12.9854 7.88333 13.2333C7.55196 13.4819 7.4848 13.952 7.73333 14.2833L8.33333 13.8333C7.73333 14.2833 7.73391 14.2841 7.7341 14.2844L7.73499 14.2856L7.73719 14.2884L7.74314 14.2962L7.76129 14.3194C7.77616 14.3382 7.79656 14.3635 7.8224 14.3943C7.87404 14.4558 7.94768 14.5398 8.04249 14.6387C8.23149 14.8359 8.50819 15.0962 8.86616 15.3566C9.57919 15.8751 10.6475 16.4167 12 16.4167C13.3525 16.4167 14.4208 15.8751 15.1338 15.3566C15.4918 15.0962 15.7685 14.8359 15.9575 14.6387C16.0523 14.5398 16.1259 14.4558 16.1776 14.3943C16.2034 14.3635 16.2238 14.3382 16.2387 14.3194L16.2568 14.2962L16.2628 14.2884L16.265 14.2856L16.2667 14.2833C16.5152 13.952 16.448 13.4819 16.1167 13.2333C15.786 12.9854 15.3173 13.0517 15.0684 13.3811L15.0626 13.3884C15.0562 13.3965 15.0449 13.4106 15.0286 13.43C14.9961 13.4687 14.9444 13.5279 14.8745 13.6009C14.7341 13.7474 14.5238 13.9455 14.2516 14.1434C13.7042 14.5415 12.9392 14.9167 12 14.9167C11.0608 14.9167 10.2958 14.5415 9.74841 14.1434C9.47617 13.9455 9.26589 13.7474 9.12547 13.6009C9.05557 13.5279 9.00388 13.4687 8.97136 13.43C8.95513 13.4106 8.94376 13.3965 8.93736 13.3884L8.93151 13.3809ZM8.25 9.25C8.25 8.69772 8.69772 8.25 9.25 8.25H9.26C9.81228 8.25 10.26 8.69772 10.26 9.25C10.26 9.80228 9.81228 10.25 9.26 10.25H9.25C8.69772 10.25 8.25 9.80228 8.25 9.25ZM14.75 8.25C14.1977 8.25 13.75 8.69772 13.75 9.25C13.75 9.80228 14.1977 10.25 14.75 10.25H14.76C15.3123 10.25 15.76 9.80228 15.76 9.25C15.76 8.69772 15.3123 8.25 14.76 8.25H14.75Z" fill="black"/>
</svg>
