<svg width="24" height="24" viewBox="0 0 24 24" fill="none" xmlns="http://www.w3.org/2000/svg">
<path d="M12.7374 18.004L18.9066 11.8348C19.0553 11.6861 19.2293 11.6127 19.4286 11.6145C19.6279 11.6165 19.8052 11.695 19.9604 11.85C20.1052 12.0052 20.1802 12.1808 20.1854 12.377C20.1905 12.5732 20.1155 12.7488 19.9604 12.904L12.6201 20.2443C12.5264 20.3379 12.4277 20.4039 12.3239 20.4423C12.22 20.4808 12.1079 20.5 11.9874 20.5C11.8669 20.5 11.7547 20.4808 11.6509 20.4423C11.547 20.4039 11.4483 20.3379 11.3546 20.2443L4.01436 12.904C3.87586 12.7655 3.80502 12.594 3.80186 12.3895C3.79869 12.185 3.86953 12.0052 4.01436 11.85C4.16952 11.695 4.34769 11.6175 4.54886 11.6175C4.75019 11.6175 4.92844 11.695 5.08361 11.85L11.2374 18.004L11.2374 4.627C11.2374 4.41417 11.3092 4.236 11.4529 4.0925C11.5964 3.94883 11.7745 3.877 11.9874 3.877C12.2002 3.877 12.3784 3.94883 12.5219 4.0925C12.6655 4.236 12.7374 4.41417 12.7374 4.627L12.7374 18.004Z" fill="black"/>
</svg>
