<svg width="24" height="24" viewBox="0 0 24 24" fill="none" xmlns="http://www.w3.org/2000/svg">
<path d="M16.8462 9.94412L18.9231 12.021M18.9231 12.021L21 14.098M18.9231 12.021L21 9.94412M18.9231 12.021L16.8462 14.098M7.15385 8.5595L11.5108 4.20258C11.6076 4.10588 11.7309 4.04005 11.8651 4.01338C11.9993 3.98672 12.1384 4.00043 12.2649 4.05278C12.3913 4.10513 12.4994 4.19377 12.5754 4.30751C12.6515 4.42124 12.6922 4.55498 12.6923 4.69181V19.3503C12.6922 19.4871 12.6515 19.6208 12.5754 19.7346C12.4994 19.8483 12.3913 19.937 12.2649 19.9893C12.1384 20.0417 11.9993 20.0554 11.8651 20.0287C11.7309 20.002 11.6076 19.9362 11.5108 19.8395L7.15385 15.4826H3.29718C3.09919 14.7621 2.99926 12.7683 3 12.021C3 11.2549 3.10339 9.26381 3.29723 8.5595H7.15385Z" stroke="black" stroke-width="1.5" stroke-linecap="round" stroke-linejoin="round"/>
</svg>
