<svg width="24" height="24" viewBox="0 0 24 24" fill="none" xmlns="http://www.w3.org/2000/svg">
<path d="M19.5 4C21.1569 4 22.5 5.34315 22.5 7V17C22.5 18.6569 21.1569 20 19.5 20H4.5L4.3457 19.9961C2.76055 19.9158 1.5 18.6051 1.5 17V7C1.5 5.34315 2.84315 4 4.5 4H19.5ZM4.5 5.5C3.67157 5.5 3 6.17157 3 7V17C3 17.8284 3.67157 18.5 4.5 18.5H19.5C20.3284 18.5 21 17.8284 21 17V7C21 6.17157 20.3284 5.5 19.5 5.5H4.5ZM18.5 12C19.0523 12 19.5 12.4477 19.5 13V16C19.5 16.5523 19.0523 17 18.5 17H12.5C11.9477 17 11.5 16.5523 11.5 16V13C11.5 12.4477 11.9477 12 12.5 12H18.5Z" fill="black"/>
</svg>
