<svg width="24" height="24" viewBox="0 0 24 24" fill="none" xmlns="http://www.w3.org/2000/svg">
<path d="M6 2.66992C6.41409 2.67007 6.74999 3.0058 6.75 3.41992V12.7451C6.75018 13.159 7.08612 13.4949 7.5 13.4951L17.6338 13.4941L13.2197 9.08008C12.9269 8.78718 12.9269 8.31239 13.2197 8.01953C13.5126 7.72676 13.9874 7.72676 14.2803 8.01953L19.9375 13.6768C20.2301 13.9696 20.2302 14.4445 19.9375 14.7373L14.2803 20.3936C13.9874 20.6864 13.5126 20.6864 13.2197 20.3936C12.927 20.1006 12.9269 19.6258 13.2197 19.333L17.5586 14.9951H7.5C6.25753 14.9949 5.25 13.9867 5.25 12.7441V3.41895C5.25039 3.00516 5.58616 2.67007 6 2.66992Z" fill="black"/>
</svg>
