<svg width="24" height="24" viewBox="0 0 24 24" fill="none" xmlns="http://www.w3.org/2000/svg">
<path d="M14.4262 3.8299C15.0349 3.71898 15.6556 3.72418 16.2564 3.84157L13.5522 6.54574L13.547 6.55107C13.236 6.86831 13.0618 7.29483 13.0618 7.73906C13.0618 8.18328 13.236 8.6098 13.547 8.92704L13.5522 8.93237L15.0676 10.4478L15.073 10.453C15.3902 10.764 15.8167 10.9382 16.2609 10.9382C16.7052 10.9382 17.1317 10.764 17.4489 10.453L17.4543 10.4478L20.1584 7.74359C20.2758 8.34436 20.281 8.96506 20.1701 9.57382C19.9904 10.5603 19.5143 11.4686 18.8052 12.1776C18.7596 12.2232 18.7131 12.2679 18.6659 12.3116C19.0665 12.6149 19.4223 12.9743 19.7215 13.3782C19.7703 13.3324 19.8184 13.2857 19.8659 13.2382C20.7905 12.3136 21.4114 11.1291 21.6458 9.8427C21.8802 8.55625 21.717 7.22891 21.1779 6.03758C21.0764 5.81327 20.8712 5.65307 20.629 5.60893C20.3868 5.5648 20.1383 5.64236 19.9642 5.81646L16.3972 9.38346C16.3606 9.41855 16.3118 9.43818 16.2609 9.43818C16.2101 9.43818 16.1613 9.41855 16.1246 9.38345L14.6165 7.87535C14.5814 7.83869 14.5618 7.78987 14.5618 7.73906C14.5618 7.68825 14.5814 7.63943 14.6165 7.60276L18.1835 4.03575C18.3576 3.86166 18.4352 3.6132 18.3911 3.37099C18.3469 3.12877 18.1867 2.92363 17.9624 2.82213C16.7711 2.28303 15.4438 2.1198 14.1573 2.35419C12.8709 2.58859 11.6864 3.20947 10.7618 4.13411C9.83712 5.05874 9.21624 6.24321 8.98184 7.52966C8.77906 8.6426 8.87388 9.78615 9.25222 10.8458L3.05814 17.0398C2.5407 17.5573 2.25 18.2591 2.25 18.9909C2.25 19.7226 2.54069 20.4244 3.05814 20.9419C3.57558 21.4593 4.27738 21.75 5.00915 21.75C5.74092 21.75 6.44272 21.4593 6.96016 20.9419L10.3545 17.5475C10.286 17.209 10.25 16.8587 10.25 16.5C10.25 16.1296 10.2884 15.7681 10.3613 15.4194L5.8995 19.8812C5.66336 20.1173 5.34309 20.25 5.00915 20.25C4.6752 20.25 4.35493 20.1173 4.1188 19.8812C3.88266 19.6451 3.75 19.3248 3.75 18.9909C3.75 18.6569 3.88266 18.3366 4.1188 18.1005L10.6634 11.5559C10.8841 11.3352 10.9451 11.0008 10.8164 10.7164C10.403 9.80283 10.2778 8.78501 10.4575 7.79853C10.6373 6.81206 11.1134 5.90379 11.8224 5.19477C12.5314 4.48574 13.4397 4.00964 14.4262 3.8299Z" fill="black"/>
<path d="M15 14.5L15 17H17.5" stroke="black" stroke-width="1.2" stroke-linecap="round" stroke-linejoin="round"/>
<circle cx="15.5" cy="16.5" r="4.5" stroke="black" stroke-width="1.5"/>
</svg>
