<svg width="24" height="24" viewBox="0 0 24 24" fill="none" xmlns="http://www.w3.org/2000/svg">
<path fill-rule="evenodd" clip-rule="evenodd" d="M16.9164 3.75C14.8453 3.75 13.1664 5.42893 13.1664 7.5C13.1664 9.57107 14.8453 11.25 16.9164 11.25C18.9874 11.25 20.6664 9.57107 20.6664 7.5C20.6664 5.42893 18.9874 3.75 16.9164 3.75ZM6.33228 8.75008H11.8161C12.3769 11.046 14.4476 12.75 16.9164 12.75C17.2644 12.75 17.6046 12.7161 17.9337 12.6515L17.9328 12.6517L17.5144 14.8456L17.5139 14.848C17.4716 15.0581 17.357 15.2467 17.1901 15.3811C17.0225 15.516 16.8128 15.5877 16.5977 15.5835L16.5833 15.5834H8.48333L8.46896 15.5835C8.25387 15.5877 8.04417 15.516 7.87659 15.3811C7.709 15.2462 7.59421 15.0566 7.5523 14.8456L6.33228 8.75008ZM17.9744 12.6433C17.9609 12.6461 17.9473 12.6488 17.9337 12.6515L17.9744 12.6433ZM22.1664 7.5C22.1664 9.4276 21.1275 11.1126 19.5792 12.0256L18.9856 15.1379C18.8752 15.6942 18.5725 16.1939 18.1307 16.5495C17.6909 16.9036 17.1412 17.0924 16.5768 17.0834H8.48982C7.92551 17.0924 7.37575 16.9036 6.93599 16.5495C6.49431 16.194 6.19172 15.6945 6.08114 15.1384L4.68859 8.18082C4.68325 8.15924 4.67884 8.13729 4.67542 8.11501L3.96857 4.58341H1.25C0.835786 4.58341 0.5 4.24762 0.5 3.83341C0.5 3.41919 0.835786 3.08341 1.25 3.08341H4.58333C4.9408 3.08341 5.24859 3.3357 5.31875 3.68622L6.03205 7.25008H11.6722C11.8027 4.46663 14.1007 2.25 16.9164 2.25C19.8159 2.25 22.1664 4.60051 22.1664 7.5ZM10.2494 20.4999C10.2494 21.7886 9.20473 22.8333 7.91607 22.8333C6.6274 22.8333 5.58273 21.7886 5.58273 20.4999C5.58273 19.2113 6.6274 18.1666 7.91607 18.1666C9.20473 18.1666 10.2494 19.2113 10.2494 20.4999ZM8.7494 20.4999C8.7494 20.9602 8.3763 21.3333 7.91607 21.3333C7.45583 21.3333 7.08273 20.9602 7.08273 20.4999C7.08273 20.0397 7.45583 19.6666 7.91607 19.6666C8.3763 19.6666 8.7494 20.0397 8.7494 20.4999ZM19.4167 20.4999C19.4167 21.7886 18.372 22.8333 17.0833 22.8333C15.7947 22.8333 14.75 21.7886 14.75 20.4999C14.75 19.2113 15.7947 18.1666 17.0833 18.1666C18.372 18.1666 19.4167 19.2113 19.4167 20.4999ZM17.9167 20.4999C17.9167 20.9602 17.5436 21.3333 17.0833 21.3333C16.6231 21.3333 16.25 20.9602 16.25 20.4999C16.25 20.0397 16.6231 19.6666 17.0833 19.6666C17.5436 19.6666 17.9167 20.0397 17.9167 20.4999ZM17.1849 9.37482L19.5849 6.37482L18.6478 5.62518L16.6666 8.10172L15.3406 6.77574L14.4921 7.62426L16.2921 9.42426L16.7661 9.89828L17.1849 9.37482Z" fill="black"/>
</svg>
