<svg width="24" height="24" viewBox="0 0 24 24" fill="none" xmlns="http://www.w3.org/2000/svg">
<path d="M13 2.24997L13.041 2.25095C15.3097 2.37611 17.4529 3.33377 19.0595 4.9404C20.6662 6.54705 21.6238 8.69026 21.749 10.959C21.7497 10.9726 21.75 10.9863 21.75 11V11.498C21.7537 12.935 21.4169 14.3519 20.7695 15.6347L20.7705 15.6357C20.0027 17.1717 18.8227 18.4639 17.3623 19.3672C15.9017 20.2704 14.2182 20.7482 12.5009 20.749L12.5019 20.75C11.1506 20.7535 9.81674 20.4565 8.59567 19.8828L4.1406 20.7363C3.89655 20.7829 3.64539 20.7059 3.4697 20.5302C3.29401 20.3545 3.21702 20.1034 3.26364 19.8593L4.11618 15.4033C3.5428 14.1825 3.24645 12.8489 3.24997 11.498C3.25095 9.7811 3.72973 8.09792 4.63278 6.63766C5.53603 5.17721 6.82824 3.99724 8.36423 3.22946C9.64658 2.5822 11.0635 2.24751 12.5 2.25095L13 2.24997ZM9.03513 4.57126C7.74808 5.21457 6.66498 6.20297 5.90817 7.42673C5.15137 8.6505 4.75059 10.0611 4.74997 11.5V11.5019C4.74684 12.7037 5.02751 13.8892 5.56931 14.9619C5.64402 15.1098 5.66786 15.2786 5.63669 15.4414L4.90036 15.2998H4.89841L5.63669 15.4414L4.94333 19.0556L8.55856 18.3633L8.69919 19.1006L8.70017 19.0996L8.55856 18.3633C8.72132 18.3321 8.89014 18.3559 9.03806 18.4306C10.1107 18.9724 11.2963 19.2531 12.498 19.25H12.5C13.9389 19.2494 15.3494 18.8486 16.5732 18.0918C17.797 17.335 18.7854 16.2519 19.4287 14.9648L19.4306 14.9619C19.9724 13.8892 20.2531 12.7037 20.25 11.5019V11.0283C20.1422 9.13312 19.3415 7.34341 17.999 6.00095C16.6565 4.65848 14.8668 3.85772 12.9717 3.74997H12.498C11.2963 3.74684 10.1107 4.0275 9.03806 4.56931L8.60153 3.70407L9.03513 4.57126ZM9.03806 4.56931L9.03513 4.57126L8.70017 3.90036L9.03806 4.56931Z" fill="black"/>
<path fill-rule="evenodd" clip-rule="evenodd" d="M9.25 10C9.25 9.58579 9.58579 9.25 10 9.25H15C15.4142 9.25 15.75 9.58579 15.75 10C15.75 10.4142 15.4142 10.75 15 10.75H10C9.58579 10.75 9.25 10.4142 9.25 10ZM9.25 13C9.25 12.5858 9.58579 12.25 10 12.25H15C15.4142 12.25 15.75 12.5858 15.75 13C15.75 13.4142 15.4142 13.75 15 13.75H10C9.58579 13.75 9.25 13.4142 9.25 13Z" fill="black"/>
</svg>
