<svg width="120" height="32" viewBox="0 0 120 32" fill="none" xmlns="http://www.w3.org/2000/svg">
<path d="M11.7317 6.02538L14.8086 21.4113H15.1337L18.1958 6.02538H25.9276L21.4743 26.0542H8.4385L4 6.02538H11.7317ZM25.9276 6.02538H18.1958L18.8365 2.82483H26.7319L25.9276 6.02538Z" fill="black"/>
<path d="M63.8247 26.0689L64.552 19.9359L64.1963 19.8893C63.9493 21.5976 63.5102 22.9351 62.8821 23.9027C62.253 24.8702 61.4361 25.5538 60.4312 25.9523C59.4263 26.3508 58.166 26.55 56.6503 26.55C54.4231 26.55 52.6921 25.6905 51.455 23.9726C50.2179 22.2547 49.5994 19.584 49.5994 15.9617C49.5994 13.3536 49.8822 11.2838 50.4501 9.75137C51.0169 8.21999 51.8286 7.13053 52.8852 6.483C53.9418 5.83653 55.2591 5.51224 56.8361 5.51224C58.7635 5.51224 60.3541 6.05803 61.6071 7.15067C62.86 8.2433 63.6347 10.046 63.9345 12.5619L64.2902 12.5312L63.8258 6.18096V2.76422H71.3105V26.0689H63.8258H63.8247ZM57.8715 20.0599C58.3666 20.7954 59.1392 21.1621 60.1916 21.1621C60.8302 21.1621 61.4181 21.0042 61.9543 20.6883C62.4905 20.3725 62.9233 19.9253 63.2537 19.3456C63.583 18.7659 63.7741 18.0876 63.8258 17.3119V13.6789C63.3107 12.9858 62.7534 12.4761 62.1559 12.1497C61.5574 11.8233 60.9083 11.6611 60.2074 11.6611C59.0833 11.6611 58.2895 12.0702 57.8262 12.8873C57.3628 13.7054 57.1306 14.9475 57.1306 16.6135C57.1306 18.1767 57.3776 19.3255 57.8726 20.0599H57.8715Z" fill="black"/>
<path d="M86.6242 26.0689L87.3515 19.9359L86.9957 19.8893C86.7487 21.5976 86.3096 22.9351 85.6816 23.9027C85.0525 24.8702 84.2355 25.5538 83.2307 25.9523C82.2258 26.3508 80.9655 26.55 79.4498 26.55C77.2226 26.55 75.4915 25.6905 74.2545 23.9726C73.0174 22.2547 72.3988 19.584 72.3988 15.9617C72.3988 13.3536 72.6817 11.2838 73.2496 9.75137C73.8164 8.21999 74.6281 7.13053 75.6847 6.483C76.7413 5.83653 78.0586 5.51224 79.6355 5.51224C81.5629 5.51224 83.1536 6.05803 84.4065 7.15067C85.6594 8.2433 86.4342 10.046 86.734 12.5619L87.0897 12.5312L86.6253 6.18096V2.76422H94.11V26.0689H86.6253H86.6242ZM80.671 20.0599C81.1661 20.7954 81.9387 21.1621 82.9911 21.1621C83.6297 21.1621 84.2176 21.0042 84.7538 20.6883C85.29 20.3725 85.7228 19.9253 86.0532 19.3456C86.3825 18.7659 86.5735 18.0876 86.6253 17.3119V13.6789C86.1102 12.9858 85.5528 12.4761 84.9554 12.1497C84.3569 11.8233 83.7078 11.6611 83.0069 11.6611C81.8828 11.6611 81.089 12.0702 80.6256 12.8873C80.1622 13.7054 79.93 14.9475 79.93 16.6135C79.93 18.1767 80.177 19.3255 80.6721 20.0599H80.671Z" fill="black"/>
<path d="M98.462 27.8229L99.4669 21.6433C100.157 22.2442 100.897 22.7147 101.686 23.056C102.474 23.3972 103.255 23.5678 104.029 23.5678C104.626 23.5678 105.171 23.4354 105.622 23.11C106.261 22.6479 106.627 21.993 106.627 20.6206H99.3434L95.1983 6.02417H102.961L106.563 19.1899H107.042L110.244 6.02417H118.053L113.491 22.7147C113.058 24.3711 112.452 25.6747 111.674 26.6274C110.895 27.5791 109.937 28.2521 108.798 28.6453C107.659 29.0384 106.285 29.2355 104.677 29.2355C102.491 29.2355 100.419 28.7639 98.461 27.8229H98.462Z" fill="black"/>
<path d="M41.0534 6.00934V16.9082C41.0534 17.6224 40.9373 18.1757 40.7051 18.5699C40.4729 18.9631 40.1489 19.2354 39.7309 19.3849C39.3129 19.5354 38.7904 19.6095 38.1613 19.6095C37.2124 19.6095 36.4915 19.4135 35.9964 19.0192C35.5014 18.6261 35.2544 17.9224 35.2544 16.9082V6.00934H27.7696V17.1254C27.7696 20.1786 28.576 22.8164 30.3071 24.4358C31.7152 25.7531 33.0103 26.4515 35.8444 26.4515C37.4625 26.4515 38.973 25.9237 39.6021 25.3472C40.2312 24.7707 40.8191 23.7035 41.0661 22.685L41.4218 22.7126L40.6946 26.0668H42.319C42.337 26.0615 42.3549 26.0583 42.3729 26.053H48.5361V6.00934H41.0513H41.0534Z" fill="black"/>
</svg>
