<svg width="186" height="80" viewBox="0 0 186 80" fill="none" xmlns="http://www.w3.org/2000/svg">
<rect y="18.7946" width="180.715" height="60.2384" transform="rotate(-5.96957 0 18.7946)" fill="#D0FF0C"/>
<g clip-path="url(#clip0_3202_1003)">
<path d="M98.4967 53.2592L98.6006 45.3646L98.1447 45.3524C98.0597 47.5573 97.6824 49.316 97.0171 50.6293C96.3505 51.9428 95.4087 52.92 94.1914 53.5595C92.9741 54.199 91.4074 54.619 89.4913 54.8193C86.6759 55.1137 84.3734 54.2497 82.5811 52.2288C80.7889 50.2079 79.6519 46.8938 79.1703 42.2878C78.8235 38.9714 78.9059 36.3022 79.42 34.2785C79.9329 32.2564 80.8141 30.7638 82.0637 29.8008C83.3134 28.8391 84.9355 28.2526 86.9289 28.0441C89.3654 27.7894 91.4488 28.2731 93.1779 29.4968C94.907 30.7205 96.1261 32.9104 96.8396 36.0699L97.2851 35.9838L95.8537 27.9705L95.3994 23.6259L104.861 22.6366L107.96 52.2696L98.498 53.259L98.4967 53.2592ZM90.1722 46.4054C90.8958 47.2751 91.9213 47.6393 93.2516 47.5002C94.0588 47.4157 94.7811 47.1372 95.4169 46.6648C96.0527 46.1923 96.5403 45.5665 96.8809 44.7857C97.2201 44.005 97.3715 43.1173 97.3337 42.124L96.8506 37.5046C96.1073 36.6914 95.335 36.1168 94.5364 35.7808C93.7365 35.4448 92.8943 35.3244 92.0083 35.4171C90.5873 35.5657 89.6383 36.1908 89.1611 37.291C88.6841 38.3926 88.5557 40.0026 88.7773 42.121C88.9851 44.1087 89.4501 45.5368 90.1735 46.4052L90.1722 46.4054Z" fill="#030712"/>
<path d="M127.318 50.2447L127.422 42.3502L126.966 42.3379C126.881 44.5428 126.504 46.3015 125.839 47.6149C125.172 48.9283 124.23 49.9055 123.013 50.545C121.796 51.1846 120.229 51.6045 118.313 51.8049C115.498 52.0993 113.195 51.2352 111.403 49.2143C109.611 47.1934 108.474 43.8793 107.992 39.2733C107.645 35.9569 107.728 33.2877 108.242 31.2641C108.755 29.2419 109.636 27.7493 110.885 26.7863C112.135 25.8246 113.757 25.2381 115.751 25.0297C118.187 24.7749 120.27 25.2586 122 26.4824C123.729 27.7061 124.948 29.8959 125.661 33.0554L126.107 32.9693L124.675 24.956L124.221 20.6115L133.683 19.6221L136.781 49.2552L127.32 50.2446L127.318 50.2447ZM118.994 43.3909C119.717 44.2607 120.743 44.6248 122.073 44.4857C122.881 44.4013 123.603 44.1228 124.239 43.6503C124.874 43.1779 125.362 42.552 125.703 41.7712C126.042 40.9905 126.193 40.1028 126.155 39.1096L125.672 34.4901C124.929 33.6769 124.157 33.1024 123.358 32.7663C122.558 32.4304 121.716 32.31 120.83 32.4026C119.409 32.5512 118.46 33.1763 117.983 34.2765C117.506 35.3781 117.377 36.9882 117.599 39.1065C117.807 41.0942 118.272 42.5223 118.995 43.3908L118.994 43.3909Z" fill="#030712"/>
<path d="M142.517 50.9108L142.965 42.9203C143.918 43.5931 144.916 44.0936 145.958 44.4233C147 44.753 148.01 44.8667 148.988 44.7644C149.744 44.6855 150.414 44.445 150.941 43.9717C151.688 43.2997 152.063 42.4186 151.88 40.6735L142.673 41.6362L135.493 23.624L145.305 22.598L151.61 38.8626L152.216 38.7993L154.512 21.6352L164.383 20.603L160.836 42.4289C160.509 44.5924 159.916 46.33 159.06 47.6443C158.201 48.9574 157.079 49.9398 155.692 50.5903C154.304 51.2408 152.593 51.6731 150.561 51.8856C147.798 52.1745 145.116 51.8488 142.516 50.9109L142.517 50.9108Z" fill="#030712"/>
<path d="M67.0439 30.7612L68.493 44.6196C68.588 45.5279 68.5148 46.2467 68.2736 46.7787C68.0324 47.3093 67.6589 47.6985 67.1504 47.9437C66.642 48.1903 65.9914 48.3537 65.1962 48.4369C63.9966 48.5623 63.0592 48.4083 62.381 47.9725C61.7029 47.538 61.2971 46.6758 61.1623 45.3862L59.7131 31.5278L50.2515 32.5172L51.7295 46.6518C52.1355 50.5342 53.5056 53.7817 55.9092 55.6119C57.8644 57.1008 59.5944 57.8177 63.1771 57.4431C65.2226 57.2292 67.0618 56.3584 67.7804 55.5422C68.499 54.726 69.1003 53.2912 69.2771 51.9636L69.7304 51.9516L69.2571 56.3128L71.3106 56.0981C71.3326 56.0889 71.3548 56.0825 71.3768 56.0734L79.1679 55.2587L76.5028 29.7721L67.0412 30.7615L67.0439 30.7612Z" fill="#030712"/>
<path d="M35.913 53.8145L36.3238 53.7716L38.1485 33.8026L38.1649 33.63L38.1415 33.6325L38.52 29.5426L48.5007 28.499L48.4856 28.6076L48.5138 28.6046L47.9224 32.7806L44.956 58.8368L28.4775 60.5599L20.2034 35.6791L29.9773 34.6571L35.913 53.8145Z" fill="#030712"/>
</g>
<defs>
<clipPath id="clip0_3202_1003">
<rect width="145.017" height="38.5002" fill="white" transform="translate(19.53 29.2178) rotate(-5.96957)"/>
</clipPath>
</defs>
</svg>
